<svg xmlns="http://www.w3.org/2000/svg" id="Capa_1" data-name="Capa 1" viewBox="0 0 1280 1280"><defs><style>      .cls-1 {        fill: #ac7360;      }      .cls-1, .cls-2, .cls-3, .cls-4, .cls-5, .cls-6, .cls-7, .cls-8, .cls-9, .cls-10 {        stroke-width: 0px;      }      .cls-2 {        fill: #dac314;      }      .cls-3 {        fill: #fff;      }      .cls-4 {        fill: #bfbe08;      }      .cls-5 {        fill: #bebe06;      }      .cls-6 {        fill: #6f5a00;      }      .cls-7 {        fill: #858839;      }      .cls-8 {        fill: #010000;      }      .cls-9 {        fill: #4a4a4a;      }      .cls-10 {        fill: #4c4c02;      }    </style></defs><path class="cls-6" d="m552.4,170.6c-2.89,6.23-6.56,12.49-11.03,18.78-10.53,14.83-22.27,28-35.22,39.52-5.33,4.75-10.44,8.8-15.31,12.14-16.88,11.56-35.84,19.43-55.41,24.57-9.49,2.49-20.82,4.51-33.98,6.05-16.27,1.9-30.7.81-46.39-2.96-15.48-3.71-30.28-8.75-44.4-15.12-6.43-2.9-12.54-6.14-18.33-9.72-7.12-4.39-13.96-8.86-20.51-13.41-2.34-1.63-4.36-3.62-6.05-5.99,7.83-9.17,16.54-17.7,26.12-25.58,1.43-1.18,2.95-2.24,4.55-3.18,13.66-8.04,26.43-14.83,38.3-20.38,9.92-4.64,22.89-9.31,34.4-12.38,13.47-3.6,25.44-6.11,35.92-7.52,17.19-2.31,33.83-3.74,49.9-4.29,6.63-.23,13.4.08,20.29.91,8.57,1.04,16.01,2.23,22.34,3.58,15.27,3.25,30.79,5.74,45.37,11.42,3.07,1.2,6.22,2.39,9.44,3.56Z"></path><path class="cls-7" d="m552.4,170.6c9.16,3.07,17.74,7.49,25.74,13.26,5.79,4.18,10.96,8.45,15.5,12.8,7.7,7.39,15.36,14.48,22.62,22.5,7.49,8.29,14.68,16.12,21.4,25.07,4.64,6.17,9.35,12.5,14.14,18.98,2.16,2.91,4.65,5.55,7.09,8.26,2.46,2.74,5.99,5.39,8.57,8.56,3.23,3.96,6.02,8.02,8.35,12.17,7.23,12.85,12.87,25.8,16.94,38.83.07.21-.05.43-.26.5-.08.02-.16.02-.24,0-1.06-.36-1.91-.84-3.08-.73-2.09.19-4.01.13-5.75-.17-9.87-1.69-16.03-2.55-18.48-2.59-18.83-.27-38.43-1.83-55.94-3.39-10.08-.9-21.47-1.36-32.12-2.43-9.39-.95-18.9-2.09-28.53-3.43-3.19-.44-6.35-.57-9.5-.39-8.54.5-15.76.48-21.66-.06-14.08-1.27-27.97-1.75-42.03-2.26-20.18-.73-40.55.47-61.05,2.94-8.99,1.08-18.81,3.88-27.76,5.6-5.02.96-10.97,1.84-17.86,2.64-9.74,1.12-19.58,4.58-29.51,10.37-3.64,2.13-6.43,4.21-8.38,6.24-.24.25-.34.6-.27.94.1.46.31.79.64.98.94.56,1.78.43,2.51-.38,2.51-2.76,6.34-4.79,9.54-6.54,8.48-4.63,16.48-7.41,23.99-8.35,8.97-1.12,14.8-1.95,17.5-2.49,11.72-2.33,23.86-5.69,36.09-6.76,22.4-1.97,38.56-2.97,58.41-2.28,5.52.19,11.94.56,19.27,1.1,9.05.68,18.27,1.22,27.66,1.62,7.15.3,14.52-.75,21.37.07,11.83,1.42,23.24,2.69,34.22,3.8,11.07,1.12,22.25,1.51,33.94,2.56,8.75.78,19.82,1.57,33.21,2.38,4.03.24,8.24.39,12.62.46,6.49.1,13.04.86,19.67,2.29,4.5.97,8.75,1.72,12.76,2.23.41.05.68.28.83.67,1.41,3.81,3.06,7.7,4.95,11.65,2.78,5.8,7.36,10.7,11.8,15.45,4.74,5.09,8.95,10.36,13.71,15.63,2.71,3,5.4,6.34,8.09,10.02,3.73,5.09,7.65,10.09,11.76,14.98,2.81,3.35,5.19,6.67,7.13,9.97,2.76,4.7,5.5,9.33,8.22,13.9,1.4,2.36,2.28,4.95,3.51,7.41.31.62.19.72-.36.3-1.41-1.1-2.7-2.3-4.28-3.21-10.73-6.14-21.17-10.46-32.38-14.95-7.07-2.83-14.57-5.23-21.95-7.43-11.13-3.31-22.93-3.14-34.22-4.93-4.67-.75-9.38-1.21-14.12-1.39-8.72-.33-17.82-.8-26.31-3.31-4.06-1.2-8.25-1.21-12.36-2.1-6.51-1.42-11.93-2.27-16.27-2.54-20.84-1.34-41.25-3.35-61.87-5.15-5-.44-9.83-.06-14.72-.55-5.91-.59-11.94-.94-18.1-1.03-5.39-.09-11.45.33-18.17,1.25-6.79.93-12.95,1.82-18.48,2.67-11.25,1.73-22.7,4.16-34.35,7.29-7.1,1.9-14.35,4.52-21.5,6.99-2.95,1.01-5.84,2.09-8.67,3.24-15.11,6.1-30.98,10.7-47.6,13.8-5.53,1.03-10.61,1.68-15.25,1.95-5.11.3-10.23.69-15.37,1.16-.39.03-.68.37-.65.76h0c.06.8.47,1.31,1.24,1.54,8.87,2.58,17.42,7.45,25.64,14.6,7.16,6.23,13.07,11.83,17.72,16.79,5.31,5.67,10.02,10.37,14.15,14.09,6.83,6.16,13.96,11.89,21.39,17.18,4.68,3.33,9.58,6.21,14.7,8.66,5.25,2.51,10.5,4.93,15.74,7.26,7.43,3.29,14.65,7.11,21.94,10.59,5.78,2.75,10.93,6.45,17.03,9.31,5.42,2.55,10.34,6.49,16.03,9.06,12.37,5.61,25.36,10.25,38.95,13.94,4.48,1.21,9.9,2.17,16.26,2.88,9.67,1.07,19.79,2.83,29.56,3.93,11.24,1.25,22.26,2.06,33.66,2.68,6.93.38,13.6.62,19.99.72,18.94.3,36.8-.01,53.58-.93,10.39-.57,21.13-2.84,32.22-6.81,4.72-1.69,8.68-3.6,11.88-5.75,4.71-3.17,9.34-6.84,13.88-11.01.27-.24.51-.22.74.06,3.43,4.19,6.89,7.84,10.36,10.95.3.26.34.56.12.89-2.61,3.98-5.67,7.46-9.17,10.45-9.72,8.29-18.11,14.86-25.16,19.69-5.3,3.64-12.85,7.74-22.66,12.31-15.73,7.33-30.2,8.6-50.21,10.83-3.11.35-6.34.61-9.69.8-14.3.79-28.6,1.51-42.9,2.14-5.53.25-12.19.31-19.98.19-13.15-.21-26.64.05-40.47.77-2.21.11-6.06-.08-11.53-.57-9.93-.9-20.71-2.75-29.7-3.27-9.07-.53-16-1.27-20.79-2.21-8.58-1.69-15.88-3.03-21.9-4.01-5.45-.88-11.86-1.53-19.23-1.94-.29-.02-.57.1-.76.33-.44.55-.37,1,.22,1.37,1.43.91,3.28,1.4,4.97,1.52,6.41.44,11.56,1,15.44,1.67,6.77,1.17,14.09,2.59,21.98,4.26,4.09.87,9.84,1.46,17.25,1.77,6.82.29,15.07,1.17,24.75,2.64,3.33.51,7.26.92,11.81,1.24,3.74.27,7.61.32,11.61.15,8.43-.35,16.72-.63,24.89-.84,8.33-.21,17.2.99,25.06.42,8.94-.65,16.75-1.11,23.44-1.4,8.57-.37,16.78-.95,25.28-1.36,7.05-.34,14.99-1.04,23.8-2.09,13.76-1.64,26.41-4.16,37.72-9.61,9.53-4.59,18.85-9.14,27.2-15.33,8.11-6.01,15.62-12.03,22.53-18.04,3.21-2.79,6.2-6.28,8.97-10.46.23-.35.53-.42.89-.21,9.49,5.48,15.68,8.78,18.56,9.9,11.58,4.48,23.7,9.9,34.09,13.67,7.28,2.64,14.29,5.11,21.03,7.41,5.55,1.9,11.24,3.34,17.05,4.31,8.39,1.39,16.64,2.59,24.76,3.6,5.32.65,12,1.27,20.05,1.85,8.01.58,16.05,1.21,24.13,1.9,3.91.33,7.53.54,10.88.63,4.89.12,9.63.79,14.42.45,4.37-.31,8.8-.41,13.27-.32,6.03.12,11.84-1.25,17.93-1.27,2.69,0,5.5-.3,8.45-.89,4.64-.92,9.68-.81,14.35-1.35,13.64-1.57,22.88-2.46,27.72-2.68,12.63-.57,24.54-1.42,35.71-2.56,20.41-2.08,41.74-6.53,63.98-13.34,5.62-1.72,10.88-3.83,15.79-6.34,9.02-4.61,17.75-9.64,26.62-14.23,4.27-2.2,8.06-5.13,12.09-7.71.28-.18.58-.22.9-.12,2.19.67,4.33,1.46,6.42,2.38,5.05,2.23,4.31,11,3.56,15.66-1.16,7.31-8.96,13.11-15.68,14.83-6.13,1.57-12.03,2.75-15.26,8.87-2.5,4.74-6.17,7.16-10.84,9.22-1.78.79-3.72,1.5-5.83,2.15-14.22,4.39-27.75,8.47-42.04,14.01-7.01,2.71-14.28,5.05-21.81,7.01-6.56,1.71-12.95,2.96-19.16,3.76-15.09,1.94-29.22,2.73-42.4,2.36-8.11-.23-15.21-.25-21.29-.07-1.07.03-2.16.25-3.26.64-.49.17-.91.08-1.27-.29-3.99-4.03-8.11-8.1-12.37-12.2-.89-.85-1.97-1.53-3.25-2.05-.26-.11-.55.01-.65.27-.04.09-.05.2-.03.3.37,1.72,1.05,3.07,2.04,4.06,4.28,4.26,8.55,8.34,12.73,12.57,3.23,3.27,6.53,6.29,9.91,9.04.87.71,1.84,1.17,2.93,1.38.35.06.68-.17.74-.52.01-.08.01-.16,0-.24-.25-1.21-.9-2.27-1.97-3.18-2.33-2.01-4.52-3.96-6.59-5.84-.39-.36-.32-.57.21-.62,4.57-.48,8.5-.62,11.81-.43,7.99.47,15.43.57,22.32.31,15.49-.58,29.56-2.04,42.2-4.39,4.21-.78,9.94-2.32,17.2-4.61,5.47-1.73,10.65-3.53,15.55-5.39,7.18-2.73,14.26-5.19,21.24-7.39,1.27-.39,2.56-.73,3.88-1,.34-.07.61.03.81.32,7.33,10.7,2.38,22.73-7.23,29.42-4.11,2.86-8.29,5.64-12.56,8.33-1.41.89-2.95,1.54-4.61,1.95-11.65,2.87-23.53,4.64-35.62,5.32-3.42.19-7.15.16-11.2-.07-5.01-.29-10.03-.29-15-.82-10.41-1.11-21.15-2.37-32.23-3.76-10.9-1.36-21.5-1.73-32.32-.51-6.65.75-13.27,1.43-19.87,2.06-2.5.23-5.03.35-7.58.34-21.3-.05-42.33,0-63.09.17-7.62.06-15.67.68-23.5.83-6.47.12-13.48.66-19.87,1.75-10.95,1.87-18.34,3.28-22.17,4.24-14.45,3.63-28.01,8.38-40.66,14.24-4.52,2.09-8.41,3.56-11.68,4.39-11.31,2.89-22.45,4.72-33.4,5.48-13.83.96-28.01,3.25-41.27,2.9-5.11-.13-10.12-.03-15.02.32-5.96.42-12.27.5-18.92.24-11.5-.45-22.81-.21-34.01-.32-17.4-.17-35.52.01-53.14-1.71-9.4-.91-18.89-1.76-28.48-2.54-6.17-.49-12.48,0-18.56-.86-9.61-1.35-19.34-.98-29.21,1.13-2.91.62-5.72,1.6-8.43,2.95-9.52,4.74-18.25,10-25.09,17.86-10.06,11.58-16.14,25.82-16.86,41.25-.28,5.94.78,12.01,3.18,18.2.11,9.36.13,18.54.05,27.55-.04,4.69-.41,9.11-1.1,13.26-1.25,7.46-2.51,13.58-3.76,18.36-2.84,10.79-9.98,21.48-16.21,31.39-2.57,4.08-5.41,7.87-8.54,11.36-8.1,9.03-16.2,18.62-25.83,26.07-7.43,5.75-13.77,10.2-19.02,13.35-5.92,3.55-11.84,7.12-17.77,10.71-1.05.64-2.52,1.95-4.4,3.93-11.17-1.66-22.61-3.32-34.33-4.98-5.89-.83-11.53-1.67-17.47-3.04-12.4-2.85-24.8-5.68-37.15-8.77-3.77-.95-7.53-1.74-11.26-2.38-9.6-1.65-19.19-3.16-28.78-4.55-3.3-.48-6.75-1.14-10.34-1.98-15.07-3.53-25.99-6.41-32.77-8.65-6.81-2.25-13.67-4.59-20.57-7.02-6.15-2.16-12.34-4.63-18.57-7.42-12.14-5.44-23.75-11-34.84-16.68-5.01-2.57-9.99-5.89-14.92-9.95,10.7-4.95,20.08-10.23,28.13-15.83,10.93-7.6,20.51-17.23,28.76-28.89,4.71-6.65,8.03-14.8,9.98-24.44,4.68-23.14,5.56-46.21-2.36-67.81-3.87-10.56-9.35-20.59-16.43-30.1-8.05-10.81-14.82-19.01-20.3-24.58-11.72-11.91-25.99-22.76-42.82-32.57,6.57-25.55,14.77-51.12,24.59-76.73.22-.57.43-.57.62.02.38,1.18.25,2.51.52,3.69,3.27,14.49,6.8,28.22,10.57,41.17.76,2.61,1.65,5.11,2.67,7.5,1.47,3.46,2.39,7.08,3.98,10.48,5.09,10.95,10.1,19.65,15.01,26.09,5.05,6.63,10.84,13.34,17.37,20.14,10.24,10.65,24.21,20.86,39.1,21.26,18.03.48,33.19-4.53,49.26-11.89,3.19-1.46,6.08-3.18,8.66-5.15,3.67-2.82,7.59-5.26,10.97-8.22,16.79-14.67,30.49-31.92,41.08-51.74,5.03-9.4,8.99-19.46,11.9-30.17,5.8-21.34,8.58-43.16,7.88-65.5-.28-9.15-.7-17.92-1.26-26.32-.46-6.83-1.23-13.45-2.31-19.86-2.7-15.94-5.96-30.93-9.77-44.97-4.91-18.09-12.53-34.92-23.78-49.78-6.05-7.99-12.54-16.18-19.47-24.57-8.57-10.35-18.78-16.72-30.91-21.47-8.79-3.45-17.91-3.55-27.92-2.75-1.41.11-2.79.66-4.2.63-.81-.01-.89-.27-.26-.78,8.1-6.42,15.13-14.02,21.08-22.79,2.19-3.22,4.41-6.35,6.64-9.39,7.15-9.73,14.55-19.91,22.2-30.52,2.06-2.85,4.32-5.73,6.79-8.63,2.27-2.66,4.59-5.36,6.96-8.09,1.69,2.37,3.71,4.36,6.05,5.99,6.55,4.55,13.39,9.02,20.51,13.41,5.79,3.58,11.9,6.82,18.33,9.72,14.12,6.37,28.92,11.41,44.4,15.12,15.69,3.77,30.12,4.86,46.39,2.96,13.16-1.54,24.49-3.56,33.98-6.05,19.57-5.14,38.53-13.01,55.41-24.57,4.87-3.34,9.98-7.39,15.31-12.14,12.95-11.52,24.69-24.69,35.22-39.52,4.47-6.29,8.14-12.55,11.03-18.78h0Zm162.35,441.81c-7.5,2.54-18.74,7-33.73,13.38-1.93.83-4.01,1.75-6.23,2.76-4.31,1.97-9.02,3.78-14.13,5.43-13.86,4.47-26.73,7.85-38.61,10.12-2.55.49-2.81,1.29-.78,2.42.54.29,1.28.37,2.21.23,5.08-.79,9.79-1.77,14.13-2.93,13.7-3.68,27.19-7.5,40.45-13.38,16.6-7.37,32.09-13.73,48.79-18.79,3.06-.93,5.98-1.56,8.76-1.89.47-.05.9-.22,1.29-.51.49-.36.64-.84.45-1.45-.2-.61-.77-1.02-1.41-1.01-2.15.03-4.61.44-7.38,1.25-4.23,1.23-8.84,2.69-13.81,4.37h0Z"></path><path class="cls-6" d="m966.98,200.33c-2.95,3.71-6.23,7.05-9.86,10.03-13.2,10.85-27.71,20.14-43.27,27.21-5.71,2.59-9.95,4.43-12.72,5.5-14.92,5.77-29.34,9.57-43.25,11.42-11.73,1.56-24.72,1.8-38.95.71-12.8-.98-25.01-2.62-36.64-4.91-6.71-1.32-13.21-3.53-19.86-5.25-4.8-1.23-9.6-2.88-14.4-4.95-20.13-8.66-38.94-19.1-56.41-31.33-4.93-3.45-9.39-7.55-13.88-11.42-.22-.2-.38-.45-.45-.74l-.53-2.2c8.88-3.34,17.5-5.33,26.19-7.72,15.62-4.3,33.53-8.11,47.81-9.54,10.13-1.01,19.21-1.68,27.24-1.99,10.86-.43,22.54,1.47,34.01,1.69,13.07.24,25.6.74,37.61,1.51,7.85.5,14.55.81,20.08.93,2.77.06,5.5.23,8.21.51,3.72.38,7.35.41,11.03.8,10.52,1.12,20.95,2.66,31.29,4.63,5.29,1.01,10.75,2.43,16.4,4.28,10.43,3.41,20.55,7.02,30.35,10.83Z"></path><path class="cls-7" d="m676.76,194.4l.53,2.2c.07.29.23.54.45.74,4.49,3.87,8.95,7.97,13.88,11.42,17.47,12.23,36.28,22.67,56.41,31.33,4.8,2.07,9.6,3.72,14.4,4.95,6.65,1.72,13.15,3.93,19.86,5.25,11.63,2.29,23.84,3.93,36.64,4.91,14.23,1.09,27.22.85,38.95-.71,13.91-1.85,28.33-5.65,43.25-11.42,2.77-1.07,7.01-2.91,12.72-5.5,15.56-7.07,30.07-16.36,43.27-27.21,3.63-2.98,6.91-6.32,9.86-10.03,9.85,3.89,19.19,8.38,28,13.46,3.35,1.93,6.54,4.38,9.44,6.77,6.23,5.13,10.9,10.47,14.03,16,1.63,2.88,3.21,5.77,4.76,8.67,1.61,3.01,1.59,6.15,2.47,9.4,2.99,11.12,4.87,22.95,5.62,35.49.25,4.29.14,8.64-.35,13.05-.03.33-.31.57-.64.56-6.07-.19-12.06-.01-17.97.54-9.34.88-19.59,1.5-28.12,1.5-6.93,0-12.73.41-17.4,1.23-15.62,2.72-33.66,5.15-54.11,7.29-5.97.63-11.4.86-16.27.7-9.62-.3-19.12-.09-28.86-.49-6.3-.27-12.34.01-18.59.51-2.47.19-4.95.26-7.46.19-9.75-.28-19.58,1.02-29.41,1.31-22.8.65-44.17,2.24-65.86,7.12-12.27,2.75-24.48,5.38-36.64,7.87-3.09.63-6.29,1.14-9.61,1.51-2.19.25-3.62-.64-4.29-2.67-4.08-12.43-9.19-24.44-15.33-36.04-4.11-7.76-9.22-15.57-15.76-21.51-3.07-2.79-5.63-5.48-7.67-8.07-5.65-7.16-11.35-14.69-17.12-22.58-4.91-6.72-10.68-13.07-16.31-19.58-.27-.33-.24-.81.09-1.08h.01c2.15-1.79,4.44-3.44,6.88-4.95,9.47-5.89,20.85-11.77,34.12-17.63,4.79-2.12,8.84-3.62,12.13-4.5h0Z"></path><path class="cls-7" d="m948.83,312.83c6.55-1.04,13.23-2.02,20.05-2.93,12.43-1.67,24.89-1.12,37.42-2.24,6.41-.57,12.94-.96,19.6-1.18,16.47-.54,33.05-1.67,49.31.08.63.07,1.26.22,1.87.47,9.78,3.94,18.76,8.19,26.84,14.45,10.5,8.14,19.03,15.04,26.93,24.47.19.23,3.36,3.69,9.51,10.38,4.32,4.71,8.3,9.99,11.94,15.84,1.91,3.07,3.78,6.73,5.61,10.99,2.36,5.5,6.13,11.83,7.28,17.87.07.36-.17.7-.53.77-.08.01-.16.01-.24,0-2.96-.61-5.93-1.05-8.92-1.32-16.27-1.48-31.62-2.14-48.76-1.99-13.51.11-27.33.08-41.48-.1-2.89-.03-5.72-.18-8.5-.43-5.51-.49-10.91.61-16.39.96-23.96,1.53-43.36,3.28-58.19,5.25-4.45.59-9.38,1.43-14.79,2.51-7.95,1.6-16.02,1.51-24.01,3.31-11.58,2.62-22.91,5.01-34,7.16-6.21,1.2-12.27,2.73-18.17,4.58-12.56,3.95-25.01,7.96-37.36,12.04-4.99,1.65-9.98,3.69-14.99,6.13-6.65,3.23-14.24,7.08-22.79,11.55-9.63,5.03-20,8.21-31.13,9.54-3.34.4-5.59.98-9.1-.13-.79-.25-1.28-.79-1.45-1.6-2.23-10.41-5.17-19.53-8.83-27.38-1.97-4.23-5.45-10.46-10.44-18.69-2.76-4.55-6.09-9.16-9.98-13.83-4.47-5.36-8.9-11.08-13.3-17.16-3.04-4.22-7.12-8.06-10.62-12.24-4.12-4.94-8.39-9.41-12.56-14.07-3.83-4.29-6.72-9.15-8.67-14.6-.52-1.47-1.2-2.85-2.03-4.14-.18-.28-.11-.66.17-.84.09-.06.19-.09.29-.1,4.27-.33,8.23-.89,11.86-1.68,15.86-3.47,31.34-6.78,46.43-9.95,6.39-1.34,13.49-2.31,21.3-2.92,13.95-1.09,28.62-2.02,44-2.79,2.92-.15,5.75-.28,8.49-.39,3.97-.16,8.08-.28,12.34-.37,8.12-.16,16.11-1.19,24.4-.73,9.06.5,18.17.33,27.04.5,5.36.11,10.34-.02,14.94-.39,13.35-1.04,26.56-2.59,39.61-4.66h0Z"></path><path class="cls-7" d="m137.17,621.76c-7.55-10.43-13.76-22.78-18.06-35.78-5.31-16.06-9.44-31.57-12.39-46.52-.89-4.48-1.35-8.96-1.39-13.45-.08-8.25-.05-16.17.08-23.78.07-3.9.26-7.95.56-12.14.29-3.99.51-8.09.68-12.31.3-7.47.87-15.37,1.72-23.71.64-6.35,1.81-12.72,2.52-19.28.23-2.17.95-6.15,2.16-11.92.81-3.91,1.92-7.78,3.31-11.6,3.42-9.39,5.67-18.63,9.36-27.71,3.01-7.41,5.95-14.1,8.82-20.06,5.95-12.37,13.19-23.95,22.83-31.92,4.72-3.89,9.62-8.09,14.82-11.36,6.72-4.22,13.49-7.58,20.31-10.08,8.95-3.27,18.91-4.37,29.87-3.29,6.03.59,12.06,2.58,18.1,5.96,2.14,1.19,4.3,2.36,6.47,3.51,6.97,3.66,12.85,9.75,17.75,15.82,5.84,7.22,11.44,14.28,16.79,21.19,9.98,12.85,17.34,27.12,22.08,42.79,5.25,17.35,9.49,36.47,12.73,57.36.41,2.61.67,5.26.8,7.95.19,3.99.92,7.84,1.02,11.77.25,9.84,1.27,20.62,1.06,30.09-.43,20.13-3.42,39.7-8.96,58.71-2.88,9.88-6.96,19.53-12.23,28.94-9.85,17.56-22.4,33.2-37.67,46.92-2.45,2.19-5.1,4.28-7.95,6.27-3.84,2.67-7.46,5.47-11.61,7.41-6.29,2.93-12.26,5.36-17.92,7.3-7.33,2.51-15.74,4.11-25.23,4.8-16,1.15-29.36-7.87-40.21-18.54-7.69-7.56-14.43-15.34-20.22-23.34h0Zm45.29-216.35c-4.35,5.77-8.79,11.32-11.07,18.23-2.19,6.66-4.34,13.46-6.43,20.39-4.59,15.23-7.08,31.18-7.49,47.85-.27,10.99-.37,21.99-.28,32.99.04,5.58.69,11.81,2.06,16.96,1.1,4.12,2.85,8.75,5.26,13.88,2.94,6.25,10.55,15.1,18.17,17.12,4.11,1.09,8.24,2.07,12.4,2.96,5.51,1.17,11.1.79,16.79-1.13,8.62-2.9,14.75-8.11,21.59-14.19,8.27-7.36,13.48-16.26,15.63-26.7,1.98-9.58,3.11-17.43,3.38-23.55.23-5.35.45-10.56.66-15.65.21-5.23.22-10.45.02-15.66-.34-8.82-.31-17.94-1.34-26.17-.61-4.92-1.43-9.62-2.45-14.09-3.19-14.07-11.7-25.86-21.5-37.45-8.38-9.92-23.36-11.37-34.28-4.92-5.08,2.99-8.79,6.04-11.12,9.13h0Z"></path><path class="cls-3" d="m698.63,529.8c3.31-25.85-5.9-54.98-23.7-74.25-5.18-5.6-11.35-11.53-18.5-17.8-12.17-10.66-28.29-19.29-44.17-20.22-8.36-.49-18-.41-26.35.88-10.39,1.61-18.99,3.78-25.82,6.51-19.79,7.92-36.28,20.09-49.45,36.5-2.29,2.85-4.67,6.94-7.16,12.27-2.39,5.11-2.83,10.5-3.82,15.92-2.23,12.24-1.94,25.03,1.91,36.87,1.51,4.63,4.35,9.02,7.14,13.18.46.68.3.89-.48.62-9.4-3.25-18.13-7.44-26.18-12.58-2.58-1.64-5.21-3.16-7.9-4.55-2.69-1.4-5.43-2.82-8.21-4.26-14.83-7.69-26.5-13.34-35.01-16.95-9.27-3.94-18.12-9.02-26.55-15.25-5.09-3.77-9.75-7.6-13.96-11.48-2.01-1.85-3.93-3.58-5.78-5.19-1.89-1.65-3.71-3.43-5.46-5.34-8.14-8.89-16.62-17.04-25.45-24.45-4.38-3.67-9.26-6.9-14.65-9.67-1.18-.61-1.12-1.03.19-1.26,4.05-.72,8.16-.45,12.38-1.08,7.35-1.11,13.77-2.32,19.24-3.63,11.91-2.86,23.97-6.7,36.16-11.53,6.56-2.6,13.06-4.7,19.68-7.01,4.16-1.45,8.57-2.74,13.22-3.86,6.01-1.45,11.82-2.94,18.08-4.09,15.56-2.84,29.33-4.78,41.3-5.83,5.69-.5,13.92-.32,24.67.55,5.03.4,10.18-.09,15.16.5,19.59,2.33,39.5,4.01,59.74,5.05,8.62.44,16.79,2.88,25.27,4.08,5.14.73,10.25,2.15,15.34,2.88,5.01.71,10.11,1.16,15.31,1.34,4.82.17,9.93.59,15.32,1.24,7.2.87,13.96,1.61,20.29,2.2,4.36.41,9.65,1.51,15.88,3.3,6.21,1.79,13.61,4.39,22.19,7.81,9.63,3.84,19.35,7.92,28.21,13.24,2.68,1.61,5.27,3.85,7.76,6.72,2.06,2.37,3.58,5.31,4.56,8.82,3.62,12.95,4.2,24.54,1.75,34.77-3.48,14.53-10.14,27.64-19.99,39.34-4.37,5.19-9.91,9.66-15.16,14.37-5.78,5.19-13,9.74-20.76,12.42-7.91,2.73-15.77,5.17-23.82,5.49-1.36.05-2.51.36-3.81.65-1.08.25-1.24-.03-.49-.84,4.48-4.82,6.89-10.82,9.36-16.97,1.29-3.2,2.13-6.34,2.52-9.43h0Z"></path><path class="cls-8" d="m182.46,405.41c2.33-3.09,6.04-6.14,11.12-9.13,10.92-6.45,25.9-5,34.28,4.92,9.8,11.59,18.31,23.38,21.5,37.45,1.02,4.47,1.84,9.17,2.45,14.09,1.03,8.23,1,17.35,1.34,26.17.2,5.21.19,10.43-.02,15.66-.21,5.09-.43,10.3-.66,15.65-.27,6.12-1.4,13.97-3.38,23.55-2.15,10.44-7.36,19.34-15.63,26.7-6.84,6.08-12.97,11.29-21.59,14.19-5.69,1.92-11.28,2.3-16.79,1.13-4.16-.89-8.29-1.87-12.4-2.96-7.62-2.02-15.23-10.87-18.17-17.12-2.41-5.13-4.16-9.76-5.26-13.88-1.37-5.15-2.02-11.38-2.06-16.96-.09-11,0-22,.28-32.99.41-16.67,2.9-32.62,7.49-47.85,2.09-6.93,4.24-13.73,6.43-20.39,2.28-6.91,6.72-12.46,11.07-18.23h0Zm62.57,132.22c2.33-8.87,4.22-18.51,4.67-27.84.61-12.72.72-26.8.31-42.25-.15-5.89-.55-11.09-1.18-15.62-1.39-10.01-3.7-20.56-8.96-29.31-4.25-7.06-9.28-13.89-15.11-20.5-2.26-2.57-5.13-4.37-8.62-5.41-8.07-2.41-15.5-1.56-22.36,2.97-2.7,1.79-4.72,3.38-6.06,4.78-3.17,3.31-6.46,7.52-9.87,12.61-1.55,2.32-2.78,4.88-3.69,7.69-2.27,7-4.44,13.93-6.53,20.79-1.95,6.41-3.42,12.62-4.43,18.64-3.35,20.01-3.31,38.21-3.22,59.49.04,10.13,1.84,18.96,5.8,27.88,2.96,6.67,7.49,12.21,13.59,16.62.89.64,1.87,1.13,2.95,1.46,4.77,1.46,9.6,2.65,14.49,3.57,15.29,2.86,29.13-9.11,38.93-19.14,4.54-4.64,7.64-10.12,9.29-16.43h0Z"></path><path class="cls-10" d="m249.7,509.79c-.45,9.33-2.34,18.97-4.67,27.84-1.65,6.31-4.75,11.79-9.29,16.43-9.8,10.03-23.64,22-38.93,19.14-4.89-.92-9.72-2.11-14.49-3.57-1.08-.33-2.06-.82-2.95-1.46-6.1-4.41-10.63-9.95-13.59-16.62-3.96-8.92-5.76-17.75-5.8-27.88-.09-21.28-.13-39.48,3.22-59.49,1.01-6.02,2.48-12.23,4.43-18.64,2.09-6.86,4.26-13.79,6.53-20.79.91-2.81,2.14-5.37,3.69-7.69,3.41-5.09,6.7-9.3,9.87-12.61,1.34-1.4,3.36-2.99,6.06-4.78,6.86-4.53,14.29-5.38,22.36-2.97,3.49,1.04,6.36,2.84,8.62,5.41,5.83,6.61,10.86,13.44,15.11,20.5,5.26,8.75,7.57,19.3,8.96,29.31.63,4.53,1.03,9.73,1.18,15.62.41,15.45.3,29.53-.31,42.25h0Z"></path><path class="cls-7" d="m1077.97,433.82c-3.56-.31-6.75,1.01-10.5,1.15-9.27.32-18.8,1.04-27.64,1.16-6.25.09-12.02-.11-18.33.63-8.94,1.05-18.02,1.88-27.24,2.49-7.29.49-14.56,2.64-21.97,3.85-3.26.53-6.59,1.28-9.98,2.27-8.01,2.33-16.1,4.64-24.25,6.92-15.39,4.29-30.56,11.04-46.97,12.94-3.53.41-7.05,1.02-10.56,1.83-13.04,3.02-26.9,5.3-40.39,5.04-10.17-.19-20.91-.22-32.22-.09-5.09.06-9.49-.4-13.2-1.37-4.39-1.16-8.92-2.96-13.58-5.4-.73-.38-.68-.61.14-.68,7.67-.7,14.98-2.14,21.94-4.33,5.02-1.57,11.05-4.24,18.1-8,7.03-3.75,14.29-7.44,21.77-11.07,1.97-.95,3.95-1.76,5.96-2.43,2.81-.94,5.59-2.14,8.45-3.07,11.82-3.83,23.85-7.69,36.1-11.58,8.58-2.72,17.45-4.11,26.1-5.94,4.83-1.03,9.67-2.08,14.53-3.17,6.74-1.51,13.8-2.72,21.18-3.62,9.8-1.19,18.91-3.12,28.35-4.25,13.5-1.62,26.7-3.3,40.12-4.08,6.38-.37,12.87-.79,19.46-1.24,5.9-.41,12.22-.56,18.97-.47,18.19.26,36.53.33,55.01.2,5.93-.04,11.85.12,17.74.48,13.83.84,27.54,1.15,40.59,5.89,9.65,3.51,13.42,10.61,15.86,20.03,2.19,8.47-2.83,15.15-11.82,15.55-1.12.05-2.32-.18-3.59-.7-7.05-2.87-12.87-4.79-17.44-5.77-4.56-.98-9.27-1.97-14.12-2.97-3.21-.67-6.37-.99-9.46-.97-16.9.13-34.27-.38-49.95.8-2.43.19-4.81.18-7.16-.03h0Z"></path><path class="cls-2" d="m549.89,433.13c3.7-1.91,7.07-3.95,11.09-5.29,9.38-3.13,17.31-5.18,23.79-6.15,7.63-1.15,15.51-1.58,23.66-1.29,14.97.52,29.29,6.45,40.74,15.44,8.1,6.35,16.82,14.54,23.96,22.39,11.68,12.87,18.33,28.38,21.63,45.15,1.32,6.69,1.72,14.27,1.19,22.75-.47,7.5-3.29,13.7-6.36,20.29-1.34,2.89-3.82,6.41-7.43,10.58-.26.3-.59.46-.99.48-1.64.06-3.37.38-4.99.38-5.74-.01-11.29.09-16.65.32-11.2.46-22.06.1-32.93.27-.75.01-1.5-.03-2.25-.14-1.29-.17-1.35-.54-.17-1.09,14.66-6.95,22.28-22.41,22.91-38.21.19-4.76-1.67-8.94-2.58-13.6-1.72-8.81-7.31-17.09-14.05-23.48-2.49-2.36-4.92-4.1-7.29-5.23-10.46-4.95-23.54-7.38-34.83-4.14-14.57,4.18-28.17,12.68-34.29,27.29-1.03,2.44-2.1,4.86-3.23,7.27-.6,1.28-.81,2.75-.64,4.41.58,5.63,2.02,11.18,3.67,16.5.87,2.81,2.07,5.54,3.6,8.19,4,6.92,8.27,12.62,15.04,17.01,1.02.66.92.97-.29.94-.82-.03-1.63-.1-2.44-.23-9.05-1.41-16.96-2.51-23.73-3.29-5.23-.6-9.73-1.42-13.52-2.45-5.84-1.6-12.16-3.46-18.95-5.57-.37-.11-.62-.46-.6-.85.04-1.01-.25-1.99-.88-2.94-2.85-4.33-6-8.52-7.56-13.55-2.95-9.5-3.92-18.61-2.93-27.33,1.18-10.32,2.85-20.47,7.85-28.83,9.18-15.33,24.99-28.02,40.45-36Z"></path><path class="cls-3" d="m962.27,499.99c-5.93,9.51-9.73,21.29-12.45,32.31-3.04,12.35,1.23,27.74,6.62,39.48,2.85,6.21,7.99,11.91,12.91,16.7.12.11.13.3.02.42-.05.05-.11.09-.18.1-3.01.48-6.14.85-9.39,1.1-5.06.4-10.03.08-15.06.27-8.02.31-16.45.04-24.48-.65-16.67-1.45-33.34-2.91-50.01-4.38-5.4-.47-11.6-1.22-17.3-2.72-2.33-.62-4.92-1.06-7.75-1.33-3.36-.32-7.94-1.47-13.73-3.46-12.69-4.35-23.14-8.16-31.35-11.43-4-1.59-7.85-3.56-12.01-5.01-9.77-3.43-19.7-8.22-29.77-14.39-4.87-2.99-9.05-6.97-12.53-11.94-.4-.58-.31-1.37.22-1.83,12.67-11.08,21.89-27.22,26.78-43.13,1.69-5.49,2.46-11,2.3-16.52-.07-2.43-.1-4.98-.08-7.65,0-.56.23-.68.7-.37,3.33,2.25,7.8,4.43,13.41,6.53,5.44,2.03,10.55,3.06,15.34,3.07,14.35.03,28.33.03,41.95,0,14.86-.03,29.03-4.55,43.61-6.54,10.62-1.46,20.73-4.19,30.08-7.4,7.2-2.48,12.34-4.15,15.41-5.02,7.83-2.21,15.49-4.42,22.99-6.63,5.87-1.74,11.02-3,15.46-3.77,6.92-1.2,13.9-2.91,20.96-3.46,8.25-.64,16.21-1.39,23.87-2.25,4.59-.52,9.38-.75,14.35-.69,9.54.11,18.67-.68,27.3-.94,4.26-.13,8.46-.39,12.59-.79,5.63-.55,11.33-.51,16.91-.95,13.84-1.09,27.95-.55,41.49-.59,4.51-.01,8.71.32,12.58.99,7.07,1.23,12.16,2.24,15.25,3.03,3.5.89,7.32,2.09,11.45,3.61,2.66.98,5.12,2.22,7.37,3.72,2.36,1.57,4.74,3.05,7.15,4.46,3.18,1.87,5.33,5.31,7.32,8.34,1.94,2.95,3.62,6.74,5.04,11.37,2.88,9.35,3.98,18.36,3.31,27.03-.49,6.45-3.19,14.15-6.11,19.6-4.41,8.25-13.37,18.73-22.63,24.7-3.37,2.17-6.43,4.39-10.12,6.26-5.83,2.95-11.57,6.02-17.22,9.23-.62.35-.82.19-.61-.5,1.95-6.17,3.65-12.14,5.1-17.92.92-3.65,1.04-8.81.35-15.46-.71-6.92-2.44-14.38-5.19-22.39-1.64-4.76-4.27-9.76-7.89-15.01-4.27-6.18-7.97-10.98-11.1-14.4-9.64-10.55-23.29-17.42-37.44-22.2-9.77-3.31-19.42-4.84-28.95-4.61-12.36.3-24.01,2.52-34.94,6.67-11.73,4.44-23.02,10.42-33.89,17.94-11.33,7.84-20.67,17.64-28.01,29.4h0Z"></path><path class="cls-2" d="m1104.73,461.03c14.47,7.43,23.8,19.02,32.23,32.67,2.66,4.3,4.15,8.4,5.77,13.31,4.14,12.63,6.08,26.06,2.07,38.33-1.62,4.96-3.02,9.81-4.2,14.55-.11.41-.34.71-.71.91-2.92,1.57-5.62,3.47-8.79,4.57-11.36,3.93-22.49,7.13-33.39,9.6-1.03.23-1.16-.02-.41-.76,2.88-2.82,4.91-6.45,6.08-10.9,1.14-4.31,1.69-7.37,1.66-9.17-.07-3.65-.25-7.45-.56-11.4-.8-10.5-4.6-19.11-12.01-26.98-7.55-8.03-16.45-13.21-26.69-15.54-4.14-.94-10.03-1.09-17.68-.44-4.43.38-9.13,1.85-14.1,4.41-11.46,5.89-19.52,15.54-24.18,28.93-1.95,5.63-2.46,10.56-1.52,14.79,1.49,6.76,3.68,12.98,6.55,18.66,3.56,7.04,8.39,11.94,14.94,15.89.25.15.41.35.5.62.07.2-.03.43-.24.5-.03.01-.07.02-.1.02-8.63.7-17.47,1.28-25.91,2.18-4.38.47-8.76.86-13.15,1.18-4.88.37-9.67.93-14.56,1.26-2.25.16-4.12-1.3-5.61-2.8-3.63-3.64-6.71-7.37-9.24-11.18-2.17-3.27-4.09-7.62-5.78-13.05-2.81-9.1-5.29-18.78-3.05-27.69,1.65-6.53,3.73-13.1,6.26-19.71,6.81-17.85,21.16-33.18,37.91-43.75,12.92-8.14,26.59-14.74,41.41-18.22,5.86-1.37,11.8-1.78,17.76-2.47,2.28-.27,4.65-.32,7.12-.17,6.76.43,12.39,1.23,16.89,2.41,8.59,2.25,16.84,5.39,24.73,9.44h0Z"></path><rect class="cls-3" x="581.77" y="487.71" width="21.48" height="14.82" rx="6.96" ry="6.96" transform="translate(-116.22 188.67) rotate(-16.5)"></rect><ellipse class="cls-3" cx="1045.84" cy="521.54" rx="11.19" ry="7.64" transform="translate(-115.31 389.15) rotate(-20)"></ellipse><path class="cls-3" d="m612.17,521.87c.51-5.02,6.25-9.2,9.86-3.65,2.76,4.25,1.78,8.52.35,13.01-.67,2.09-1.58,3.55-2.71,4.38-2.72,2-9.21,2.29-8.64-2.92.39-3.64.77-7.25,1.14-10.82h0Z"></path><path class="cls-3" d="m583.52,527.97c.64.81.5,1.98-.31,2.62l-.73.58c-2.22,1.75-5.73,1-7.85-1.68l-1.03-1.31c-2.12-2.68-2.04-6.28.18-8.03l.73-.57c.81-.64,1.98-.51,2.63.3h0l6.38,8.09Z"></path><rect class="cls-3" x="1065.42" y="550.98" width="18.98" height="10.2" rx="4.86" ry="4.86" transform="translate(186.16 1377.53) rotate(-70.1)"></rect><path class="cls-3" d="m1034.31,556.64c2.11,2.2,3.72,4.36,6.33,6.58.95.82,1.6,1.82,1.94,2.99,1.13,3.87-3.26,4.96-5.78,3.57-3.62-2-7.42-5.61-8.64-9.62-1.03-3.41,3.8-5.97,6.15-3.52h0Z"></path><path class="cls-8" d="m714.75,612.41c4.97-1.68,9.58-3.14,13.81-4.37,2.77-.81,5.23-1.22,7.38-1.25.64,0,1.21.4,1.41,1.01.19.61.04,1.09-.45,1.45-.39.29-.82.46-1.29.51-2.78.33-5.7.96-8.76,1.89-16.7,5.06-32.19,11.42-48.79,18.79-13.26,5.88-26.75,9.7-40.45,13.38-4.34,1.16-9.05,2.14-14.13,2.93-.93.14-1.67.06-2.21-.23-2.03-1.13-1.77-1.93.78-2.42,11.88-2.27,24.75-5.65,38.61-10.12,5.11-1.65,9.82-3.46,14.13-5.43,2.22-1.01,4.3-1.93,6.23-2.76,14.99-6.38,26.23-10.84,33.73-13.38h0Z"></path><path class="cls-6" d="m77.8,612.8c16.83,9.81,31.1,20.66,42.82,32.57,5.48,5.57,12.25,13.77,20.3,24.58,7.08,9.51,12.56,19.54,16.43,30.1,7.92,21.6,7.04,44.67,2.36,67.81-1.95,9.64-5.27,17.79-9.98,24.44-8.25,11.66-17.83,21.29-28.76,28.89-8.05,5.6-17.43,10.88-28.13,15.83-3.89-3.55-6.67-6.73-8.34-9.53-2.7-4.52-5.45-8.98-7.5-13.67-5.88-13.43-9.31-25.88-12.51-40.11-2.93-12.98-4.19-25.63-4.13-38.74.03-7.38-.25-14.83.23-22.3.74-11.37,1.82-22.24,3.25-32.63.73-5.3,2.65-16.14,5.77-32.52,2.05-10.77,4.7-22.11,7.97-34.01.07-.24.14-.48.22-.71Z"></path><path class="cls-1" d="m556.9,733.49c-.03.16,0,.31.08.45.55.91,1.34,1.44,2.35,1.61,12.05,2.03,23.79,3.3,35.23,3.82,4.7.22,9.74.53,15.13.94,6.14.47,10.83.48,14.08.04,13.17-1.77,24.87-3.6,35.11-5.48,27.65-5.09,54.51-13.44,80.58-25.05,4.87-2.17,9.34-5.08,14.17-7.41,3.74-1.8,7.23-3.46,10.46-4.99,16.23-7.67,34.11-12.77,52.32-15.38,8.07-1.15,15.84-3.21,23.88-3.96,9.59-.89,17.99-1.08,25.21-.59,3.87.27,7.87.49,11.98.68,16.38.74,32.97,3.54,48.73,7.57,6.29,1.61,11.84,4.5,18.04,5.8,12.63,2.65,24.47,4.1,35.52,4.35,15.34.34,30.32.98,45.26,1.24,11.34.19,21.78.94,32.85,1.71.77.05,1.56.17,2.36.35.29.07.56.22.77.44,3.92,4.16,7.39,8.68,3.37,14.39-4.99,7.08-12.15,11.77-21.46,14.07-6.63,1.63-12.7,2.24-18.21,1.81-4.1-.31-9.94-1.51-17.52-3.58-14.14-3.86-29.33-7.02-43.62-6.92-4.37.03-8.76.08-13.15.15-8.93.15-18.09-.85-27.21-1.03-4.51-.09-9.14-.38-13.9-.87-11.13-1.15-22.65-1.55-34.56-1.2-11.3.34-21.44,3.17-32.3,5.46-3.4.71-7.2,1.68-11.39,2.9-5.07,1.47-10.25,2.4-15.28,3.9-10.53,3.14-21.47,6.13-32.82,8.96-5.4,1.35-10.81,3.02-16.22,5.03-5.57,2.07-11.26,4.12-17.08,6.15-6.4,2.24-13.01,3.22-19.49,5.15-3.78,1.13-7.67,2.07-11.67,2.81-7.61,1.42-15.09,2.29-22.51,4.92-8.95,3.18-17.66,6.17-26.11,8.97-1.06.35-2.09.58-3.1.71-16.29,2.06-33.53,4.25-50.21,7.68-14.64,3-29.62.57-44.45,2.7-8.82,1.26-17.68,1.93-26.4,1.93-12.89,0-27.03.33-38.75-.47-6.1-.42-12.39-1.22-18.86-2.4-7.74-1.41-18.98-5.64-25.01-11.45-11.13-10.74-14.99-25.52-11.7-40.49.88-4.02,2.37-8.46,4.48-13.33,5-11.55,12.91-20.75,23.72-27.61,6.72-4.27,14.02-8.19,21.9-9.52,7.69-1.29,14.68-1.61,20.98-.94,8.72.93,17.41.76,25.97,1.61,11.77,1.17,22.96,2.2,33.55,3.11,7.6.66,15.38.23,22.25.58,5.39.27,10.9.42,16.51.43,16.43.05,33.01.14,49.74.28,5.03.04,10.03.1,14.99-.51,5.38-.66,10.51.43,15.69.17,5.79-.28,11.6-.75,17.41-1.4,5.87-.66,11.66-1.21,17.38-1.65,11.15-.87,22.29-2.66,33.43-5.37,3.69-.9,8.03-2.51,13.04-4.84,11.52-5.37,24.72-10,36.45-13.08,14.91-3.92,30.28-6.2,46.11-6.85,5.65-.23,11.38-.47,17.17-.7,14.06-.55,28.02-.44,42.18-.6,5.37-.06,10.95-.01,16.76.15,16,.43,31.41-1.66,46.64-2.94,2.39-.2,7.12-.06,14.18.42,4.63.31,9.33.79,14.08,1.43,9.52,1.29,19.09,2.41,28.72,3.34,6.18.6,12.61.7,18.9.81,5.43.09,13.21-.54,23.35-1.87,3.65-.49,9.32-1.62,17.02-3.41,8.92-2.07,16.95-5.12,25.31-8.03,7.72-2.68,16.53-2.14,21.78,4.93,5.43,7.32,5.48,18.99,3.02,27.44-1.12,3.85-3.67,7.86-7.65,12.02-5.05,5.27-10.57,7.59-17.7,8.89-14.54,2.65-27.42,4.95-41.31,5.36-3.96.12-8.74-.01-14.34-.39-14.87-.99-29.93-2.09-44.83-2.45-15.99-.38-30.62-.83-43.91-1.35-11.27-.45-22.49-1.19-33.53-3.21-4.25-.78-9.2-2.12-14.84-4.02-19.28-6.49-39.32-9.96-60.12-10.43-2.73-.06-5.55-.91-7.93-1.01-13.07-.55-25.56.18-37.46,2.19-7.07,1.2-13.9,2.36-20.49,3.48-11.4,1.95-21.81,4.64-31.24,8.05-10.95,3.97-23.39,9.8-37.34,17.49-2.71,1.5-9.02,4.2-18.93,8.1-13.35,5.26-28.02,9.9-44.02,13.93-14.59,3.68-30.11,6.13-45.97,8.66-7.72,1.23-15.63,1.56-23.73.97-5.29-.38-10.2-.64-14.74-.78-11.72-.36-23.67-2.28-35.3-4.21-1.01-.17-1.62.25-1.83,1.24h0Z"></path><path class="cls-5" d="m353.84,912.44c1.88-1.98,3.35-3.29,4.4-3.93,5.93-3.59,11.85-7.16,17.77-10.71,5.25-3.15,11.59-7.6,19.02-13.35,9.63-7.45,17.73-17.04,25.83-26.07,3.13-3.49,5.97-7.28,8.54-11.36,6.23-9.91,13.37-20.6,16.21-31.39,1.25-4.78,2.51-10.9,3.76-18.36.69-4.15,1.06-8.57,1.1-13.26.08-9.01.06-18.19-.05-27.55,1.12,2.37,3.04,5.5,5.75,9.38,7.28,10.43,19.27,15.51,31.32,17.92,9.56,1.91,19.31,2.92,29.25,3.05,11.82.14,24.02.09,36.59-.16,6.48-.13,12.83-.73,19.06-1.79,11.7-2.01,24.26-.87,35.35-1.62,4.81-.33,11.41-1.31,19.79-2.94,11.37-2.22,23.52-3.78,35.1-5.12,4.05-.47,7.65-1.25,10.8-2.34,8.09-2.79,16.09-5.6,23.99-8.43,2.13-.76,4.48-1.38,6.76-1.8,8.12-1.51,16.05-2.93,24.14-4.96,5.96-1.5,11.99-3.06,18.09-4.69,6.11-1.63,13.8-4.3,23.05-7.99,3.89-1.55,7.75-2.75,11.56-3.6,5.17-1.15,10.42-2.92,15.65-4.15,4.64-1.09,10.51-2.68,17.6-4.78,10.22-3.03,23.31-6.31,39.27-9.85,7.45-1.65,13.97-2.66,19.56-3.02,12.3-.8,24.79-.01,37.45,1.2,8,.77,15.73.41,23.57,1.14,10.2.95,20.26.45,30.15.42,13.84-.04,28.34,3.32,42.17,6.84.18.05.35.13.5.25.41.33.39.64-.04.93-2.64,1.74-5.34,3.44-7.59,5.7-4.46,4.48-9.18,8.96-12.39,14.3-2.44,4.07-5.14,8.32-8.1,12.75-13.87,20.81-31.23,38.76-52.08,53.87-7.15,5.18-14.36,9.97-21.63,14.36-2.71,1.63-5.51,3.09-8.4,4.38-3.83,1.69-7.31,4.15-11.08,6.23-7.24,4.01-14.49,8.49-22.1,11.73-5.39,2.29-10.4,5-15.87,7.13-3.9,1.51-7.81,2.81-11.66,4.59-9.97,4.6-20.49,8.16-30.82,12.14-3.9,1.5-8.13,2.95-12.7,4.35-18.32,5.62-34.85,10.1-49.58,13.43-7.06,1.59-14.25,2.25-21.41,3.95-16.22,3.86-31.8,7.49-47.75,9.41-5.05.61-10.16.49-15.24.97-5.04.47-10.04.91-14.99,1.32-4.61.38-9.52.62-14.73.73-14.48.3-29.05.52-43.72.65-10.29.1-20.41,1.76-30.72,1.98-16.36.33-32.72.71-49.07,1.13-5.14.13-10.08.91-15.18.93-13.98.05-27.88.56-41.76-.5-5.57-.42-10.71-.59-16.1-.82-2.23-.1-4.37-.09-6.41.03-11.75.67-24.18-.76-36.18-.76-8.23,0-16.6-.65-26.03-1.01-3.13-.12-6.39-.41-9.77-.88h0Z"></path><path class="cls-4" d="m286.5,951.93c1.27-2.09,3.39-4.02,6.38-5.77,7.52-4.39,12.79-7.4,15.8-9.03,13.41-7.24,26.51-14.71,39.32-22.42,4.48.67,8.73,1.15,12.75,1.42,10.69.72,20.39,1.08,29.1,1.09,4.19,0,10.3.26,18.33.76,11.51.72,22.89-.16,35.98.71,13.43.89,26.15.79,40.09.76,8.21-.02,16.05-.8,23.77-.86,7.17-.05,14.09-.3,20.74-.73,12.5-.81,25.05-.14,37.53-1.3,5.94-.56,12.02-1.37,17.95-1.37,15.89-.01,32.54-.21,49.95-.6,8.24-.19,17-.92,26.29-2.2,3.57-.49,8.16-.14,12.26-.69,10.57-1.43,21.78-2.66,31.97-5.29,6.65-1.71,13.03-3.35,19.81-4.55,21.56-3.82,43.84-9.31,66.83-16.48,11.98-3.74,23.68-8.25,34.96-12.52,5-1.89,9.7-4.36,14.67-6.24,10.89-4.13,22.25-9.2,34.09-15.23.11-.06.24-.02.3.09.04.07.04.15,0,.22-5.98,10.35-13.26,19.09-21.83,26.21-8.62,7.16-16.56,15.5-25.85,21.57-2.68,1.75-5.27,3.56-7.78,5.43-4.14,3.08-8.58,6.3-13.32,9.67-15.88,11.3-33.4,18.48-51.55,25.13-2.11.77-4.25,2.36-6.14,2.98-15.8,5.21-29.76,8.88-44.92,12.48-10.63,2.52-21.65,7.05-31.29,9.19-9.81,2.17-19.44,4.15-28.89,5.95-2.84.55-5.57,1.12-8.2,1.71-4.56,1.03-9.26,1.77-14.1,2.2-7.31.65-14.46,1.45-21.68,1.89-5.74.35-11.33,1.26-17.11,1.26-10,0-19.83.38-29.52-.44-3.63-.3-7.05-.24-10.27.18-13.29,1.73-27.27,1.86-41.92.39-4.25-.43-8.25.31-12.38.36-4.88.05-9.54.67-14.48.29-6.07-.46-12.28-.89-18.63-1.29-10.36-.64-21.59-.38-32.01-2.1-9.28-1.53-18.12-3.69-27.38-5.05-6.65-.97-12.94-2.19-19.53-3.07-15.17-2.03-30.78-4.84-45.72-7.18-14.66-2.29-29.45-4.8-44.37-7.53h0Z"></path><path class="cls-7" d="m348,914.71c-12.81,7.71-25.91,15.18-39.32,22.42-3.01,1.63-8.28,4.64-15.8,9.03-2.99,1.75-5.11,3.68-6.38,5.77-4.72-.82-9.52-1.83-14.39-3.03-5.03-1.23-9.79-2.34-14.29-3.32-10.71-2.33-20.57-4.84-29.6-7.54-13.49-4.03-28.21-9.12-44.16-15.28-6.53-2.53-12.04-5.02-16.54-7.47-6.97-3.81-14.5-7.01-21.01-11.47-6.6-4.53-12.41-9.4-17.42-14.6-2.41-2.5-4.34-5.67-5.79-9.5-3.52-9.34-7.06-18.01-10.63-26.02-.07-.13,0-.3.12-.36.07-.03.15-.04.22,0,4.48,1.59,8.78,3.92,13.16,5.99,12.19,5.75,20.23,9.36,24.1,10.83,9.32,3.53,19.01,6.94,29.08,10.23,5.6,1.83,11.24,3.46,16.93,4.88,7.64,1.91,15.2,4.19,22.92,5.44,10.02,1.61,20.03,3.19,30.02,4.75,3.07.47,6.11,1.07,9.12,1.78,14.96,3.54,29.92,7.06,44.88,10.55,4.08.95,8.63,1.71,13.64,2.28,8.69.99,17.31,2.39,25.88,4.21,1.1.23,2.85.38,5.26.44h0Z"></path><path class="cls-8" d="m244.72,1279.56l-3,.44h-3.15c-13.47-10.69-26.32-22.3-38.55-34.83-3.93-4.03-7.53-8.05-10.81-12.08-5.06-6.22-8.42-10.46-10.08-12.72-9.19-12.49-17.12-25.81-23.77-39.98-2.77-5.89-5.28-12.14-7.55-18.73-4.41-12.83-7.97-25.22-10.69-37.18-1.54-6.76-2.47-13.41-2.99-20.63-.51-7.02-.85-12.5-1.02-16.43-.95-22.54,1.07-44.83,6.06-66.88.2-.86.74-1.34,1.62-1.43.15-.01.29,0,.44.04.63.18.88.59.75,1.24-3.33,16.13-5.33,31.14-6.01,45.03-.43,8.69-.41,16.33.04,22.91.9,13.02,1.51,25.96,4.67,38.79,2.75,11.21,6.11,22.59,10.07,34.14,2.31,6.72,4.85,12.94,7.63,18.67,7.01,14.43,13.99,26.33,20.96,35.7,6.88,9.25,14.92,19.68,23.46,28.1,12.3,12.12,20.69,20.05,25.16,23.8,3.73,3.13,7.76,6.42,12.09,9.89.91.72,2.46,1.43,4.67,2.14h0Z"></path><path class="cls-9" d="m1009.92,1280h-20.94c2.95-4.49,5.89-9.02,8.8-13.59,2.18-3.41,3.8-6.91,6.09-10.26,1.39-2.03,2.22-4.29,3.37-6.44.57-1.05.88-.98.95.21l1.73,30.08Z"></path><path class="cls-9" d="m77.64,1280h-10.13l-1.12-14.32c-.06-.79.14-.86.61-.23l10.64,14.55h0Z"></path><path class="cls-7" d="m82.19,1279.73l2.18.27h-4.19l2.01-.27Z"></path><path class="cls-7" d="m244.72,1279.56l3.63.44h-6.63l3-.44Z"></path><path class="cls-8" d="m934.81,1126.57c-.28-11.71-1.6-22.63-3.62-34.98-2.25-13.78-4.5-27.23-6.73-40.34-1.26-7.43-3.04-14.67-5.33-21.72-.24-.73-.74-1.09-1.51-1.09-.2.01-.41.08-.63.21-.4.24-.59.72-.47,1.17,2.39,8.75,4.43,18.01,6.11,27.8,2.02,11.7,4.04,23.89,6.05,36.57,1.7,10.67,2.75,20.1,3.15,28.29.32,6.47.44,13.56.36,21.27-.1,9.64-1.39,20.12-3.43,29.02-3.06,13.33-6.89,25.19-11.5,35.6-4.03,9.12-9.32,17.61-15.85,25.48-3.5,4.21-7.07,8.36-10.72,12.47-1.25,1.4-2.54,2.73-3.85,3.98-7.29,6.97-14.82,13.33-22.56,19.49-4.17,3.31-9.09,5.97-14.77,7.96-1.03.36-2.26.62-3.69.79-1.34.16-2.57.51-3.68,1.05h0c-.57.07-1.04.21-1.39.41h10.93c.61-.26,1.28-.36,2.03-.29,6.81-3.49,13.42-7.96,19.81-13.43,8.37-7.16,15.47-13.5,22.65-21.73,3.44-3.94,6.63-7.74,9.58-11.39,6.63-8.21,11.97-17.5,16-27.89,4.89-12.59,9.02-25.79,11.26-39.12,1.05-6.22,1.63-11.46,1.74-15.73.23-8.18.25-16.13.06-23.85Z"></path><path class="cls-8" d="m853.71,1279.71l-.69.29h-1.34c.61-.26,1.28-.36,2.03-.29Z"></path><g><path class="cls-9" d="m1045.24,1053.48c-.49-7.09-2.05-13.88-2.98-20.92-.65-4.92-1.55-9.95-2.69-15.09-3.51-15.85-8.25-31.33-14.23-46.44-.75-1.9-1.56-3.73-2.45-5.5-2.25-4.51-4.31-9.13-6.93-13.49-5.25-8.75-10.41-17.11-15.48-25.06-.63-.99-1.37-1.91-2.24-2.77-5.05-5.01-10.23-10.05-15.55-15.14-14.13-13.48-29.88-25.29-47.27-35.42-10.59-6.17-23.32-12.12-38.19-17.85-4.09-1.58-8.49-2.59-12.79-3.55-1.56-.35-3.1-.41-4.61-.18-.66.1-1.25.48-1.6,1.05-5.44,8.76-11.93,17.77-19.89,24.77-4.99,4.39-9.96,8.74-14.93,13.07-5.28,4.61-10.29,8.55-15.04,11.83-6.39,4.41-12.43,8.73-18.13,12.96-5.15,3.83-10.75,7.36-16.78,10.59-9.96,5.33-19.6,9.67-28.93,13.02-3.35,1.2-6.94,2.68-10.77,4.45-3.55,1.63-7.3,3.05-11.25,4.25-7.91,2.39-15.71,4.54-23.4,6.44-5.68,1.41-11.05,2.77-16.1,4.1-5.37,1.41-10.66,2.98-15.87,4.73-6.85,2.3-12.57,3.9-17.17,4.8-10.99,2.15-22.02,4.45-33.07,6.91-4.26.95-8.42,1.48-12.66,1.94-11.79,1.28-24.37,2.46-37.74,3.55-5.51.45-17.75.34-36.74-.31-6.96-.25-13.73,1.18-20.73,1.27-7.57.09-15.11-.08-22.64-.5-5.08-.28-10.15-.27-15.21.04-6.45.39-11.77.48-15.95.27-6.69-.34-13.7-.74-21.03-1.21-4.43-.28-8.9-.49-13.42-.63-11.89-.38-22.72-2.32-34.43-4.72-11-2.26-21.45-3.55-32.15-5.08-12.28-1.75-24.34-4.09-36.56-5.92-7.65-1.15-14.24-2.2-19.75-3.16-13.49-2.35-27.59-4.66-40.92-7.65-7.99-1.79-16.01-3.59-24.08-5.39-7.13-1.59-13.56-3.21-19.31-4.88-18.55-5.37-37.87-12.07-57.96-20.09-3.77-1.5-7.49-3.29-11.14-5.38-7.15-4.07-14.62-7.2-21.49-12.18-3.39-2.47-6.73-5.09-10-7.86-4.11-3.49-7.05-6.6-8.82-9.35-2.05-3.19-4.04-7.42-5.96-12.69-2.39-6.57-5.16-13.45-8.33-20.62-.13-.3-.36-.42-.68-.36-1.33.26-2.57.77-3.73,1.53-5.33,3.49-10.43,7.03-15.93,10.31-10.72,6.39-19.82,13.65-27.31,21.8-10.73,11.69-17.07,25.64-24.3,39.79-2.9,5.69-5.4,11.91-7.51,18.66-1.79,5.73-2.75,11.13-2.88,16.2-.07,2.77-.37,5.38-.91,7.83-2.23,10.01-3.69,18.01-4.39,24-1.31,11.17-2.58,24.35-3.81,39.53-.16,2.03-.28,3.86-.36,5.49-.49,10.02-.84,19.9-1.07,29.65-.15,6.55.33,15.82,1.44,27.81.21,2.25.13,6.59-.23,13.02-.62,10.96.13,22.21,1.05,32.78.25,2.88.86,6.15,1.83,9.81,2.14,8.05,4.42,16.04,7.12,24.01,3.49,10.31,6.92,20.48,10.29,30.5,2.57,7.64,6.14,15.61,10.72,23.91,8.71,15.78,18.53,31.09,29.48,45.94.46.62,1,1.16,1.61,1.63.58.44,1.21.91,1.88,1.4l2.18.27h154.2c-13.47-10.69-26.32-22.3-38.55-34.83-3.93-4.03-7.53-8.05-10.81-12.08-5.06-6.22-8.42-10.46-10.08-12.72-9.19-12.49-17.12-25.81-23.77-39.98-2.77-5.89-5.28-12.14-7.55-18.73-4.41-12.83-7.97-25.22-10.69-37.18-1.54-6.76-2.47-13.41-2.99-20.63-.51-7.02-.85-12.5-1.02-16.43-.95-22.54,1.07-44.83,6.06-66.88.2-.86.74-1.34,1.62-1.43.15-.01.29,0,.44.04.63.18.88.59.75,1.24-3.33,16.13-5.33,31.14-6.01,45.03-.43,8.69-.41,16.33.04,22.91.9,13.02,1.51,25.96,4.67,38.79,2.75,11.21,6.11,22.59,10.07,34.14,2.31,6.72,4.85,12.94,7.63,18.67,7.01,14.43,13.99,26.33,20.96,35.7,6.88,9.25,14.92,19.68,23.46,28.1,12.3,12.12,20.69,20.05,25.16,23.8,3.73,3.13,7.76,6.42,12.09,9.89.91.72,2.46,1.43,4.67,2.14l3.63.44h592.4c.35-.2.82-.34,1.39-.41,1.11-.54,2.34-.89,3.68-1.05,1.43-.17,2.66-.43,3.69-.79,5.68-1.99,10.6-4.65,14.77-7.96,7.74-6.16,15.27-12.52,22.56-19.49,1.31-1.25,2.6-2.58,3.85-3.98,3.65-4.11,7.22-8.26,10.72-12.47,6.53-7.87,11.82-16.36,15.85-25.48,4.61-10.41,8.44-22.27,11.5-35.6,2.04-8.9,3.33-19.38,3.43-29.02.08-7.71-.04-14.8-.36-21.27-.4-8.19-1.45-17.62-3.15-28.29-2.01-12.68-4.03-24.87-6.05-36.57-1.68-9.79-3.72-19.05-6.11-27.8-.12-.45.07-.93.47-1.17.22-.13.43-.21.63-.21.77,0,1.27.36,1.51,1.09,2.29,7.05,4.07,14.29,5.33,21.72,2.23,13.11,4.48,26.56,6.73,40.34,2.02,12.35,3.34,23.27,3.62,34.98.19,7.72.17,15.67-.06,23.85-.11,4.27-.69,9.51-1.74,15.73-2.24,13.33-6.37,26.53-11.26,39.12-4.03,10.39-9.37,19.68-16,27.89-2.95,3.65-6.14,7.45-9.58,11.39-7.18,8.23-14.28,14.57-22.65,21.73-6.39,5.47-13,9.94-19.81,13.43l6.17.29h125.48,0c6.22-9.03,11.9-18.13,17.04-27.29,3.27-5.83,6.09-11.97,9.1-17.96,3.68-7.31,7.63-16.31,11.84-27.02,1.25-3.16,3.14-9.46,5.68-18.9,4.73-17.58,11.64-35.24,12.74-53.48.44-7.25.74-11.65.91-13.22,1.21-11.67,2.14-24.22,2.8-37.65.53-10.75.45-21.08-.23-31Z"></path><polygon class="cls-9" points="853.02 1280 859.88 1280 853.71 1279.71 853.02 1280"></polygon></g><path class="cls-8" d="m1011.65,1280h-1.73l-1.73-30.08c-.07-1.19-.38-1.26-.95-.21-1.15,2.15-1.98,4.41-3.37,6.44-2.29,3.35-3.91,6.85-6.09,10.26-2.91,4.57-5.85,9.1-8.8,13.59h-3.62c6.22-9.03,11.9-18.13,17.04-27.29,3.27-5.83,6.09-11.97,9.1-17.96,3.68-7.31,7.63-16.31,11.84-27.02,1.25-3.16,3.14-9.46,5.68-18.9,4.73-17.58,11.64-35.24,12.74-53.48.44-7.25.74-11.65.91-13.22,1.21-11.67,2.14-24.22,2.8-37.65.53-10.75.45-21.08-.23-31-.49-7.09-2.05-13.88-2.98-20.92-.65-4.92-1.55-9.95-2.69-15.09-3.51-15.85-8.25-31.33-14.23-46.44-.75-1.9-1.56-3.73-2.45-5.5-2.25-4.51-4.31-9.13-6.93-13.49-5.25-8.75-10.41-17.11-15.48-25.06-.63-.99-1.37-1.91-2.24-2.77-5.05-5.01-10.23-10.05-15.55-15.14-14.13-13.48-29.88-25.29-47.27-35.42-10.59-6.17-23.32-12.12-38.19-17.85-4.09-1.58-8.49-2.59-12.79-3.55-1.56-.35-3.1-.41-4.61-.18-.66.1-1.25.48-1.6,1.05-5.44,8.76-11.93,17.77-19.89,24.77-4.99,4.39-9.96,8.74-14.93,13.07-5.28,4.61-10.29,8.55-15.04,11.83-6.39,4.41-12.43,8.73-18.13,12.96-5.15,3.83-10.75,7.36-16.78,10.59-9.96,5.33-19.6,9.67-28.93,13.02-3.35,1.2-6.94,2.68-10.77,4.45-3.55,1.63-7.3,3.05-11.25,4.25-7.91,2.39-15.71,4.54-23.4,6.44-5.68,1.41-11.05,2.77-16.1,4.1-5.37,1.41-10.66,2.98-15.87,4.73-6.85,2.3-12.57,3.9-17.17,4.8-10.99,2.15-22.02,4.45-33.07,6.91-4.26.95-8.42,1.48-12.66,1.94-11.79,1.28-24.37,2.46-37.74,3.55-5.51.45-17.75.34-36.74-.31-6.96-.25-13.73,1.18-20.73,1.27-7.57.09-15.11-.08-22.64-.5-5.08-.28-10.15-.27-15.21.04-6.45.39-11.77.48-15.95.27-6.69-.34-13.7-.74-21.03-1.21-4.43-.28-8.9-.49-13.42-.63-11.89-.38-22.72-2.32-34.43-4.72-11-2.26-21.45-3.55-32.15-5.08-12.28-1.75-24.34-4.09-36.56-5.92-7.65-1.15-14.24-2.2-19.75-3.16-13.49-2.35-27.59-4.66-40.92-7.65-7.99-1.79-16.01-3.59-24.08-5.39-7.13-1.59-13.56-3.21-19.31-4.88-18.55-5.37-37.87-12.07-57.96-20.09-3.77-1.5-7.49-3.29-11.14-5.38-7.15-4.07-14.62-7.2-21.49-12.18-3.39-2.47-6.73-5.09-10-7.86-4.11-3.49-7.05-6.6-8.82-9.35-2.05-3.19-4.04-7.42-5.96-12.69-2.39-6.57-5.16-13.45-8.33-20.62-.13-.3-.36-.42-.68-.36-1.33.26-2.57.77-3.73,1.53-5.33,3.49-10.43,7.03-15.93,10.31-10.72,6.39-19.82,13.65-27.31,21.8-10.73,11.69-17.07,25.64-24.3,39.79-2.9,5.69-5.4,11.91-7.51,18.66-1.79,5.73-2.75,11.13-2.88,16.2-.07,2.77-.37,5.38-.91,7.83-2.23,10.01-3.69,18.01-4.39,24-1.31,11.17-2.58,24.35-3.81,39.53-.16,2.03-.28,3.86-.36,5.49-.49,10.02-.84,19.9-1.07,29.65-.15,6.55.33,15.82,1.44,27.81.21,2.25.13,6.59-.23,13.02-.62,10.96.13,22.21,1.05,32.78.25,2.88.86,6.15,1.83,9.81,2.14,8.05,4.42,16.04,7.12,24.01,3.49,10.31,6.92,20.48,10.29,30.5,2.57,7.64,6.14,15.61,10.72,23.91,8.71,15.78,18.53,31.09,29.48,45.94.46.62,1,1.16,1.61,1.63.58.44,1.21.91,1.88,1.4l-2.01.27h-2.54l-10.64-14.55c-.47-.63-.67-.56-.61.23l1.12,14.32h-3.02c-.67-4.82-1.05-10.15-1.13-16-.04-2.75-.86-5.36-2.47-7.83-10.67-16.41-19.97-32.65-26.22-51.29-5.92-17.66-12.34-35.3-16.84-53.24-1.24-4.94-2.01-11.76-2.32-20.47-.45-12.51.33-24.72-.41-37.33-.47-8.02-1.1-15.88-.97-23.8.28-17.06,1.19-32.65,2.51-49.02.99-12.23,1.72-24.93,4.33-37.27,1.65-7.78,2.66-13.74,3.03-17.89,1.04-11.58,2.95-20.1,7.03-30.35,1.81-4.54,3.61-8.43,5.42-11.67,3.47-6.24,6.09-13.21,9.65-19.04,5.07-8.32,9.53-14.51,13.36-18.58,8.26-8.76,16.99-15.93,26.19-21.51,4.4-2.66,8.75-5.24,12.94-8.28,2.67-1.93,5.46-3.48,8.37-4.67,1.47-.59,1.48-1.23.05-1.91-10.97-5.16-19.55-12.45-25.76-21.87-3.77-5.72-7.5-13.57-10.21-20.78-4.77-12.72-8.48-26.46-11.13-41.21-1.11-6.23-1.87-12.57-2.28-19-2.28-36.46,3.02-72.66,10.76-108.33,2.77-12.76,6.99-28.98,12.66-48.67,5.69-19.77,12.46-39.56,20.3-59.37.66-1.65,1.08-3.56,1.07-5.42-.05-14.19.28-29.32.97-45.39.67-15.3,1.86-27.82,3.58-37.57,1.36-7.73,1.75-16.46,4-23.56,2.28-7.24,4.54-14.39,6.78-21.44,4.74-14.95,10.84-29.42,18.06-42.72,5.39-9.94,11.9-19,20.3-25.93,6.66-5.49,13.81-11.08,21.47-15.07,5.02-2.61,9.81-4.86,14.38-6.73,2.09-.85,3.91-1.91,5.65-3.23,9.26-6.99,17.08-15.22,23.46-24.69,7.49-11.13,15.86-21.85,23.39-32.52,4.15-5.89,8.2-11.19,12.16-15.91,8.7-10.38,17.39-19.88,27.71-29.12,4.91-4.4,9.46-7.75,13.65-10.05,11.8-6.47,23.93-13.57,36.15-18.87,25.46-11.05,51.93-18.06,79.41-21.04,15.21-1.65,29.9-2.74,44.07-3.25,5.17-.19,11.46.21,18.87,1.18,17.74,2.33,34.34,5.88,51.19,9.82,10.14,2.38,21.21,7.35,32.11,11.25,11.47,4.1,22.84,12.47,32.07,20.62,3.8,3.35,10.78,10.03,20.93,20.03,2.74,2.71,5.1,5.61,7.66,8.45.35.39.72.4,1.11.05,2.21-2.03,4.42-3.73,6.65-5.08,13.01-7.9,25.38-14.27,37.1-19.1,13.02-5.37,26.14-8.61,40.08-12.39,4.35-1.18,8.36-2.16,12.04-2.93,5.54-1.16,11.03-2.5,16.65-3.43,13.66-2.24,27.49-3.62,41.48-4.14,5.93-.22,12.32-.06,19.17.48,9.12.72,17.99,1.32,27.24,1.49,10.83.19,20.53.59,29.11,1.19,9.39.67,18.1.51,27.09,1.19,16.34,1.23,31.98,3.38,46.92,6.43,3.31.67,6.53,1.5,9.66,2.48,15.23,4.77,30.11,10.33,44.62,16.69,9.03,3.96,16.59,8.08,22.69,12.37,12.57,8.84,20.63,20.92,26.44,35,.99,2.4.74,5.15,1.24,7.79,2.64,13.92,4.3,25.12,4.97,33.6.3,3.76.08,7.47-.67,11.12-.09.43.19.86.61.95.07.01.14.02.21.02,11.4-.65,22.53-.73,33.38-.25,4.3.19,9.5.86,13.58,2.66,10.68,4.72,19.64,9.63,28.52,17,7.37,6.12,14.72,11.67,20.98,19.24,2.64,3.21,6.06,6.98,10.26,11.33,3.65,3.78,7.39,8.44,11.22,13.98,2.71,3.92,4.94,7.96,6.68,12.11,2.98,7.1,6.89,13.89,8.68,21.48.23.98.97,1.75,1.93,2.02,3.66,1.05,7.39,2.53,11.19,4.45,6.82,3.46,10.56,10.73,12.73,18.14,2.88,9.88-.4,18.85-11.47,20.44-.65.09-.7.3-.13.63,3.3,1.91,6.84,4.22,9.23,7.18,6.7,8.29,10.13,18.48,11.45,28.33,1.35,10.04,1.66,19.48-1.87,29.09-1.81,4.94-3.84,9.84-6.96,14.24-3.67,5.16-7.81,9.75-12.4,13.77-.64.56-.58,1.02.19,1.37,4.98,2.33,8.96,3.12,10.05,9.37,2.25,12.86-2.48,21.99-14.21,27.38-2.88,1.32-6,2.29-9.35,2.91-7.71,1.41-8.14,9.07-13.93,12.99-6.77,4.58-14.76,6.46-22.55,8.78-.47.15-.57.42-.3.83,3.94,6.09,4.74,12.4,2.39,18.93-1.85,5.16-5.5,10.4-10.3,13.57-1.18.78-2.33,1.59-3.46,2.43-1.69,1.25-1.55,1.5.41.73,2.27-.89,4.57-1.72,6.91-2.49,7.99-2.65,19.13-2.53,24.86,4.58,6.49,8.08,7.25,19.22,5.12,29.24-1.55,7.34-7.12,14.31-12.74,18.79-4.69,3.74-10.68,5.72-16.95,6.7-7.8,1.23-15.6,2.45-23.39,3.65-12.89,1.99-25.73,2.16-38.53.53-.22-.03-.42.12-.45.34-.01.1.01.21.07.29,2.6,3.77,4.69,8.76,2.61,13.19-4.34,9.23-14.61,15.26-24.28,17.81-9.65,2.55-19.99,2.59-31,.13-.77-.17-1.8.11-2.46.51-9.46,5.79-17.23,14.13-23.02,23.52-7.9,12.8-15.29,23.05-22.18,30.74-9.09,10.17-18.19,18.95-27.29,26.33-6.22,5.05-13.68,10.42-22.38,16.13-5.98,3.91-11.7,7.25-17.15,10.02-5.89,2.98-11.72,6.22-17.51,9.73-.77.46-.7.71.19.76,2.33.12,4.76.52,7.29,1.19,12.47,3.3,23.49,8.37,35.35,14.11,28.52,13.79,52.22,33.49,74.16,55.65,2.73,2.75,5.03,5.62,6.92,8.61,8.68,13.74,17.8,27.83,23.63,42.89,5.73,14.81,9.62,26.8,11.68,35.97,1.23,5.46,2.51,11.06,3.85,16.79.7,2.98,1.17,5.91,1.4,8.78.22,2.63.63,5.65,1.24,9.05.69,3.83,1.25,8.13,1.69,12.88.61,6.63.49,13.25.47,19.84-.01,4.35-.21,9.07-.59,14.16-.66,8.92-.93,18.01-2.03,27.03-.45,3.68-.78,7.97-1,12.87-.53,12.05-2.27,23.07-5.21,33.07-3.44,11.68-7.07,23.36-10.14,35.14-1.32,5.07-2.96,10.02-4.92,14.87-4.1,10.15-8.47,19.93-13.1,29.32-.75,1.52-1.03,3.3-.94,4.98.59,10.67,1.23,21.7,1.93,33.09.02.28-.16.54-.43.61l-.82.24h0ZM265.77,224.46c-2.37,2.73-4.69,5.43-6.96,8.09-2.47,2.9-4.73,5.78-6.79,8.63-7.65,10.61-15.05,20.79-22.2,30.52-2.23,3.04-4.45,6.17-6.64,9.39-5.95,8.77-12.98,16.37-21.08,22.79-.63.51-.55.77.26.78,1.41.03,2.79-.52,4.2-.63,10.01-.8,19.13-.7,27.92,2.75,12.13,4.75,22.34,11.12,30.91,21.47,6.93,8.39,13.42,16.58,19.47,24.57,11.25,14.86,18.87,31.69,23.78,49.78,3.81,14.04,7.07,29.03,9.77,44.97,1.08,6.41,1.85,13.03,2.31,19.86.56,8.4.98,17.17,1.26,26.32.7,22.34-2.08,44.16-7.88,65.5-2.91,10.71-6.87,20.77-11.9,30.17-10.59,19.82-24.29,37.07-41.08,51.74-3.38,2.96-7.3,5.4-10.97,8.22-2.58,1.97-5.47,3.69-8.66,5.15-16.07,7.36-31.23,12.37-49.26,11.89-14.89-.4-28.86-10.61-39.1-21.26-6.53-6.8-12.32-13.51-17.37-20.14-4.91-6.44-9.92-15.14-15.01-26.09-1.59-3.4-2.51-7.02-3.98-10.48-1.02-2.39-1.91-4.89-2.67-7.5-3.77-12.95-7.3-26.68-10.57-41.17-.27-1.18-.14-2.51-.52-3.69-.19-.59-.4-.59-.62-.02-9.82,25.61-18.02,51.18-24.59,76.73-.08.23-.15.47-.22.71-3.27,11.9-5.92,23.24-7.97,34.01-3.12,16.38-5.04,27.22-5.77,32.52-1.43,10.39-2.51,21.26-3.25,32.63-.48,7.47-.2,14.92-.23,22.3-.06,13.11,1.2,25.76,4.13,38.74,3.2,14.23,6.63,26.68,12.51,40.11,2.05,4.69,4.8,9.15,7.5,13.67,1.67,2.8,4.45,5.98,8.34,9.53,4.93,4.06,9.91,7.38,14.92,9.95,11.09,5.68,22.7,11.24,34.84,16.68,6.23,2.79,12.42,5.26,18.57,7.42,6.9,2.43,13.76,4.77,20.57,7.02,6.78,2.24,17.7,5.12,32.77,8.65,3.59.84,7.04,1.5,10.34,1.98,9.59,1.39,19.18,2.9,28.78,4.55,3.73.64,7.49,1.43,11.26,2.38,12.35,3.09,24.75,5.92,37.15,8.77,5.94,1.37,11.58,2.21,17.47,3.04,11.72,1.66,23.16,3.32,34.33,4.98,3.38.47,6.64.76,9.77.88,9.43.36,17.8,1.01,26.03,1.01,12,0,24.43,1.43,36.18.76,2.04-.12,4.18-.13,6.41-.03,5.39.23,10.53.4,16.1.82,13.88,1.06,27.78.55,41.76.5,5.1-.02,10.04-.8,15.18-.93,16.35-.42,32.71-.8,49.07-1.13,10.31-.22,20.43-1.88,30.72-1.98,14.67-.13,29.24-.35,43.72-.65,5.21-.11,10.12-.35,14.73-.73,4.95-.41,9.95-.85,14.99-1.32,5.08-.48,10.19-.36,15.24-.97,15.95-1.92,31.53-5.55,47.75-9.41,7.16-1.7,14.35-2.36,21.41-3.95,14.73-3.33,31.26-7.81,49.58-13.43,4.57-1.4,8.8-2.85,12.7-4.35,10.33-3.98,20.85-7.54,30.82-12.14,3.85-1.78,7.76-3.08,11.66-4.59,5.47-2.13,10.48-4.84,15.87-7.13,7.61-3.24,14.86-7.72,22.1-11.73,3.77-2.08,7.25-4.54,11.08-6.23,2.89-1.29,5.69-2.75,8.4-4.38,7.27-4.39,14.48-9.18,21.63-14.36,20.85-15.11,38.21-33.06,52.08-53.87,2.96-4.43,5.66-8.68,8.1-12.75,3.21-5.34,7.93-9.82,12.39-14.3,2.25-2.26,4.95-3.96,7.59-5.7.43-.29.45-.6.04-.93-.15-.12-.32-.2-.5-.25-13.83-3.52-28.33-6.88-42.17-6.84-9.89.03-19.95.53-30.15-.42-7.84-.73-15.57-.37-23.57-1.14-12.66-1.21-25.15-2-37.45-1.2-5.59.36-12.11,1.37-19.56,3.02-15.96,3.54-29.05,6.82-39.27,9.85-7.09,2.1-12.96,3.69-17.6,4.78-5.23,1.23-10.48,3-15.65,4.15-3.81.85-7.67,2.05-11.56,3.6-9.25,3.69-16.94,6.36-23.05,7.99-6.1,1.63-12.13,3.19-18.09,4.69-8.09,2.03-16.02,3.45-24.14,4.96-2.28.42-4.63,1.04-6.76,1.8-7.9,2.83-15.9,5.64-23.99,8.43-3.15,1.09-6.75,1.87-10.8,2.34-11.58,1.34-23.73,2.9-35.1,5.12-8.38,1.63-14.98,2.61-19.79,2.94-11.09.75-23.65-.39-35.35,1.62-6.23,1.06-12.58,1.66-19.06,1.79-12.57.25-24.77.3-36.59.16-9.94-.13-19.69-1.14-29.25-3.05-12.05-2.41-24.04-7.49-31.32-17.92-2.71-3.88-4.63-7.01-5.75-9.38-2.4-6.19-3.46-12.26-3.18-18.2.72-15.43,6.8-29.67,16.86-41.25,6.84-7.86,15.57-13.12,25.09-17.86,2.71-1.35,5.52-2.33,8.43-2.95,9.87-2.11,19.6-2.48,29.21-1.13,6.08.86,12.39.37,18.56.86,9.59.78,19.08,1.63,28.48,2.54,17.62,1.72,35.74,1.54,53.14,1.71,11.2.11,22.51-.13,34.01.32,6.65.26,12.96.18,18.92-.24,4.9-.35,9.91-.45,15.02-.32,13.26.35,27.44-1.94,41.27-2.9,10.95-.76,22.09-2.59,33.4-5.48,3.27-.83,7.16-2.3,11.68-4.39,12.65-5.86,26.21-10.61,40.66-14.24,3.83-.96,11.22-2.37,22.17-4.24,6.39-1.09,13.4-1.63,19.87-1.75,7.83-.15,15.88-.77,23.5-.83,20.76-.17,41.79-.22,63.09-.17,2.55,0,5.08-.11,7.58-.34,6.6-.63,13.22-1.31,19.87-2.06,10.82-1.22,21.42-.85,32.32.51,11.08,1.39,21.82,2.65,32.23,3.76,4.97.53,9.99.53,15,.82,4.05.23,7.78.26,11.2.07,12.09-.68,23.97-2.45,35.62-5.32,1.66-.41,3.2-1.06,4.61-1.95,4.27-2.69,8.45-5.47,12.56-8.33,9.61-6.69,14.56-18.72,7.23-29.42-.2-.29-.47-.39-.81-.32-1.32.27-2.61.61-3.88,1-6.98,2.2-14.06,4.66-21.24,7.39-4.9,1.86-10.08,3.66-15.55,5.39-7.26,2.29-12.99,3.83-17.2,4.61-12.64,2.35-26.71,3.81-42.2,4.39-6.89.26-14.33.16-22.32-.31-3.31-.19-7.24-.05-11.81.43-.53.05-.6.26-.21.62,2.07,1.88,4.26,3.83,6.59,5.84,1.07.91,1.72,1.97,1.97,3.18.07.35-.15.68-.5.76-.08.02-.16.02-.24,0-1.09-.21-2.06-.67-2.93-1.38-3.38-2.75-6.68-5.77-9.91-9.04-4.18-4.23-8.45-8.31-12.73-12.57-.99-.99-1.67-2.34-2.04-4.06-.06-.27.11-.54.38-.6.1-.02.21-.01.3.03,1.28.52,2.36,1.2,3.25,2.05,4.26,4.1,8.38,8.17,12.37,12.2.36.37.78.46,1.27.29,1.1-.39,2.19-.61,3.26-.64,6.08-.18,13.18-.16,21.29.07,13.18.37,27.31-.42,42.4-2.36,6.21-.8,12.6-2.05,19.16-3.76,7.53-1.96,14.8-4.3,21.81-7.01,14.29-5.54,27.82-9.62,42.04-14.01,2.11-.65,4.05-1.36,5.83-2.15,4.67-2.06,8.34-4.48,10.84-9.22,3.23-6.12,9.13-7.3,15.26-8.87,6.72-1.72,14.52-7.52,15.68-14.83.75-4.66,1.49-13.43-3.56-15.66-2.09-.92-4.23-1.71-6.42-2.38-.32-.1-.62-.06-.9.12-4.03,2.58-7.82,5.51-12.09,7.71-8.87,4.59-17.6,9.62-26.62,14.23-4.91,2.51-10.17,4.62-15.79,6.34-22.24,6.81-43.57,11.26-63.98,13.34-11.17,1.14-23.08,1.99-35.71,2.56-4.84.22-14.08,1.11-27.72,2.68-4.67.54-9.71.43-14.35,1.35-2.95.59-5.76.88-8.45.89-6.09.02-11.9,1.39-17.93,1.27-4.47-.09-8.9.01-13.27.32-4.79.34-9.53-.33-14.42-.45-3.35-.09-6.97-.3-10.88-.63-8.08-.69-16.12-1.32-24.13-1.9-8.05-.58-14.73-1.2-20.05-1.85-8.12-1.01-16.37-2.21-24.76-3.6-5.81-.97-11.5-2.41-17.05-4.31-6.74-2.3-13.75-4.77-21.03-7.41-10.39-3.77-22.51-9.19-34.09-13.67-2.88-1.12-9.07-4.42-18.56-9.9-.36-.21-.66-.14-.89.21-2.77,4.18-5.76,7.67-8.97,10.46-6.91,6.01-14.42,12.03-22.53,18.04-8.35,6.19-17.67,10.74-27.2,15.33-11.31,5.45-23.96,7.97-37.72,9.61-8.81,1.05-16.75,1.75-23.8,2.09-8.5.41-16.71.99-25.28,1.36-6.69.29-14.5.75-23.44,1.4-7.86.57-16.73-.63-25.06-.42-8.17.21-16.46.49-24.89.84-4,.17-7.87.12-11.61-.15-4.55-.32-8.48-.73-11.81-1.24-9.68-1.47-17.93-2.35-24.75-2.64-7.41-.31-13.16-.9-17.25-1.77-7.89-1.67-15.21-3.09-21.98-4.26-3.88-.67-9.03-1.23-15.44-1.67-1.69-.12-3.54-.61-4.97-1.52-.59-.37-.66-.82-.22-1.37.19-.23.47-.35.76-.33,7.37.41,13.78,1.06,19.23,1.94,6.02.98,13.32,2.32,21.9,4.01,4.79.94,11.72,1.68,20.79,2.21,8.99.52,19.77,2.37,29.7,3.27,5.47.49,9.32.68,11.53.57,13.83-.72,27.32-.98,40.47-.77,7.79.12,14.45.06,19.98-.19,14.3-.63,28.6-1.35,42.9-2.14,3.35-.19,6.58-.45,9.69-.8,20.01-2.23,34.48-3.5,50.21-10.83,9.81-4.57,17.36-8.67,22.66-12.31,7.05-4.83,15.44-11.4,25.16-19.69,3.5-2.99,6.56-6.47,9.17-10.45.22-.33.18-.63-.12-.89-3.47-3.11-6.93-6.76-10.36-10.95-.23-.28-.47-.3-.74-.06-4.54,4.17-9.17,7.84-13.88,11.01-3.2,2.15-7.16,4.06-11.88,5.75-11.09,3.97-21.83,6.24-32.22,6.81-16.78.92-34.64,1.23-53.58.93-6.39-.1-13.06-.34-19.99-.72-11.4-.62-22.42-1.43-33.66-2.68-9.77-1.1-19.89-2.86-29.56-3.93-6.36-.71-11.78-1.67-16.26-2.88-13.59-3.69-26.58-8.33-38.95-13.94-5.69-2.57-10.61-6.51-16.03-9.06-6.1-2.86-11.25-6.56-17.03-9.31-7.29-3.48-14.51-7.3-21.94-10.59-5.24-2.33-10.49-4.75-15.74-7.26-5.12-2.45-10.02-5.33-14.7-8.66-7.43-5.29-14.56-11.02-21.39-17.18-4.13-3.72-8.84-8.42-14.15-14.09-4.65-4.96-10.56-10.56-17.72-16.79-8.22-7.15-16.77-12.02-25.64-14.6-.77-.23-1.18-.74-1.24-1.54-.03-.39.25-.74.64-.77h0c5.14-.47,10.26-.86,15.37-1.16,4.64-.27,9.72-.92,15.25-1.95,16.62-3.1,32.49-7.7,47.6-13.8,2.83-1.15,5.72-2.23,8.67-3.24,7.15-2.47,14.4-5.09,21.5-6.99,11.65-3.13,23.1-5.56,34.35-7.29,5.53-.85,11.69-1.74,18.48-2.67,6.72-.92,12.78-1.34,18.17-1.25,6.16.09,12.19.44,18.1,1.03,4.89.49,9.72.11,14.72.55,20.62,1.8,41.03,3.81,61.87,5.15,4.34.27,9.76,1.12,16.27,2.54,4.11.89,8.3.9,12.36,2.1,8.49,2.51,17.59,2.98,26.31,3.31,4.74.18,9.45.64,14.12,1.39,11.29,1.79,23.09,1.62,34.22,4.93,7.38,2.2,14.88,4.6,21.95,7.43,11.21,4.49,21.65,8.81,32.38,14.95,1.58.91,2.87,2.11,4.28,3.21.55.42.67.32.36-.3-1.23-2.46-2.11-5.05-3.51-7.41-2.72-4.57-5.46-9.2-8.22-13.9-1.94-3.3-4.32-6.62-7.13-9.97-4.11-4.89-8.03-9.89-11.76-14.98-2.69-3.68-5.38-7.02-8.09-10.02-4.76-5.27-8.97-10.54-13.71-15.63-4.44-4.75-9.02-9.65-11.8-15.45-1.89-3.95-3.54-7.84-4.95-11.65-.15-.39-.42-.62-.83-.67-4.01-.51-8.26-1.26-12.76-2.23-6.63-1.43-13.18-2.19-19.67-2.29-4.38-.07-8.59-.22-12.62-.46-13.39-.81-24.46-1.6-33.21-2.38-11.69-1.05-22.87-1.44-33.94-2.56-10.98-1.11-22.39-2.38-34.22-3.8-6.85-.82-14.22.23-21.37-.07-9.39-.4-18.61-.94-27.66-1.62-7.33-.54-13.75-.91-19.27-1.1-19.85-.69-36.01.31-58.41,2.28-12.23,1.07-24.37,4.43-36.09,6.76-2.7.54-8.53,1.37-17.5,2.49-7.51.94-15.51,3.72-23.99,8.35-3.2,1.75-7.03,3.78-9.54,6.54-.73.81-1.57.94-2.51.38-.33-.19-.54-.52-.64-.98-.07-.34.03-.69.27-.94,1.95-2.03,4.74-4.11,8.38-6.24,9.93-5.79,19.77-9.25,29.51-10.37,6.89-.8,12.84-1.68,17.86-2.64,8.95-1.72,18.77-4.52,27.76-5.6,20.5-2.47,40.87-3.67,61.05-2.94,14.06.51,27.95.99,42.03,2.26,5.9.54,13.12.56,21.66.06,3.15-.18,6.31-.05,9.5.39,9.63,1.34,19.14,2.48,28.53,3.43,10.65,1.07,22.04,1.53,32.12,2.43,17.51,1.56,37.11,3.12,55.94,3.39,2.45.04,8.61.9,18.48,2.59,1.74.3,3.66.36,5.75.17,1.17-.11,2.02.37,3.08.73.21.07.43-.05.5-.26.02-.08.02-.16,0-.24-4.07-13.03-9.71-25.98-16.94-38.83-2.33-4.15-5.12-8.21-8.35-12.17-2.58-3.17-6.11-5.82-8.57-8.56-2.44-2.71-4.93-5.35-7.09-8.26-4.79-6.48-9.5-12.81-14.14-18.98-6.72-8.95-13.91-16.78-21.4-25.07-7.26-8.02-14.92-15.11-22.62-22.5-4.54-4.35-9.71-8.62-15.5-12.8-8-5.77-16.58-10.19-25.74-13.26-3.22-1.17-6.37-2.36-9.44-3.56-14.58-5.68-30.1-8.17-45.37-11.42-6.33-1.35-13.77-2.54-22.34-3.58-6.89-.83-13.66-1.14-20.29-.91-16.07.55-32.71,1.98-49.9,4.29-10.48,1.41-22.45,3.92-35.92,7.52-11.51,3.07-24.48,7.74-34.4,12.38-11.87,5.55-24.64,12.34-38.3,20.38-1.6.94-3.12,2-4.55,3.18-9.58,7.88-18.29,16.41-26.12,25.58h.01Zm410.99-30.06c-3.29.88-7.34,2.38-12.13,4.5-13.27,5.86-24.65,11.74-34.12,17.63-2.44,1.51-4.73,3.16-6.88,4.94-.33.26-.38.74-.11,1.08h.01c5.63,6.52,11.4,12.87,16.31,19.59,5.77,7.89,11.47,15.42,17.12,22.58,2.04,2.59,4.6,5.28,7.67,8.07,6.54,5.94,11.65,13.75,15.76,21.51,6.14,11.6,11.25,23.61,15.33,36.04.67,2.03,2.1,2.92,4.29,2.67,3.32-.37,6.52-.88,9.61-1.51,12.16-2.49,24.37-5.12,36.64-7.87,21.69-4.88,43.06-6.47,65.86-7.12,9.83-.29,19.66-1.59,29.41-1.31,2.51.07,4.99,0,7.46-.19,6.25-.5,12.29-.78,18.59-.51,9.74.4,19.24.19,28.86.49,4.87.16,10.3-.07,16.27-.7,20.45-2.14,38.49-4.57,54.11-7.29,4.67-.82,10.47-1.23,17.4-1.23,8.53,0,18.78-.62,28.12-1.5,5.91-.55,11.9-.73,17.97-.54.33.01.61-.23.64-.56.49-4.41.6-8.76.35-13.05-.75-12.54-2.63-24.37-5.62-35.49-.88-3.25-.86-6.39-2.47-9.4-1.55-2.9-3.13-5.79-4.76-8.67-3.13-5.53-7.8-10.87-14.03-16-2.9-2.39-6.09-4.84-9.44-6.77-8.81-5.08-18.15-9.57-28-13.46-9.8-3.81-19.92-7.42-30.35-10.83-5.65-1.85-11.11-3.27-16.4-4.28-10.34-1.97-20.77-3.51-31.29-4.63-3.68-.39-7.31-.42-11.03-.8-2.71-.28-5.44-.45-8.21-.51-5.53-.12-12.23-.43-20.08-.93-12.01-.77-24.54-1.27-37.61-1.51-11.47-.22-23.15-2.12-34.01-1.69-8.03.31-17.11.98-27.24,1.99-14.28,1.43-32.19,5.24-47.81,9.54-8.69,2.39-17.31,4.38-26.19,7.72h0Zm272.07,118.43c-13.05,2.07-26.26,3.62-39.61,4.66-4.6.37-9.58.5-14.94.39-8.87-.17-17.98,0-27.04-.5-8.29-.46-16.28.57-24.4.73-4.26.09-8.37.21-12.34.37-2.74.11-5.57.24-8.49.39-15.38.77-30.05,1.7-44,2.79-7.81.61-14.91,1.58-21.3,2.92-15.09,3.17-30.57,6.48-46.43,9.95-3.63.79-7.59,1.35-11.86,1.68-.33.02-.58.31-.56.64,0,.11.04.21.1.3.83,1.29,1.51,2.67,2.03,4.14,1.95,5.45,4.84,10.31,8.67,14.6,4.17,4.66,8.44,9.13,12.56,14.07,3.5,4.18,7.58,8.02,10.62,12.24,4.4,6.08,8.83,11.8,13.3,17.16,3.89,4.67,7.22,9.28,9.98,13.83,4.99,8.23,8.47,14.46,10.44,18.69,3.66,7.85,6.6,16.97,8.83,27.38.17.81.66,1.35,1.45,1.6,3.51,1.11,5.76.53,9.1.13,11.13-1.33,21.5-4.51,31.13-9.54,8.55-4.47,16.14-8.32,22.79-11.55,5.01-2.44,10-4.48,14.99-6.13,12.35-4.08,24.8-8.09,37.36-12.04,5.9-1.85,11.96-3.38,18.17-4.58,11.09-2.15,22.42-4.54,34-7.16,7.99-1.8,16.06-1.71,24.01-3.31,5.41-1.08,10.34-1.92,14.79-2.51,14.83-1.97,34.23-3.72,58.19-5.25,5.48-.35,10.88-1.45,16.39-.96,2.78.25,5.61.4,8.5.43,14.15.18,27.97.21,41.48.1,17.14-.15,32.49.51,48.76,1.99,2.99.27,5.96.71,8.92,1.32.36.07.7-.17.77-.53.02-.08.02-.16,0-.24-1.15-6.04-4.92-12.37-7.28-17.87-1.83-4.26-3.7-7.92-5.61-10.99-3.64-5.85-7.62-11.13-11.94-15.84-6.15-6.69-9.32-10.15-9.51-10.38-7.9-9.43-16.43-16.33-26.93-24.47-8.08-6.26-17.06-10.51-26.84-14.45-.61-.25-1.24-.4-1.87-.47-16.26-1.75-32.84-.62-49.31-.08-6.66.22-13.19.61-19.6,1.18-12.53,1.12-24.99.57-37.42,2.24-6.82.91-13.5,1.89-20.05,2.93h0ZM137.17,621.76c5.79,8,12.53,15.78,20.22,23.34,10.85,10.67,24.21,19.69,40.21,18.54,9.49-.69,17.9-2.29,25.23-4.8,5.66-1.94,11.63-4.37,17.92-7.3,4.15-1.94,7.77-4.74,11.61-7.41,2.85-1.99,5.5-4.08,7.95-6.27,15.27-13.72,27.82-29.36,37.67-46.92,5.27-9.41,9.35-19.06,12.23-28.94,5.54-19.01,8.53-38.58,8.96-58.71.21-9.47-.81-20.25-1.06-30.09-.1-3.93-.83-7.78-1.02-11.77-.13-2.69-.39-5.34-.8-7.95-3.24-20.89-7.48-40.01-12.73-57.36-4.74-15.67-12.1-29.94-22.08-42.79-5.35-6.91-10.95-13.97-16.79-21.19-4.9-6.07-10.78-12.16-17.75-15.82-2.17-1.15-4.33-2.32-6.47-3.51-6.04-3.38-12.07-5.37-18.1-5.96-10.96-1.08-20.92.02-29.87,3.29-6.82,2.5-13.59,5.86-20.31,10.08-5.2,3.27-10.1,7.47-14.82,11.36-9.64,7.97-16.88,19.55-22.83,31.92-2.87,5.96-5.81,12.65-8.82,20.06-3.69,9.08-5.94,18.32-9.36,27.71-1.39,3.82-2.5,7.69-3.31,11.6-1.21,5.77-1.93,9.75-2.16,11.92-.71,6.56-1.88,12.93-2.52,19.28-.85,8.34-1.42,16.24-1.72,23.71-.17,4.22-.39,8.32-.68,12.31-.3,4.19-.49,8.24-.56,12.14-.13,7.61-.16,15.53-.08,23.78.04,4.49.5,8.97,1.39,13.45,2.95,14.95,7.08,30.46,12.39,46.52,4.3,13,10.51,25.35,18.06,35.78h0Zm537.76-166.21c17.8,19.27,27.01,48.4,23.7,74.25-.39,3.09-1.23,6.23-2.52,9.43-2.47,6.15-4.88,12.15-9.36,16.97-.75.81-.59,1.09.49.84,1.3-.29,2.45-.6,3.81-.65,8.05-.32,15.91-2.76,23.82-5.49,7.76-2.68,14.98-7.23,20.76-12.42,5.25-4.71,10.79-9.18,15.16-14.37,9.85-11.7,16.51-24.81,19.99-39.34,2.45-10.23,1.87-21.82-1.75-34.77-.98-3.51-2.5-6.45-4.56-8.82-2.49-2.87-5.08-5.11-7.76-6.72-8.86-5.32-18.58-9.4-28.21-13.24-8.58-3.42-15.98-6.02-22.19-7.81-6.23-1.79-11.52-2.89-15.88-3.3-6.33-.59-13.09-1.33-20.29-2.2-5.39-.65-10.5-1.07-15.32-1.24-5.2-.18-10.3-.63-15.31-1.34-5.09-.73-10.2-2.15-15.34-2.88-8.48-1.2-16.65-3.64-25.27-4.08-20.24-1.04-40.15-2.72-59.74-5.05-4.98-.59-10.13-.1-15.16-.5-10.75-.87-18.98-1.05-24.67-.55-11.97,1.05-25.74,2.99-41.3,5.83-6.26,1.15-12.07,2.64-18.08,4.09-4.65,1.12-9.06,2.41-13.22,3.86-6.62,2.31-13.12,4.41-19.68,7.01-12.19,4.83-24.25,8.67-36.16,11.53-5.47,1.31-11.89,2.52-19.24,3.63-4.22.63-8.33.36-12.38,1.08-1.31.23-1.37.65-.19,1.26,5.39,2.77,10.27,6,14.65,9.67,8.83,7.41,17.31,15.56,25.45,24.45,1.75,1.91,3.57,3.69,5.46,5.34,1.85,1.61,3.77,3.34,5.78,5.19,4.21,3.88,8.87,7.71,13.96,11.48,8.43,6.23,17.28,11.31,26.55,15.25,8.51,3.61,20.18,9.26,35.01,16.95,2.78,1.44,5.52,2.86,8.21,4.26,2.69,1.39,5.32,2.91,7.9,4.55,8.05,5.14,16.78,9.33,26.18,12.58.78.27.94.06.48-.62-2.79-4.16-5.63-8.55-7.14-13.18-3.85-11.84-4.14-24.63-1.91-36.87.99-5.42,1.43-10.81,3.82-15.92,2.49-5.33,4.87-9.42,7.16-12.27,13.17-16.41,29.66-28.58,49.45-36.5,6.83-2.73,15.43-4.9,25.82-6.51,8.35-1.29,17.99-1.37,26.35-.88,15.88.93,32,9.56,44.17,20.22,7.15,6.27,13.32,12.2,18.5,17.8h0Zm392.54-20.58c3.75-.14,6.94-1.46,10.5-1.15,2.35.21,4.73.22,7.16.03,15.68-1.18,33.05-.67,49.95-.8,3.09-.02,6.25.3,9.46.97,4.85,1,9.56,1.99,14.12,2.97,4.57.98,10.39,2.9,17.44,5.77,1.27.52,2.47.75,3.59.7,8.99-.4,14.01-7.08,11.82-15.55-2.44-9.42-6.21-16.52-15.86-20.03-13.05-4.74-26.76-5.05-40.59-5.89-5.89-.36-11.81-.52-17.74-.48-18.48.13-36.82.06-55.01-.2-6.75-.09-13.07.06-18.97.47-6.59.45-13.08.87-19.46,1.24-13.42.78-26.62,2.46-40.12,4.08-9.44,1.13-18.55,3.06-28.35,4.25-7.38.9-14.44,2.11-21.18,3.62-4.86,1.09-9.7,2.14-14.53,3.17-8.65,1.83-17.52,3.22-26.1,5.94-12.25,3.89-24.28,7.75-36.1,11.58-2.86.93-5.64,2.13-8.45,3.07-2.01.67-3.99,1.48-5.96,2.43-7.48,3.63-14.74,7.32-21.77,11.07-7.05,3.76-13.08,6.43-18.1,8-6.96,2.19-14.27,3.63-21.94,4.33-.82.07-.87.3-.14.68,4.66,2.44,9.19,4.24,13.58,5.4,3.71.97,8.11,1.43,13.2,1.37,11.31-.13,22.05-.1,32.22.09,13.49.26,27.35-2.02,40.39-5.04,3.51-.81,7.03-1.42,10.56-1.83,16.41-1.9,31.58-8.65,46.97-12.94,8.15-2.28,16.24-4.59,24.25-6.92,3.39-.99,6.72-1.74,9.98-2.27,7.41-1.21,14.68-3.36,21.97-3.85,9.22-.61,18.3-1.44,27.24-2.49,6.31-.74,12.08-.54,18.33-.63,8.84-.12,18.37-.84,27.64-1.16h0Zm-517.58-1.84c-15.46,7.98-31.27,20.67-40.45,36-5,8.36-6.67,18.51-7.85,28.83-.99,8.72-.02,17.83,2.93,27.33,1.56,5.03,4.71,9.22,7.56,13.55.63.95.92,1.93.88,2.94-.02.39.23.74.6.85,6.79,2.11,13.11,3.97,18.95,5.57,3.79,1.03,8.29,1.85,13.52,2.45,6.77.78,14.68,1.88,23.73,3.29.81.13,1.62.2,2.44.23,1.21.03,1.31-.28.29-.94-6.77-4.39-11.04-10.09-15.04-17.01-1.53-2.65-2.73-5.38-3.6-8.19-1.65-5.32-3.09-10.87-3.67-16.5-.17-1.66.04-3.13.64-4.41,1.13-2.41,2.2-4.83,3.23-7.27,6.12-14.61,19.72-23.11,34.29-27.29,11.29-3.24,24.37-.81,34.83,4.14,2.37,1.13,4.8,2.87,7.29,5.23,6.74,6.39,12.33,14.67,14.05,23.48.91,4.66,2.77,8.84,2.58,13.6-.63,15.8-8.25,31.26-22.91,38.21-1.18.55-1.12.92.17,1.09.75.11,1.5.15,2.25.14,10.87-.17,21.73.19,32.93-.27,5.36-.23,10.91-.33,16.65-.32,1.62,0,3.35-.32,4.99-.38.4-.02.73-.18.99-.48,3.61-4.17,6.09-7.69,7.43-10.58,3.07-6.59,5.89-12.79,6.36-20.29.53-8.48.13-16.06-1.19-22.75-3.3-16.77-9.95-32.28-21.63-45.15-7.14-7.85-15.86-16.04-23.96-22.39-11.45-8.99-25.77-14.92-40.74-15.44-8.15-.29-16.03.14-23.66,1.29-6.48.97-14.41,3.02-23.79,6.15-4.02,1.34-7.39,3.38-11.09,5.29h0Zm412.38,66.86c7.34-11.76,16.68-21.56,28.01-29.4,10.87-7.52,22.16-13.5,33.89-17.94,10.93-4.15,22.58-6.37,34.94-6.67,9.53-.23,19.18,1.3,28.95,4.61,14.15,4.78,27.8,11.65,37.44,22.2,3.13,3.42,6.83,8.22,11.1,14.4,3.62,5.25,6.25,10.25,7.89,15.01,2.75,8.01,4.48,15.47,5.19,22.39.69,6.65.57,11.81-.35,15.46-1.45,5.78-3.15,11.75-5.1,17.92-.21.69,0,.85.61.5,5.65-3.21,11.39-6.28,17.22-9.23,3.69-1.87,6.75-4.09,10.12-6.26,9.26-5.97,18.22-16.45,22.63-24.7,2.92-5.45,5.62-13.15,6.11-19.6.67-8.67-.43-17.68-3.31-27.03-1.42-4.63-3.1-8.42-5.04-11.37-1.99-3.03-4.14-6.47-7.32-8.34-2.41-1.41-4.79-2.89-7.15-4.46-2.25-1.5-4.71-2.74-7.37-3.72-4.13-1.52-7.95-2.72-11.45-3.61-3.09-.79-8.18-1.8-15.25-3.03-3.87-.67-8.07-1-12.58-.99-13.54.04-27.65-.5-41.49.59-5.58.44-11.28.4-16.91.95-4.13.4-8.33.66-12.59.79-8.63.26-17.76,1.05-27.3.94-4.97-.06-9.76.17-14.35.69-7.66.86-15.62,1.61-23.87,2.25-7.06.55-14.04,2.26-20.96,3.46-4.44.77-9.59,2.03-15.46,3.77-7.5,2.21-15.16,4.42-22.99,6.63-3.07.87-8.21,2.54-15.41,5.02-9.35,3.21-19.46,5.94-30.08,7.4-14.58,1.99-28.75,6.51-43.61,6.54-13.62.03-27.6.03-41.95,0-4.79-.01-9.9-1.04-15.34-3.07-5.61-2.1-10.08-4.28-13.41-6.53-.47-.31-.7-.19-.7.37-.02,2.67,0,5.22.08,7.65.16,5.52-.61,11.03-2.3,16.52-4.89,15.91-14.11,32.05-26.78,43.13-.53.46-.62,1.25-.22,1.83,3.48,4.97,7.66,8.95,12.53,11.94,10.07,6.17,20,10.96,29.77,14.39,4.16,1.45,8.01,3.42,12.01,5.01,8.21,3.27,18.66,7.08,31.35,11.43,5.79,1.99,10.37,3.14,13.73,3.46,2.83.27,5.42.71,7.75,1.33,5.7,1.5,11.9,2.25,17.3,2.72,16.67,1.47,33.34,2.93,50.01,4.38,8.03.69,16.46.96,24.48.65,5.03-.19,10,.13,15.06-.27,3.25-.25,6.38-.62,9.39-1.1.16-.02.28-.17.26-.34,0-.07-.04-.13-.1-.18-4.92-4.79-10.06-10.49-12.91-16.7-5.39-11.74-9.66-27.13-6.62-39.48,2.72-11.02,6.52-22.8,12.45-32.31h0Zm142.46-38.96c-7.89-4.05-16.14-7.19-24.73-9.44-4.5-1.18-10.13-1.98-16.89-2.41-2.47-.15-4.84-.1-7.12.17-5.96.69-11.9,1.1-17.76,2.47-14.82,3.48-28.49,10.08-41.41,18.22-16.75,10.57-31.1,25.9-37.91,43.75-2.53,6.61-4.61,13.18-6.26,19.71-2.24,8.91.24,18.59,3.05,27.69,1.69,5.43,3.61,9.78,5.78,13.05,2.53,3.81,5.61,7.54,9.24,11.18,1.49,1.5,3.36,2.96,5.61,2.8,4.89-.33,9.68-.89,14.56-1.26,4.39-.32,8.77-.71,13.15-1.18,8.44-.9,17.28-1.48,25.91-2.18.21-.02.38-.2.36-.42,0-.04,0-.07-.02-.1-.09-.27-.25-.47-.5-.62-6.55-3.95-11.38-8.85-14.94-15.89-2.87-5.68-5.06-11.9-6.55-18.66-.94-4.23-.43-9.16,1.52-14.79,4.66-13.39,12.72-23.04,24.18-28.93,4.97-2.56,9.67-4.03,14.1-4.41,7.65-.65,13.54-.5,17.68.44,10.24,2.33,19.14,7.51,26.69,15.54,7.41,7.87,11.21,16.48,12.01,26.98.31,3.95.49,7.75.56,11.4.03,1.8-.52,4.86-1.66,9.17-1.17,4.45-3.2,8.08-6.08,10.9-.75.74-.62.99.41.76,10.9-2.47,22.03-5.67,33.39-9.6,3.17-1.1,5.87-3,8.79-4.57.37-.2.6-.5.71-.91,1.18-4.74,2.58-9.59,4.2-14.55,4.01-12.27,2.07-25.7-2.07-38.33-1.62-4.91-3.11-9.01-5.77-13.31-8.43-13.65-17.76-25.24-32.23-32.67h0Zm-502.05,30.61c-1.09-3.69-4.96-5.79-8.65-4.7l-7.25,2.15c-3.69,1.09-5.79,4.96-4.7,8.65h0l.26.86c1.09,3.69,4.96,5.79,8.65,4.7l7.25-2.15c3.69-1.09,5.79-4.96,4.7-8.65h0l-.26-.86Zm453.68,26.07c-1.44-3.97-7.32-5.47-13.13-3.35h0c-5.81,2.11-9.35,7.04-7.9,11.01h0c1.44,3.97,7.32,5.47,13.13,3.35h0c5.81-2.11,9.35-7.04,7.9-11.01h0Zm-434.33.51c-3.61-5.55-9.35-1.37-9.86,3.65-.37,3.57-.75,7.18-1.14,10.82-.57,5.21,5.92,4.92,8.64,2.92,1.13-.83,2.04-2.29,2.71-4.38,1.43-4.49,2.41-8.76-.35-13.01h0Zm-38.51,9.75l-6.38-8.09c-.64-.81-1.82-.94-2.63-.3h0l-.73.57c-2.22,1.75-2.3,5.35-.18,8.03l1.03,1.31c2.12,2.68,5.63,3.43,7.85,1.68l.73-.58c.81-.64.95-1.81.31-2.62Zm497.76,25.49c.91-2.52-.39-5.31-2.92-6.22l-.45-.16c-2.52-.91-5.31.39-6.22,2.92l-3.15,8.71c-.91,2.52.39,5.31,2.92,6.22l.45.16c2.52.91,5.31-.39,6.22-2.92l3.15-8.71Zm-40.64,9.76c-2.61-2.22-4.22-4.38-6.33-6.58-2.35-2.45-7.18.11-6.15,3.52,1.22,4.01,5.02,7.62,8.64,9.62,2.52,1.39,6.91.3,5.78-3.57-.34-1.17-.99-2.17-1.94-2.99h0Zm-483.74,170.27c.21-.99.82-1.41,1.83-1.24,11.63,1.93,23.58,3.85,35.3,4.21,4.54.14,9.45.4,14.74.78,8.1.59,16.01.26,23.73-.97,15.86-2.53,31.38-4.98,45.97-8.66,16-4.03,30.67-8.67,44.02-13.93,9.91-3.9,16.22-6.6,18.93-8.1,13.95-7.69,26.39-13.52,37.34-17.49,9.43-3.41,19.84-6.1,31.24-8.05,6.59-1.12,13.42-2.28,20.49-3.48,11.9-2.01,24.39-2.74,37.46-2.19,2.38.1,5.2.95,7.93,1.01,20.8.47,40.84,3.94,60.12,10.43,5.64,1.9,10.59,3.24,14.84,4.02,11.04,2.02,22.26,2.76,33.53,3.21,13.29.52,27.92.97,43.91,1.35,14.9.36,29.96,1.46,44.83,2.45,5.6.38,10.38.51,14.34.39,13.89-.41,26.77-2.71,41.31-5.36,7.13-1.3,12.65-3.62,17.7-8.89,3.98-4.16,6.53-8.17,7.65-12.02,2.46-8.45,2.41-20.12-3.02-27.44-5.25-7.07-14.06-7.61-21.78-4.93-8.36,2.91-16.39,5.96-25.31,8.03-7.7,1.79-13.37,2.92-17.02,3.41-10.14,1.33-17.92,1.96-23.35,1.87-6.29-.11-12.72-.21-18.9-.81-9.63-.93-19.2-2.05-28.72-3.34-4.75-.64-9.45-1.12-14.08-1.43-7.06-.48-11.79-.62-14.18-.42-15.23,1.28-30.64,3.37-46.64,2.94-5.81-.16-11.39-.21-16.76-.15-14.16.16-28.12.05-42.18.6-5.79.23-11.52.47-17.17.7-15.83.65-31.2,2.93-46.11,6.85-11.73,3.08-24.93,7.71-36.45,13.08-5.01,2.33-9.35,3.94-13.04,4.84-11.14,2.71-22.28,4.5-33.43,5.37-5.72.44-11.51.99-17.38,1.65-5.81.65-11.62,1.12-17.41,1.4-5.18.26-10.31-.83-15.69-.17-4.96.61-9.96.55-14.99.51-16.73-.14-33.31-.23-49.74-.28-5.61-.01-11.12-.16-16.51-.43-6.87-.35-14.65.08-22.25-.58-10.59-.91-21.78-1.94-33.55-3.11-8.56-.85-17.25-.68-25.97-1.61-6.3-.67-13.29-.35-20.98.94-7.88,1.33-15.18,5.25-21.9,9.52-10.81,6.86-18.72,16.06-23.72,27.61-2.11,4.87-3.6,9.31-4.48,13.33-3.29,14.97.57,29.75,11.7,40.49,6.03,5.81,17.27,10.04,25.01,11.45,6.47,1.18,12.76,1.98,18.86,2.4,11.72.8,25.86.46,38.75.47,8.72,0,17.58-.67,26.4-1.93,14.83-2.13,29.81.3,44.45-2.7,16.68-3.43,33.92-5.62,50.21-7.68,1.01-.13,2.04-.36,3.1-.71,8.45-2.8,17.16-5.79,26.11-8.97,7.42-2.63,14.9-3.5,22.51-4.92,4-.74,7.89-1.68,11.67-2.81,6.48-1.93,13.09-2.91,19.49-5.15,5.82-2.03,11.51-4.08,17.08-6.15,5.41-2.01,10.82-3.68,16.22-5.03,11.35-2.83,22.29-5.82,32.82-8.96,5.03-1.5,10.21-2.43,15.28-3.9,4.19-1.22,7.99-2.19,11.39-2.9,10.86-2.29,21-5.12,32.3-5.46,11.91-.35,23.43.05,34.56,1.2,4.76.49,9.39.78,13.9.87,9.12.18,18.28,1.18,27.21,1.03,4.39-.07,8.78-.12,13.15-.15,14.29-.1,29.48,3.06,43.62,6.92,7.58,2.07,13.42,3.27,17.52,3.58,5.51.43,11.58-.18,18.21-1.81,9.31-2.3,16.47-6.99,21.46-14.07,4.02-5.71.55-10.23-3.37-14.39-.21-.22-.48-.37-.77-.44-.8-.18-1.59-.3-2.36-.35-11.07-.77-21.51-1.52-32.85-1.71-14.94-.26-29.92-.9-45.26-1.24-11.05-.25-22.89-1.7-35.52-4.35-6.2-1.3-11.75-4.19-18.04-5.8-15.76-4.03-32.35-6.83-48.73-7.57-4.11-.19-8.11-.41-11.98-.68-7.22-.49-15.62-.3-25.21.59-8.04.75-15.81,2.81-23.88,3.96-18.21,2.61-36.09,7.71-52.32,15.38-3.23,1.53-6.72,3.19-10.46,4.99-4.83,2.33-9.3,5.24-14.17,7.41-26.07,11.61-52.93,19.96-80.58,25.05-10.24,1.88-21.94,3.71-35.11,5.48-3.25.44-7.94.43-14.08-.04-5.39-.41-10.43-.72-15.13-.94-11.44-.52-23.18-1.79-35.23-3.82-1.01-.17-1.8-.7-2.35-1.61-.09-.14-.11-.29-.08-.45h0Zm-208.9,181.22c-2.41-.06-4.16-.21-5.26-.44-8.57-1.82-17.19-3.22-25.88-4.21-5.01-.57-9.56-1.33-13.64-2.28-14.96-3.49-29.92-7.01-44.88-10.55-3.01-.71-6.05-1.31-9.12-1.78-9.99-1.56-20-3.14-30.02-4.75-7.72-1.25-15.28-3.53-22.92-5.44-5.69-1.42-11.33-3.05-16.93-4.88-10.07-3.29-19.76-6.7-29.08-10.23-3.87-1.47-11.91-5.08-24.1-10.83-4.38-2.07-8.68-4.4-13.16-5.99-.14-.05-.3.02-.35.15-.03.07-.02.15,0,.22,3.57,8.01,7.11,16.68,10.63,26.02,1.45,3.83,3.38,7,5.79,9.5,5.01,5.2,10.82,10.07,17.42,14.6,6.51,4.46,14.04,7.66,21.01,11.47,4.5,2.45,10.01,4.94,16.54,7.47,15.95,6.16,30.67,11.25,44.16,15.28,9.03,2.7,18.89,5.21,29.6,7.54,4.5.98,9.26,2.09,14.29,3.32,4.87,1.2,9.67,2.21,14.39,3.03,14.92,2.73,29.71,5.24,44.37,7.53,14.94,2.34,30.55,5.15,45.72,7.18,6.59.88,12.88,2.1,19.53,3.07,9.26,1.36,18.1,3.52,27.38,5.05,10.42,1.72,21.65,1.46,32.01,2.1,6.35.4,12.56.83,18.63,1.29,4.94.38,9.6-.24,14.48-.29,4.13-.05,8.13-.79,12.38-.36,14.65,1.47,28.63,1.34,41.92-.39,3.22-.42,6.64-.48,10.27-.18,9.69.82,19.52.44,29.52.44,5.78,0,11.37-.91,17.11-1.26,7.22-.44,14.37-1.24,21.68-1.89,4.84-.43,9.54-1.17,14.1-2.2,2.63-.59,5.36-1.16,8.2-1.71,9.45-1.8,19.08-3.78,28.89-5.95,9.64-2.14,20.66-6.67,31.29-9.19,15.16-3.6,29.12-7.27,44.92-12.48,1.89-.62,4.03-2.21,6.14-2.98,18.15-6.65,35.67-13.83,51.55-25.13,4.74-3.37,9.18-6.59,13.32-9.67,2.51-1.87,5.1-3.68,7.78-5.43,9.29-6.07,17.23-14.41,25.85-21.57,8.57-7.12,15.85-15.86,21.83-26.21.06-.11.02-.25-.09-.31-.07-.04-.15-.04-.21,0-11.84,6.03-23.2,11.1-34.09,15.23-4.97,1.88-9.67,4.35-14.67,6.24-11.28,4.27-22.98,8.78-34.96,12.52-22.99,7.17-45.27,12.66-66.83,16.48-6.78,1.2-13.16,2.84-19.81,4.55-10.19,2.63-21.4,3.86-31.97,5.29-4.1.55-8.69.2-12.26.69-9.29,1.28-18.05,2.01-26.29,2.2-17.41.39-34.06.59-49.95.6-5.93,0-12.01.81-17.95,1.37-12.48,1.16-25.03.49-37.53,1.3-6.65.43-13.57.68-20.74.73-7.72.06-15.56.84-23.77.86-13.94.03-26.66.13-40.09-.76-13.09-.87-24.47.01-35.98-.71-8.03-.5-14.14-.75-18.33-.76-8.71,0-18.41-.37-29.1-1.09-4.02-.27-8.27-.75-12.75-1.42h.01Z"></path></svg>