<svg viewBox="0 0 1280 1149" xmlns="http://www.w3.org/2000/svg"><path d="m1090.3 708.5c-.4-4.8-.7-9.6-.6-14.4 0-4.8-.2-9.6-.6-14.3-1.3-15.3-2.3-30.7-4.8-45.7-8.2-48.6-21-95.9-41-142.5-4.8-11.1-11-21.8-18.8-32.1-2.3-3-4.8-5.7-7.5-8.3-.8-.7-1.3-1.9-1.5-2.7-3.3-11.4-6.5-22.5-9.6-33.4-2.1-7.3-4.8-14.6-6.8-21.7-.2-.8-.2-1.8.2-2.5 6-10.6 9.4-21.2 10-31.8.2-2.8-.8-6-2.8-9.4-.2-.3-.1-.7.2-.9 11.4-6.5 21.8-12.1 23.9-26.5 1.7-11.3-.1-22-10.3-28.6-.3-.2-.3-.4 0-.6 4.1-2.5 8.1-5.1 12-7.6 2.4-1.6 4.5-3.4 6.2-5.4 3.7-4.5 7.2-9.4 10.3-14.6 4.6-7.6 6.7-15.6 6.3-24-.1-1.7-.6-3.3-1.2-4.9-.1-.4-.1-.7.2-1 4.3-4.6 7.8-9.9 10.6-15.9 2.4-5.2 4.3-8.8 4.9-13.4.9-6.9.4-13.8-1.7-20.6-1.1-3.8-3.3-7.8-6.6-11.9-.3-.3-.2-.6.2-.8 3.2-2 5.1-4.6 5.7-7.8 1.1-6.5.2-12.5-2.9-18-5.8-10.3-16-16.2-26.4-21.8h-.1c-.2-.2-.3-.5-.1-.8 8.9-11.6-15.2-24.9-23.3-28.9-9.1-4.6-17.4-8.4-24.8-11.4-5.9-2.5-11.9-4.4-18-5.8-4.7-1.1-9.4-2.3-14.1-3.5-13.3-3.5-25.1-6.5-35.5-8.9-14-3.2-30.7-5.6-50.3-7.2-1.6-.1-3-.2-4.4-.9-7.5-3.5-14.9-7.6-22.5-10.6-7.2-2.8-14.4-6.1-21.6-8.1-8.9-2.5-18.8-3.3-29.5-2.4-12.5 1-24.1 2.5-35 4.6-5.6 1-11 2.8-16.5 4.1-4.1 1-8.3 2.2-12.6 3.7-17.7 6.1-35.6 12.6-53.9 19.3-18.8 6.4-38.6 12.9-59.7 19-1.5.4-3 1.1-4.5 1.6-.3.1-.6.1-.9-.1-9.6-5.7-20-10-31.3-13.1-15.3-4.1-30.7-7.2-46.2-9.3-18-2.4-35.9-2.3-54-.9-6.5.5-13.2 1.4-20 2.6-16.5 3-32.1 6.9-47 11.8-11.8 3.8-19.4 6.4-22.8 7.7-25.5 9.6-50.9 22.8-76.1 39.8-12.8 8.6-24 18.8-35.8 29.1-15.2 13.4-29.7 27.8-43.4 43.2-7.4 8.3-13.8 16.3-19.4 24.1-5.4 7.5-11.2 14.9-17 22.3-8.3 10.5-15.2 21.4-23.1 32.3-3.6 5-7 10.2-10.4 15.8-4.8 8-7.9 13.5-9.4 16.6-7.6 15.5-14.5 31.4-20.7 47.5-4.4 11.6-8.4 24.3-12.3 36.9-4.9 15.5-8.8 33.2-13.3 49.3-1.8 6.6-3.7 13-5.5 19.4-1.7 5.9-3.1 12.4-4.4 19.4-2.6 14.3-4.4 26-5.5 35.2-2.2 18.2-4.3 36.3-6.3 54.5-2.9 26.1-2.7 50.1-2.5 77.3.1 7.6.3 14.2.7 20 1.2 17.4 3.2 36.5 6 57.3 1.2 8.9 2.3 16.7 3.5 23.3 2.9 17.1 6.5 31.4 10.8 43 10 27.3 25.6 50.8 44.4 74.6 2.5 3.1 4.8 6.3 7 9.5 3.1 4.5 7 8.7 11.7 12.7 11.9 10 23 22.2 36.3 30.4 14.2 8.8 27.9 17.2 41.3 25.2 10.6 6.4 22.4 11.6 35.3 15.8 4.2 1.4 8.3 3.2 12.5 4.6.6.2.6.4.1.7-7.1 4-12.1 9.3-15.1 17.3-2.5 6.7-4.1 12.1-.7 19 3.6 7.4 7.8 13.6 12.6 18.6 5.8 6.2 13.7 10.8 21.3 15.1 6.9 4 14.8 6.4 23.4 7.4 12.2 1.3 22.9 2.6 32.2 3.8 13.3 1.7 26 3 38.4 3.1 14 .2 27.9.3 41.7.3s27.5.6 41.8.4c7.2-.1 13.1-.7 17.6-1.8 5.7-1.3 13.1-3.4 22.3-6.5 11.8-3.9 22.2-8.9 31.1-14.8 3.3-2.2 6.8-5.8 10.6-10.8.2-.2.4-.4.8-.4 4.9-.1 9.5.9 14.3.9 7.3-.1 14.4-.8 21.7-.5 7.2.3 13.5.3 18.8 0 8.8-.5 23.2-1.4 43.4-2.9.4 0 .7.1.8.5.5 1.1 1 2.3 1.5 3.6 5.8 13.8 18.5 20.9 31.5 27.2 4.4 2.1 9.9 3.8 16.5 5.2 19.5 4 40 5.6 59.8 3.7 10.9-1 21.7-2 32.8-2.8 15.7-1.1 32-3.8 49-8 12.5-3.1 24.9-7.8 37.2-12.2 4.6-1.6 8.6-3.4 11.9-5.3 9.8-5.5 26.2-21 20.2-34.1-6.2-13.4-17.8-21.3-30.8-27.9l-.1-.1c0-.1 0-.2.1-.3 21.2-9.1 41.8-19.5 61.5-31.1 8.5-5 17.5-11.1 27-18.3 4.7-3.6 8.9-7.4 12.8-11.6 8.5-9.2 17.5-18.5 23.6-29.1 3-5.2 5.7-11 8.2-17.4 4.3-11.2 8.4-23 12.6-35.5 1.3-4 2.4-8.6 3.2-13.6 1.3-7.7 2.5-15.3 3.7-22.7.1-.3.2-.5.6-.7 6.9-2.2 13.2-5.2 18.9-9 9.9-6.6 14.8-23.7 15.9-34.7.7-7 1.3-14.1 2-21.1.3-3.8.3-7.9-.1-12.1z"/><g fill="none"><path d="m867.1 230.8c-1.2-1.1-2.1-2.5-2.7-4.2.5 1.7 1.5 3.1 2.7 4.2z"/><path d="m882.2 219.4c-.8-2.2-2.2-4-4-5.2 1.7 1.2 3.2 3 4 5.2z"/><path d="m547.2 268.1c.4-.1.8-.3 1.1-.4-.3.2-.7.3-1.1.4z"/><path d="m151.6 343.8c.1 0 .1.1.1.1q0-.1-.1-.1z"/><path d="m226.5 789.1c0 .1-.1.1 0 0-.1.1 0 .1 0 0z"/><path d="m137.9 772.4s0-.1-.1-.1q.1 0 .1.1z"/><path d="m574.3 226.7 1-.4c.2-.1.3-.1.5-.2-.2.1-.3.1-.5.2z"/><path d="m183.3 788.2-.1-.1s0 .1.1.1z"/><path d="m888.4 263.2c-2.4-1.1-4.4-3.1-5.5-5.9-2.2-5.4.1-11.5 5.2-13.6s11 .7 13.2 6.1-.1 11.5-5.2 13.6c-2.5 1-5.2.9-7.5-.2 2.4 1 5 1.2 7.5.2 5.1-2.1 7.4-8.2 5.2-13.6-2.2-5.4-8.1-8.2-13.2-6.1s-7.4 8.2-5.2 13.6c1 2.8 3.1 4.8 5.5 5.9z"/><path d="m584.9 305.3c-.2.6-.4 1.2-.7 1.7.4-.5.6-1.1.7-1.7z"/><path d="m585.2 304.2c.1-1.1.1-2.3-.2-3.5.2 1.2.3 2.4.2 3.5z"/><path d="m582.1 296.1c1.2 1.1 2 2.4 2.5 3.9-.4-1.5-1.3-2.8-2.5-3.9z"/><path d="m546.5 268.4c-1.7.8-3.1 2.2-4 4-.5 1.1-.8 2.3-.8 3.4 0-1.2.3-2.3.8-3.4.9-1.8 2.3-3.2 4-4z"/><path d="m578.2 293.8c.6.2 1.1.4 1.7.7-.6-.3-1.2-.6-1.7-.7z"/><path d="m575.6 293.3c.6 0 1.2.1 1.7.2-.6-.1-1.1-.1-1.7-.2z"/><path d="m568.5 227.8c-4.7-.2-9.1-3.2-10.9-8l-1.1-2.9c-2.3-6.3.9-13.3 7.2-15.7l2.1-.8c6.3-2.3 13.3.9 15.7 7.2l1.1 2.9c2.1 5.7-.4 12.1-5.6 14.9 5.2-2.9 7.7-9.2 5.6-14.9l-1.1-2.9c-2.3-6.3-9.3-9.5-15.7-7.2l-2.1.8c-6.3 2.3-9.5 9.3-7.2 15.7l1.1 2.9c1.7 4.8 6.1 7.8 10.9 8z"/><path d="m570.7 227.7c-.8.1-1.5.1-2.3.1.8.1 1.6 0 2.3-.1z"/><path d="m579.9 294.4c.5.3 1.1.6 1.6 1-.6-.3-1.1-.7-1.6-1z"/><path d="m558 270.6c.8.9 1.5 1.9 2 3-.5-1-1.1-2.1-2-3z"/><path d="m560 273.6c.4 1.1.7 2.2.7 3.4 0-1.1-.3-2.3-.7-3.4z"/><path d="m558.4 282.7c-.4.4-.8.8-1.3 1.1.4-.3.9-.7 1.3-1.1z"/><path d="m550.4 267.5c.7 0 1.3 0 2 .2-.7-.2-1.4-.2-2-.2z"/><path d="m542.3 278.9c-.4-1-.6-2-.6-3.1.1 1.1.3 2.1.6 3.1z"/><path d="m583 308.9c.3-.3.5-.6.7-.9-.2.3-.5.6-.7.9z"/><path d="m543.9 281.6q-.1-.1-.2-.2c.1.1.1.2.2.2z"/><path d="m558.4 282.7c.6-.6 1.1-1.4 1.5-2.2.5-1.1.8-2.3.8-3.4 0 1.2-.3 2.3-.8 3.4-.4.8-.9 1.5-1.5 2.2z"/><path d="m1056.6 163c0-.1.1-.1.1-.2 0 0-.1.1-.1.2z"/><path d="m682.3 309.2h-.2c.1.1.2 0 .2 0z"/><path d="m894.1 169.1c.5 1.1.8 2.3 1 3.6-.2-1.3-.6-2.5-1-3.6z"/><path d="m888.8 187.2c4.1-3 6.6-7.8 6.4-12.9.2 5.1-2.3 9.9-6.4 12.9z"/><path d="m119.5 721.5q.1 0 .2.1c0-.1-.1-.1-.2-.1z"/><path d="m1056.5 163.2-.1.1q0-.1.1-.1z"/><path d="m888.8 187.2c-.8.6-1.7 1.1-2.6 1.5.9-.4 1.8-.9 2.6-1.5z"/><path d="m871.6 212.7c2.1-.4 4.2.1 6 1.2-1.8-1.1-3.9-1.6-6-1.2-4.6.7-7.8 4.9-7.9 9.8.1-4.9 3.3-9.1 7.9-9.8z"/><path d="m875 233.4c-2.5.4-5-.3-7-1.8 2 1.5 4.4 2.2 7 1.8z"/><path d="m996.2 261.5q-.1 0 0 0z"/><path d="m863.9 177.1c-1.2-8.4 4.8-16.2 13.4-17.4 5.4-.8 10.5 1.2 13.9 4.9-3.4-3.6-8.5-5.6-13.9-4.9-8.5 1.2-14.5 9-13.4 17.4 1.1 7.9 8.2 13.4 16.1 13.1-7.9.4-14.9-5.2-16.1-13.1z"/><path d="m886.2 188.7c-.8.4-1.6.7-2.5.9.9-.2 1.7-.5 2.5-.9z"/><path d="m226.1 789.6q0-.1.1-.2c0 .1-.1.1-.1.2 0-.1 0 0 0 0z"/><path d="m182.8 788q.1 0 .2.1-.1-.1-.2-.1z"/><path d="m182.2 788.2s.1-.1.2-.1c-.1 0-.2 0-.2.1z"/><path d="m1056.2 163.4c-.1 0-.1.1-.2.1q.1-.1.2-.1z"/></g><path d="m1090.3 708.5c-.4-4.8-.7-9.6-.6-14.4 0-4.8-.2-9.6-.6-14.3-1.3-15.3-2.3-30.7-4.8-45.7-8.2-48.6-21-95.9-41-142.5-4.8-11.1-11-21.8-18.8-32.1-2.3-3-4.8-5.7-7.5-8.3-.8-.7-1.3-1.9-1.5-2.7-3.3-11.4-6.5-22.5-9.6-33.4-2.1-7.3-4.8-14.6-6.8-21.7-.2-.8-.2-1.8.2-2.5 6-10.6 9.4-21.2 10-31.8.2-2.8-.8-6-2.8-9.4-.2-.3-.1-.7.2-.9 11.4-6.5 21.8-12.1 23.9-26.5 1.7-11.3-.1-22-10.3-28.6-.3-.2-.3-.4 0-.6 4.1-2.5 8.1-5.1 12-7.6 2.4-1.6 4.5-3.4 6.2-5.4 3.7-4.5 7.2-9.4 10.3-14.6 4.6-7.6 6.7-15.6 6.3-24-.1-1.7-.6-3.3-1.2-4.9-.1-.4-.1-.7.2-1 4.3-4.6 7.8-9.9 10.6-15.9 2.4-5.2 4.3-8.8 4.9-13.4.9-6.9.4-13.8-1.7-20.6-1.1-3.8-3.3-7.8-6.6-11.9-.3-.3-.2-.6.2-.8 3.2-2 5.1-4.6 5.7-7.8 1.1-6.5.2-12.5-2.9-18-5.8-10.3-16-16.2-26.4-21.8h-.1c-.2-.2-.3-.5-.1-.8 8.9-11.6-15.2-24.9-23.3-28.9-9.1-4.6-17.4-8.4-24.8-11.4-5.9-2.5-11.9-4.4-18-5.8-4.7-1.1-9.4-2.3-14.1-3.5-13.3-3.5-25.1-6.5-35.5-8.9-14-3.2-30.7-5.6-50.3-7.2-1.6-.1-3-.2-4.4-.9-7.5-3.5-14.9-7.6-22.5-10.6-7.2-2.8-14.4-6.1-21.6-8.1-8.9-2.5-18.8-3.3-29.5-2.4-12.5 1-24.1 2.5-35 4.6-5.6 1-11 2.8-16.5 4.1-4.1 1-8.3 2.2-12.6 3.7-17.7 6.1-35.6 12.6-53.9 19.3-18.8 6.4-38.6 12.9-59.7 19-1.5.4-3 1.1-4.5 1.6-.3.1-.6.1-.9-.1-9.6-5.7-20-10-31.3-13.1-15.3-4.1-30.7-7.2-46.2-9.3-18-2.4-35.9-2.3-54-.9-6.5.5-13.2 1.4-20 2.6-16.5 3-32.1 6.9-47 11.8-11.8 3.8-19.4 6.4-22.8 7.7-25.5 9.6-50.9 22.8-76.1 39.8-12.8 8.6-24 18.8-35.8 29.1-15.2 13.4-29.7 27.8-43.4 43.2-7.4 8.3-13.8 16.3-19.4 24.1-5.4 7.5-11.2 14.9-17 22.3-8.3 10.5-15.2 21.4-23.1 32.3-3.6 5-7 10.2-10.4 15.8-4.8 8-7.9 13.5-9.4 16.6-7.6 15.5-14.5 31.4-20.7 47.5-4.4 11.6-8.4 24.3-12.3 36.9-4.9 15.5-8.8 33.2-13.3 49.3-1.8 6.6-3.7 13-5.5 19.4-1.7 5.9-3.1 12.4-4.4 19.4-2.6 14.3-4.4 26-5.5 35.2-2.2 18.2-4.3 36.3-6.3 54.5-2.9 26.1-2.7 50.1-2.5 77.3.1 7.6.3 14.2.7 20 1.2 17.4 3.2 36.5 6 57.3 1.2 8.9 2.3 16.7 3.5 23.3 2.9 17.1 6.5 31.4 10.8 43 10 27.3 25.6 50.8 44.4 74.6 2.5 3.1 4.8 6.3 7 9.5 3.1 4.5 7 8.7 11.7 12.7 11.9 10 23 22.2 36.3 30.4 14.2 8.8 27.9 17.2 41.3 25.2 10.6 6.4 22.4 11.6 35.3 15.8 4.2 1.4 8.3 3.2 12.5 4.6.6.2.6.4.1.7-7.1 4-12.1 9.3-15.1 17.3-2.5 6.7-4.1 12.1-.7 19 3.6 7.4 7.8 13.6 12.6 18.6 5.8 6.2 13.7 10.8 21.3 15.1 6.9 4 14.8 6.4 23.4 7.4 12.2 1.3 22.9 2.6 32.2 3.8 13.3 1.7 26 3 38.4 3.1 14 .2 27.9.3 41.7.3s27.5.6 41.8.4c7.2-.1 13.1-.7 17.6-1.8 5.7-1.3 13.1-3.4 22.3-6.5 11.8-3.9 22.2-8.9 31.1-14.8 3.3-2.2 6.8-5.8 10.6-10.8.2-.2.4-.4.8-.4 4.9-.1 9.5.9 14.3.9 7.3-.1 14.4-.8 21.7-.5 7.2.3 13.5.3 18.8 0 8.8-.5 23.2-1.4 43.4-2.9.4 0 .7.1.8.5.5 1.1 1 2.3 1.5 3.6 5.8 13.8 18.5 20.9 31.5 27.2 4.4 2.1 9.9 3.8 16.5 5.2 19.5 4 40 5.6 59.8 3.7 10.9-1 21.7-2 32.8-2.8 15.7-1.1 32-3.8 49-8 12.5-3.1 24.9-7.8 37.2-12.2 4.6-1.6 8.6-3.4 11.9-5.3 9.8-5.5 26.2-21 20.2-34.1-6.2-13.4-17.8-21.3-30.8-27.9l-.1-.1c0-.1 0-.2.1-.3 21.2-9.1 41.8-19.5 61.5-31.1 8.5-5 17.5-11.1 27-18.3 4.7-3.6 8.9-7.4 12.8-11.6 8.5-9.2 17.5-18.5 23.6-29.1 3-5.2 5.7-11 8.2-17.4 4.3-11.2 8.4-23 12.6-35.5 1.3-4 2.4-8.6 3.2-13.6 1.3-7.7 2.5-15.3 3.7-22.7.1-.3.2-.5.6-.7 6.9-2.2 13.2-5.2 18.9-9 9.9-6.6 14.8-23.7 15.9-34.7.7-7 1.3-14.1 2-21.1.3-3.8.3-7.9-.1-12.1zm-70-389c-.9 7.2-4.3 11.2-10 14.8-3.8 2.4-7.7 4.8-11.8 7-4.1 2.3-8.8 3.4-12.5 5.6-18.3 11.1-35.4 19.1-51.2 23.9-8.5 2.6-15.8 4.9-21.8 6.9-3.4 1.1-6.7 2.1-10 3-4.6 1.2-9 2.6-13.7 3.5-10.3 2-20.1 3.3-30.3 5.6-16.5 3.7-34 5.8-50.6 8.5-2.8.4-5.5.8-8.4 1-3.9.3-7.8.8-11.7 1-15.8.6-32.5 1.3-50.1 2.1-4.8.2-10.2.3-16 .2-7.1-.1-14.2.5-21.4.4-13.3-.2-26.2 0-39.9-.5-9.2-.3-18.1.5-27 0-27.8-1.7-44.4-3-49.9-3.8-17.8-2.5-35.2-5-52.2-7.4-7-1-13.6-2-19.8-3.2-23.6-4.4-45.1-8.4-70.8-12.4-7.4-1.1-13.4-2.8-20.1-5-6.8-2.2-9.6 7.1-3.1 9.7 6 2.4 12.1 4 18.2 5 24.4 3.7 49 8.1 73.9 13 14.4 2.8 34.7 5 52.4 7.8 24.8 3.9 47.6 5.2 71.8 6.8 7.8.5 15.4-.4 23.1-.2 18.5.5 36.6.7 54.6.3 4.4-.1 9-.1 13.8 0 3.7.1 7.3 0 10.6-.3 8.6-.7 17.3-.5 25.7-1 5.3-.3 10.3-.5 15.1-.6 10-.2 19.5-.9 28.6-2 13.6-1.7 28.3-4 44.2-6.9 4.7-.8 9.6-1.8 14.9-2.9 10.7-2.2 21.5-3.6 32.7-6.1 4.9-1.1 9.5-2.4 13.5-3.9 6-2.2 12-4.3 18.3-6 13.5-3.9 26.2-8.6 38-14.3 5.7-2.7 12.8-6.6 21.2-11.5 1.8-1.1 4.1-2 6-2.6 4.6-1.4 3.8 6 3.3 8.5-1.8 9.1-4.9 17.2-9.3 24.4-1.9 3.1-4.4 5.9-7.5 8.5-10.4 8.7-22 14.5-35.5 19.4-9.3 3.4-18.1 6.4-26.5 9.2-9 3-19.1 4.7-27.6 7.1-10.1 2.8-19.3 5.2-27.8 7.2-14.3 3.3-33.5 5.5-50.3 8.6-13 2.4-26.2 4.6-39.4 6.5-4.5.7-9 .6-13.4 1.3-7.5 1.1-14.1 1.8-19.9 2-22.7.8-46.1 1.8-68.7 1-17.7-.7-35.2.3-52.8-1.4-4.8-.4-9.9-.8-15.1-.9-15.4-.5-32.2-3.6-48.6-5.5-12.3-1.5-25.2-4.1-38.2-5.8-11.2-1.4-22.4-3.7-33.4-7-3.4-1-7.1-1.9-11.1-2.8-3.2-.7-6.8-1.6-11-2.8-10.2-2.9-21.1-4.9-31.6-8.7-10.9-3.9-22.6-7.6-33-12.5-6.3-2.9-12.8-6-19.7-9.2-5.4-2.5-10.1-6-14.6-9.6-2.9-2.4-5.1-4.8-6.3-8.5-2.2-7-1.4-14.2 2.4-21.5 3.9-7.4 10.7-16.7 18.9-19.5 4.5-1.5 9-2.4 13.4-2.6 1.7-.1 5.4.4 11 1.5 10.3 1.9 19.5 3.4 27.7 4.4 6.5.8 12.9 1.6 19.1 2.5 5 .7 11.3 2 19.1 3.7 14.7 3.3 29.5 6.6 44.5 9.9 7.6 1.7 15.1 2.7 22.6 3.6 15.1 1.9 31 3.6 47.8 5.2 12.9 1.2 27 1.2 40.5 2.2 20.1 1.4 40.7 1.9 61 .3 16.6-1.2 33.6-3.1 51.1-3.2 10.3-.1 19.8-1.3 29.8-3 4.8-.8 10-1.5 15.5-2.2 16.4-2 32.8-5.6 48.8-7.7 14.8-1.9 28.7-4.8 42.5-8.2 2.5-.6 4.8-1.7 7.3-2.2 9-1.8 17.9-4.9 26.9-7 8.5-2 17.7-4.2 25.7-7.3 9.8-3.9 19.8-7 29.4-11.8 9-4.4 24.9-9.4 36.7-15.8 4.5-2.5 13.2-5.2 17.6-1.7 4.8 3.5 5.1 10.1 4.4 15.9zm39.1-122.2c.2 4.3-.3 8.1-1.6 11.3-3.9 10-8.6 17.9-16.9 24.1-3.1 2.3-6 4.5-8.9 6.5q-.2.1-.1-.1c4.5-10.9 7.1-23.7 6.3-35.8-1.2-17.5-6.7-36.2-16.5-50.7-.3-.4-.2-.5.3-.3 18.1 8.2 36.4 24.4 37.4 45zm-63.3 64c2.5-4.5 4.7-9 6.7-13.5 6.5-14.7 9.9-29.9 10.2-45.4.2-11.1-4.4-22.9-9.7-33.2-5.7-10.9-12.3-20.4-20-28.5-.5-.5-.4-.7.3-.5 9.2 1.9 16.9 4.5 23.5 11.3 10.5 10.7 15.7 24.8 18.9 39.5 3.1 14.3 2.4 28-2.4 40.9-1.9 5.2-4.1 10.5-6.5 15.8-.8 1.7-2 3.1-3.6 4.1-5 3.2-10.5 6.4-16.6 9.5-.2.1-.5.2-.7.3h-.1v-.1c0-.1 0-.2 0-.2zm-9-54.8c-3.2 6.8-9 11.3-17.5 13.8-12.2 3.4-25.6-4-32.4-13.8-3.4-5-7.3-10.7-8.5-16.3-1.4-6.2-1.8-11.8-1.1-16.7 1.2-9 7.9-19.9 17.8-21.5 6.7-1.1 12.7-.4 18 2.2 4.4 2.1 8.5 5.8 12.3 9 5.6 4.7 11.3 13.5 13.8 19.9 2.7 7.3 1 15.9-2.4 23.4zm-115.6-137.8c3.9.3 12.5 1.3 26 2.9 25.9 3.7 47.7 11 71.1 16.3 7.2 1.6 15.1 4.6 22.4 7.8 14.1 6.3 25.1 11.3 35.7 19.9 1.1.9.9 1.3-.5 1.1-6.6-.6-13.3-2.1-20.2-4.4-2.8-1-5.8-1.7-8.7-2.4-8.4-1.9-16.7-3.6-24.7-5-10.1-1.8-21.3-2.5-33.5-2.1-18.7.7-36.3 2.8-52.8 6.2-10 2.1-20.7 4.5-31.9 7.4-6.4 1.6-12.8 3.7-19.1 6.1-12.9 5.1-26 9.8-39 16.2-13 6.3-25.2 12.7-36.4 19.2-3.3 1.9-6 3.8-8.1 5.8-5 4.8-.1 11.6 5.8 7.9 15.8-10.1 31.5-17.8 48.2-25.9 5-2.4 10.4-4.7 16-6.8 11.2-4.1 22.5-9.3 34.3-12.2 17.1-4.3 33.9-8.4 51.3-10.7 14.7-2 29-2.9 42.8-2.8 8.1.1 15.6.9 22.6 2.6 4.1 1 7.8 1.7 11 2.2 4.8.7 9.7 1.4 14.4 2.9 5 1.6 10 3 14.9 4.2 3.5.9 6.6 2.1 9.4 3.5 9.4 4.9 17.4 9.5 23.9 14 6.5 4.4 11.7 12.2 10.1 20.1q0 .1-.1.2v.1c0 .1-.1.1-.1.1l-.1.1-.1.1s-.1.1-.2.1h-.5q-.1 0-.2-.1c-1.4-.7-2.4-1.4-3.2-2.2-8.7-8.7-18.3-15.4-30-19.8-7.2-2.7-14.2-5.5-21.8-7.5-4-1.1-7.9-2.1-11.8-3.2-11-3-26.5-5.5-39.8-6.1-7.9-.4-16.1-1.2-24-.1-8.4 1.2-16.7 2.5-24.7 4-5 .9-10 2.2-14.9 4-16.1 5.6-34.3 13-54.4 22.4-11 5.1-19.4 9.4-25 12.9-8.1 5-19.8 12.9-34.9 23.8-11.3 8.1-20.2 16-26.9 23.9-.3.3-.5.3-.7-.1-3.3-8.4-6.7-15.7-10.3-21.8-4.2-7-10.1-13.8-17.9-20.4-.4-.3-.4-.6 0-1 3.6-3.7 3.4-8.4 3.2-13.1-.3-6.1-3-11.6-8.1-16.4-7.9-7.5-14.8-10.4-25-14.1-8.3-3-16.1-5.2-23.4-6.6-.4-.1-.5-.3-.1-.5 4.8-3.8 9.1-6.8 12.9-8.9 7.7-4.2 17.5-9.1 29.4-14.8 10.5-4.5 21.2-8.7 32-12.5 4.8-1.7 9.5-3.2 14.2-4.3 6.3-1.6 11.1-2.6 14.5-3.1 4.6-.7 7.5-1.2 8.8-1.5 3.7-1.1 7.9-2.4 11.8-3.1 6.6-1.2 15.3-2.3 26.2-3.1 25.5-2.2 45.6-2.5 60.2-1.4zm16.5 175.1c5.1-2.1 11 .7 13.2 6.1 2.2 5.4-.1 11.5-5.2 13.6-2.5 1-5.2.9-7.5-.2q-.1 0-.2-.1c-2.4-1.1-4.4-3.1-5.5-5.9-2.2-5.4.1-11.5 5.2-13.5zm-144.1-14.7c-.1-.4.1-.6.5-.7 1.6-.2 2.9-.8 3.8-1.8 7.5-9.2 15.7-17.1 24.5-23.5 8.1-5.9 16.2-11.6 24.3-17.3.5-.4.7-.2.5.4-1.8 6.4-3 12.6-3.8 18.8-1.1 8.3-.7 17.1 1.1 26.3 3 14.9 9.5 31 17 44.5 3.1 5.6 7.1 11.1 12 16.4 1.7 1.9 3.5 3.5 5.3 4.9 1.6 1.2 1.4 1.6-.6 1.4-23.1-2.7-46.2-4.5-67.9-10.9-7.8-2.3-16-4.9-24.7-7.8-.4-.1-.5-.4-.3-.7 8.1-14.3 12.1-34.1 8.3-50zm77 41.8c-6.4-11.4-12.2-25.3-15.3-38.3-2.7-11.5-3-21.7-.6-33.6 1.4-7 3.2-13.5 5.2-19.5.8-2.2 2-3.9 4-5 5.7-3 11.2-5.8 16.6-8.5.6-.3.8-.1.5.5-2.5 5.3-4.8 11.2-6.7 17.7-2.5 8.2-3.4 17.6-2.9 28.2 1.4 26.6 11.9 50.5 29.7 70.5 4.8 5.4 10.9 10 16.9 14.3.8.6.7.9-.3 1-5.8.3-11.4.6-16.8.7-1.8.1-4.1-.9-7-2.8-9.8-6.7-17.6-15.2-23.3-25.2zm47.1-39.3c-.3-.2-.7-.5-1-.8-1.2-1.1-2.1-2.5-2.7-4.2-.2-.7-.4-1.3-.5-2.1s-.2-1.4-.2-2.1c.1-4.9 3.3-9 7.9-9.8 2.1-.4 4.2.1 6 1.2.2.1.4.2.6.4 1.8 1.2 3.2 3 4 5.2.2.7.4 1.3.5 2.1.9 5.7-2.5 11.1-7.7 11.9-2.5.4-4.9-.3-6.9-1.8zm27.2-57.4c.2 5.2-2.3 10-6.4 12.9-.8.6-1.7 1.1-2.6 1.5-.8.4-1.6.7-2.5.9-.7.2-1.3.3-2 .4-.5.1-1.1.1-1.6.1-8 .3-15-5.3-16.1-13.1-1.2-8.4 4.8-16.2 13.4-17.4 5.4-.8 10.5 1.2 13.9 4.9 1.2 1.3 2.2 2.8 2.9 4.5.5 1.1.8 2.3 1 3.6-.1.7 0 1.2 0 1.7zm-187.4 31.9c-1.6-3.4-3.6-6.6-5.3-9.9-.3-.6-.2-.7.4-.4 3.9 2.2 7.3 5 10.1 8.4 9.2 11.2 21 17.5 21.8 33.8.8 15.6-3.7 32.3-14 44-1.9 2.1-3.9 3.7-6.1 4.8-.5.3-.7.1-.5-.4 7.2-26.6 5.4-55.3-6.4-80.3zm-25.8 102.8c.1-.3.2-.5.4-.8 4.4-10.8 6.9-21.9 8.8-33 1.3-7.8 1.5-16.3.5-25.6-1.3-11.7-3.6-21.6-7-29.6-2.5-5.9-6.2-12.6-11-20-4.7-7.3-10-13.4-15.8-18.4-.4-.3-.3-.5.2-.4 7.1 1 13.4 2.3 18.9 3.9 3.7 1.1 7.1 3.5 10 7.2 12.7 15.9 19.7 34.2 21 55 .6 8.9 0 18.3-1.7 28.3-1.3 7.9-4.8 15.1-7 22.6-.3.9-.8 1.6-1.6 2l-15.2 9h-.2v-.1h-.1q-.3 0-.2-.1zm-8.8-67.8c-.5 11.8-2 20.1-14.1 24.9-5.3 2.1-11.2 4.1-16.7 3-25.1-5.2-38.3-28.8-35.1-53.4.4-3.3 1.8-6.4 4.2-9.4 6.5-8.2 19.8-10.5 29.6-9.1 9.7 1.4 19.2 10.7 24.7 18.4 5.7 7.6 7.8 16.2 7.4 25.6zm-517.2 92.4 9.4-20.5c6-10.8 10.6-18.5 13.9-23 5.6-7.7 11.2-15.7 16.8-23.7 8.6-12.5 17.9-23.3 26.6-35.4 4.8-6.6 9.8-13.1 15.3-19.4 13.5-15.5 27.9-30.2 43.2-43.9l31.4-26.9c12.4-8.2 20.4-13.3 23.9-15.5 29.7-17.8 61.1-30.9 94.3-39.2 10.9-2.7 21.5-5.1 31.8-7.2 6.1-1.2 11.8-2 17.1-2.5 15.8-1.4 31.5-1.6 47.6.2 13.9 1.6 27.6 4.2 41.1 7.7 13.6 2.6 26.8 7.8 39.8 15.5 1.2.7 2.6 1 4.3.8 2.9-.2 4.5-2.5 7.1-3.2 19.3-5.4 38.3-11.6 57-18.7 16.7-5.8 33.4-11.8 50-17.9 5.1-1.9 11.6-4 17.5-5.4 6.7-1.6 13.3-3.5 20.1-4.7 11.5-2 22.7-3.3 33.7-4 8.2-.5 18.1.5 26.1 3.8 5.3 2.1 10.7 3.5 15.6 6.6 1.1.7 1 1-.3 1.1-12.3.4-25.1 1.3-38.5 2.6-9 .9-17.1 2.1-24.3 3.6-4 .8-7.9 2.3-12.1 3.1-11.7 2.2-23.8 4.7-34.1 9.1-3.4 1.4-6.3 2.5-8.7 3.3-10 3.1-20 7.6-29.3 12.1-14 6.9-28.3 13.4-39.8 24-1.3 1.2-2.3 2.5-2.9 3.9-.1.2-.2.3-.5.3-5.6-.4-11.3-.7-17.1-1.1-3.7-.2-7-1.7-10-3.8-4.5-3.1-8.7-6.3-13.6-8.9-10.1-5.5-20.2-9.8-30.4-13-3.5-1.1-7.9-2-13.2-2.6-17.9-2.5-30.5-3.8-38-3.9-15-.2-30.5 1-46.6 3.6-14.9 2.4-29.1 6.5-42.6 12.2-19.6 8.3-37.2 17-52.6 26.2-7.6 4.5-14.5 9.4-21.3 15.2-5.7 4.8-12.1 9.2-17.6 14.7-2.3 2.3-4.5 4.8-6.6 7.5-1.3 1.6-1.9 3-2 4.2-.1 2.1.7 3.7 2.5 4.7 3.6 2 5.9-.1 8-2.9 3.1-4 6.4-7.4 10.1-10.3 6.1-5 11.9-9.8 17.5-14.4 5-4.1 13-9.2 23.9-15.2 9.2-5.1 19.4-10.2 30.6-15.3 16.1-7.3 31.1-12.8 47.2-15.7 21.2-3.8 41.1-5.2 61.6-3.2 5.7.6 11.5 1.2 17.3 1.8 9.5.7 18.8 2.9 27.7 6.6 8.7 3.6 16.9 7.4 24.7 11.5 1.6.9 1.5 1.3-.3 1.2-1.7 0-3.4-.3-5.1-.2-5.5.3-11 .5-16.4.7-2.8.1-5.6.8-8.4 1-10.1.6-18.7 2.7-28.2 4.4-12.9 2.3-25 7-36.8 12.5l-23.5 11c-4.7 3.2-11 6.8-18.7 10.8-5 2.6-11.2 6.5-18.5 11.6-13.5 9.4-25.1 17-34.7 23.1-8.6 5.4-18.6 10.7-29.8 15.9-10.7 4.9-21.1 8-33.5 8-2.5 0-5 .6-6.2 3.1-1.7 3.4 2.2 6.3 5.1 6.8 1.4.2 3 .3 4.7.3 7.4-.2 14.3-1.5 20.8-3.8 7.3-2.6 13.9-5.4 19.8-8.4 9.9-5.1 19.8-10.3 29.1-16.2 10.9-6.8 22.1-14.2 33.7-22.2 4.8-3.3 11-7.1 18.8-11.3 9.9-5.5 19.4-10.5 28.5-15 5.2-2.6 11.7-5.3 19.6-8.2 19.7-7.2 39.7-11.9 60.2-12.9 13.5-.7 27-.9 40.5-.6 10.1.2 19.6 1 28.5 2.3 11.2 1.7 22.3 5.8 32.8 10 4.2 1.7 8.3 4.4 12.2 8.1 4.3 4 6.2 9.1 4.9 14.8-.4 1.7-1.3 2.1-2.8 1.2-11.2-6.8-23.5-11.7-37-14.7-7.4-1.7-14.2-3-20.4-3.9-3.1-.5-7-.6-11.5-.2-5.8.4-11.6.9-17.3 1.3-13.3 1-26.2 3.1-38.7 6.2-24.2 6.1-46.7 13.6-67.6 22.6-19.2 8.2-38.7 19.9-58.5 35-2.8 2.1-8.2 5.9-16.1 11.2-16.3 11-34.8 19.1-53.4 23.4-18.8 4.3-26.7 15.9-30.8 33.8-.8 3.5 1.2 6.8 5.2 5.8 6.7-1.8 5.4-8.9 7.5-13.9 3.4-7.9 9.2-12.9 17.3-14.9 9.6-2.4 19.2-4.5 28.2-8.4 12.4-5.4 23.7-11.6 34.7-19.6 6.9-5 13.8-9.3 20.5-14.2 17.9-13 35.8-23.1 53.5-30.4 21.5-9.2 42.7-16.1 63.5-21.1 11.6-2.8 22.6-4.6 33-5.4 7.2-.6 14.8-1.1 22.7-1.5 2.6-.1 5.3 0 7.9.4 26.2 4.5 51.5 11.5 69.7 32 3.4 3.9 6.5 8.5 9.2 14 .1.2.1.4-.1.5l-.2.1h-.2c-5.1-7.9-11.6-13.9-19.7-17.9-9.8-4.9-20.4-9.8-31.2-12.2-20.4-4.7-40.3-5.2-60.4-2.8-7.4.9-15.9 2.1-25.7 3.7-5.4.9-10.9 2-16 3.7-6.5 2.2-13 4-19.3 6.8-14.7 6.6-28.1 14.2-40.4 22.6-6.7 4.6-13.6 9.7-20.7 15.4-16.8 13.4-33.1 27.3-48.8 41.5-10 9-21.6 16.7-33.1 24.1-3.4 2.2-7.4 4.2-12 5.9-1.5.6-2.8.6-4.1.1-4.7-1.9-9.6-3.8-14.5-5.9-2.5-1-5.5-1.8-7.7.2-3.4 3.3-.4 7.6 3.3 9.2 12.2 5.2 24.1 9.4 35.5 12.8 3.2.9 6.3 2.2 9.3 3.4 10.6 4.4 20.9 8.6 30.9 12.8 2.5 1.1 5.5 2.1 9 3.1 15.4 4.6 29.2 8.8 41.4 12.8 9.1 2.9 17.2 4.8 24.4 5.5 7.6.8 16.1 1.5 25.2 2.2 4.7.4 10.5.2 17.3-.6 11-1.2 22.8-2.3 33.6-4.2 21.3-3.8 42.1-9.8 62.5-18 16.7-6.7 31.9-14.9 45.6-24.7 3.6-2.6 7.2-5.3 10.8-8.1 2.2-1.8 4.4-3.8 6.6-6.1.7-.7 1.7-1 2.6-.7 5.2 1.6 10.3 3.2 15.3 4.9 15.3 5.1 29.9 8.6 43.8 10.4 10.4 1.4 20.9 2.6 31.5 3.8 24.1 2.6 48.7 1.1 73.3-2.5 8.5-1.2 17-2.9 25.3-5.1 14.2-3.7 30.8-8.8 49.7-15.2 6.4-2.2 11.3-4.2 14.5-5.9 11.7-6.1 23.5-11.4 34.4-18.3 8.7-5.5 17.3-11.5 26.1-18h.3v.1c-.1 4.6-1.1 9.1-3.1 13.3-5.5 11.1-12.4 18.9-23.3 25.5-7.1 4.3-14.7 8.6-22.7 12.9-12.1 6.5-25.2 10.7-37.8 16.4-8.8 4-17.7 7.4-26.7 10.8-6.1 2.3-12.4 4.2-18.9 5.8-13 3.3-26.8 6.9-41.3 11-10.8 3-25 5.8-42.6 8.2-15.8 2.2-30.9 5.5-45.5 7.3-11.2 1.5-22 3.2-33 4.7-4 .5-8.4.8-13.3.8-8.8 0-18 .4-27.7 1.3-15.6 1.4-28.3 2.4-38.1 2.9-9.1.4-19.3.2-28.9-.3-14.9-.9-29.8-1.6-44.5-2.3-6.4-.3-12.9-.8-19.6-1.5-16.2-1.6-29.4-3.1-39.5-4.2-8.8-1-17.4-2.5-26.6-4.5-15.5-3.4-31-6.9-46.4-10.4-12.5-2.8-25.3-4.1-38-5.7-7.7-1-15.8-2.4-23.6-4-9.1-1.9-16.8-1.6-26.4 1-10.9 3-18 11-24 19.9-4.3 6.5-6.8 12.8-7.6 19.1-.8 6.9-.2 12.8 1.9 17.7.8 2 2.5 4.5 5 7.5 9.6 9.5 19 14.7 30.8 19.4 6.8 2.8 15.6 7.8 24 10.6 6.1 2.1 13.1 4.6 21.1 7.6 3.6 1.3 7.6 2.6 11.3 3.4 10.4 2.3 20.6 5 30.6 8 5.1 1.5 10 2.8 14.7 3.8 6.6 1.4 13.2 3.2 19.8 4.2 7.2 1.2 14.4 2.2 21.6 3.2 9.4 1.3 19.4 3.4 28.8 4.4 9.5 1 18.8 2.5 28.2 3.7 9.5 1.2 18.7 2 27.6 2.4 4.4.2 8.5.4 12.4.7 15.8 1.2 31.4.4 47.4.9 25.5.7 51.5.2 78-1.3 3-.2 7.1-.7 12.3-1.5 3.1-.5 6.2 0 9.3-.5 15.8-2.5 31.2-5 46.2-7.6 10.5-1.8 25.7-4.4 45.7-7.7 5-.8 14.8-3.3 29.4-7.4 7.6-2.1 14.8-3.8 22.2-5.5 3.1-.7 6.1-1.5 9.1-2.5 10.9-3.7 21.6-7.5 32.3-11.5 12.9-4.8 25.7-12.2 35.4-21.3.2-.2.4-.2.5.1l6.7 21.1c.1.3 0 .6-.3.7-9.7 3.4-19.2 6.7-28.6 10-6.7 2.4-17.5 5.6-32.6 9.8-16.4 4.5-31.7 8.9-45.9 13-18.9 5.5-40 10.4-63.4 14.8-14.2 2.6-32.3 5-48.5 8.1-10.8 2-22.5 3.7-35.2 5.2-3.6.4-7.2.6-11 .7-35 .6-69.5-.1-103.5-2.3-5.8-.4-18.7-1.4-38.6-3.1-6.4-.5-13-1.2-19.9-2-34.5-3.8-66.1-7.8-94.8-11.8-19.1-2.7-38.5-5.9-58.3-9.6-3.6-.7-7.1-1.8-10.6-2.5-4.9-.9-10-2-15.4-3.4-4.9-1.2-10-2.5-15.1-3.6-10.1-2.3-20.2-5-30.2-8.2-31.4-8.5-61.4-20.6-91.5-34.2-12-5.4-22.4-11.2-31.3-17.2-13.7-9.3-26.5-18.5-40.3-29.2-6-4.7-11.1-9.1-15.2-13.3-3.8-3.9-7.6-7.6-11.5-11.1-.2.2-.2.1-.1-.1zm329-54.6c4.2 21.5 13.3 40.2 27.2 56.3.3.3.2.4-.2.4-1.3-.2-2.6-.5-3.9-.9-14.9-4.8-30.6-9.7-47.2-14.7-2.2-.7-4.2-1.4-6-2.1-13.8-5.6-27.9-12.4-42.5-17-.4-.1-.5-.3-.1-.6 14.2-9.1 26.5-17 38-27.4 11.4-10.3 22.8-20.2 34.3-29.7.6-.5.8-.4.7.4-1.9 11.9-2.7 23.4-.3 35.3zm8.9-12.7c-.4-7.7.9-16.6 2-24.5.8-5.2 2-9.8 6.3-13 5.2-3.9 10.3-7.7 15.3-11.3.4-.3.5-.2.4.3-3.3 15.1-5 30.3-4.8 45.6.1 9.4 1.9 18.6 5.4 27.5 8.1 20.6 22.1 37.4 42.2 50.3.1 0 .1.1 0 .1-7.6-.1-14.9-.5-21.9-1.4-.9-.1-1.8-.4-2.6-.8-6.7-3.2-12.7-6.4-17.6-12.4-13.8-16.5-23.5-38.6-24.7-60.4zm48.6 6.2c.8-1.8 2.3-3.1 4-4 .2-.1.5-.2.7-.3.4-.1.8-.3 1.1-.4.7-.2 1.3-.3 2-.3s1.3 0 2 .2c.9.2 1.7.4 2.6.8 1.2.6 2.2 1.3 3.1 2.2s1.5 1.9 2 3c.4 1.1.7 2.2.7 3.4 0 1.2-.3 2.3-.8 3.4-.4.8-.9 1.6-1.5 2.2-.4.4-.8.8-1.3 1.1-.2.2-.5.3-.7.5-.5.3-1 .5-1.6.7-.8.3-1.7.4-2.6.4-1.5 0-3.1-.3-4.6-1s-2.7-1.6-3.6-2.8q-.1-.1-.2-.2c-.6-.8-1-1.6-1.4-2.5-.4-1-.6-2-.6-3.1 0-1 .2-2.2.7-3.3zm15.1-52.5-1.1-2.9c-2.3-6.3.9-13.3 7.2-15.7l2.1-.8c6.3-2.3 13.3.9 15.7 7.2l1.1 2.9c2.1 5.7-.4 12.1-5.6 14.9-.4.2-.7.4-1.1.5-.2.1-.3.1-.5.2l-1 .4-1 .4c-.8.3-1.7.5-2.5.6s-1.5.1-2.3.1c-4.9-.1-9.3-3.1-11-7.8zm11.7 76c1.2-1.3 2.8-2.1 4.5-2.4.6-.1 1.1-.1 1.7-.1s1.2.1 1.7.2c.3.1.6.1.9.2.6.2 1.1.4 1.7.7.5.3 1.1.6 1.6 1 .2.2.5.4.7.6 1.2 1.1 2 2.4 2.5 3.9.1.3.2.6.3.8.3 1.1.4 2.3.2 3.5 0 .4-.1.7-.2 1.1-.2.6-.4 1.2-.7 1.7-.2.3-.3.6-.5.9s-.5.6-.7.9c-1.2 1.3-2.8 2.1-4.5 2.4-.6.1-1.1.1-1.7.1s-1.2-.1-1.7-.2c-.6-.1-1.2-.3-1.7-.5-.3-.1-.6-.2-.8-.4-.8-.4-1.6-1-2.3-1.6l-.7-.7c-.4-.5-.8-1-1.1-1.5s-.6-1.1-.8-1.6c-1.2-3.2-.6-6.6 1.6-9zm-10.6 721.9c-2.5 1.8-4.6 3.8-7.3 5.3-6.2 3.5-10.6 5.8-13.1 6.9-6.6 2.8-15.2 5.8-25.5 8.8-5.3 1.5-9.8 2.5-13.5 2.9-7.3.8-14.8.8-22.3.7-19.7-.4-41.2-.6-64.5-.6-12.5 0-24.8-.8-36.9-2.3-13-1.6-25.7-3.1-38.2-4.4-13.6-1.4-26-8.2-36.2-16.5-6.1-4.9-11.5-13.2-14.5-20.3-1.9-4.7 3.7-15.5 7.6-18.4 3.5-2.6 7.7-5.2 12.6-7.7.6-.3 1.3-.4 1.9-.2 6 1.8 12.2 3.6 18.6 5.2 18.5 4.7 36.5 9.1 54 13.1 8.3 1.9 16.8 3.6 25.2 5.1 21.7 3.7 42.5 7.2 62.3 10.7 6.7 1.2 13.4 2.2 20 3.1 23.9 3.2 47 5.8 69.5 7.8.8 0 .9.3.3.8zm347.7-36.5c6.4 4 11.3 9.1 14.7 15.3 1.5 2.8.3 6.4-1.3 8.9-6.1 9.3-14.3 14.1-24.6 17.8-10.8 3.8-21.7 7.9-32.4 10.8-12 3.3-24.7 5.8-38 7.5-6 .8-12.6 1.4-20 1.9-17.6 1.1-34.8 3.7-52.9 2.6-5.5-.4-11.7-1-18.7-2-8.8-1.2-17.9-2.8-25.9-6.8-5.3-2.6-10.2-5.5-14.8-8.4-4.9-3.2-8.6-7.8-11.2-13.8-.1-.3 0-.5.3-.5 1.7 0 3.4-.1 5.1-.3 29.7-2.9 59.4-6.7 88.9-11.5 6.7-1.1 13.2-2.4 19.6-3.9 4.7-1.1 9.3-2.1 14-2.8 3.4-.6 7.2-1.6 11.3-2.9 9.3-3.1 18.9-6.2 28.9-9.2 7.5-2.2 20-6.6 37.5-13.1.3-.1.5-.1.8.1 6.3 3.2 12.5 6.4 18.7 10.3zm141.1-239.7c-.4 3.5-.6 7.1-.8 10.8-.4 7.8-1.5 17.1-3.2 28.1-1.6 9.9-3.2 19.3-4.7 28.2-1.1 6.3-3.8 11.6-5.3 17.6-1.3 5.2-3.1 10.9-5.4 17-3.4 9.1-6.4 16.4-9 21.9-3.2 6.8-8 13.7-14.5 20.8-7.3 7.9-13.6 14.3-19 19.1-7.3 6.6-17 13.2-25.8 18.4-25.9 15.5-52.3 28.3-79.3 38.5-20.9 7.9-41 14-61.7 20.4-6 1.9-12.3 3.5-18.8 4.8-8.6 1.7-16.9 3.8-25.8 5.2-49.4 7.9-98.8 13.2-148.3 15.8-8.9.5-17.9-.1-26.7 0-10.1.1-16.6.1-19.6-.1-30.4-2.1-63.7-5.7-99.9-11-5.7-.8-12.3-1.9-19.7-3.2-27.1-4.8-54.9-8.8-81.9-15.1-20.1-4.7-37.8-9.1-53-13.2-7.8-2-15.6-4.3-23.3-6.9-8.5-2.9-16.9-5.8-25.2-8.8-4.5-1.6-10.5-4.4-18-8.3-5.5-2.9-11-6.1-16.7-9.6-9.5-5.9-19.2-11.9-29.2-17.9-6.1-3.6-11.8-8.2-17.2-13-6.1-5.4-12.3-11-18.7-16.9-2.2-2-4.2-4-6-6.1-9.7-11.3-19.3-23.7-28.8-37.1-9.6-13.6-17.7-28.2-24.3-43.7-5.3-12.5-8.5-25.8-11.3-39.1-.9-4.2-1.1-8.5-1.8-12.7-4.7-27-7.8-54.1-9.4-81.4-.7-11.1-.5-22.9-.5-34.3-.1-20.5.8-40.9 3.2-61.2 1.8-14.9 3.5-29.9 5.2-44.8 1.2-10.6 2.9-20.8 4.7-31.2.7-3.9 1.5-7.7 2.4-11.6 1.2-5 1.9-10.2 3.3-15.2 3.8-13.4 7.4-26.6 11-40.7 2.7-10.9 5.4-20.5 8.2-29 1.8-5.4 3.5-10.9 5.2-16.3 3.9-12.1 8.6-24.1 13.4-36 0-.1.1-.1.1-.1s.1 0 .1-.1h.4c.1 0 .1.1.1.1 7.4 7.4 13.8 14.3 22.6 21.2 11.2 8.6 22.5 17 33.9 25.1 12.8 9 25.7 16.6 38.8 22.7 21.1 9.8 41.7 18.3 61.8 25.5 14.5 5.2 30.2 9.5 45.4 14 6.4 1.9 12.8 3.6 18.9 5 10 2.2 20 4.6 30.1 7 2.4.6 4.5 1.4 6.9 1.8 19.9 3.4 39.9 7.2 59.9 9.9 34.4 4.8 69.1 9.1 104.1 12.9 17.5 1.9 37.9 3.6 61.2 5 17 1 39.9 1.8 68.7 2.3 9.7.2 19.6-.2 29.3-.5 5.5-.2 11.5-.5 17-1.4 3.4-.5 6.8-.9 10.3-1 4.4-.1 8.4-1.2 12.8-2.2 8-1.8 15.9-3.2 23.8-4.2 6.8-.9 13.3-1.9 19.7-3 9.7-1.8 19.7-3.5 29.6-5.6 11.5-2.5 22.1-5.1 31.9-7.6 11.4-3 37-10.2 76.6-21.6 15.3-4.4 30-10 45-15.2.3-.1.6 0 .7.4 3.6 13.3 7.6 26.9 10.6 39.7 4.8 20.5 9 41.4 12.7 62.7 6.6 38 12.5 74.8 17.7 110.5.6 3.9 1.8 13.5 3.6 28.8 1.8 15 2.7 33.4 2.7 55.3-.3 3.2-.5 6.7-.8 10.4zm29.6 4.8c-1.2 6.6-5.2 18.5-11.1 22-3.2 1.9-6.7 3.7-10.5 5.5-.5.2-.7.1-.6-.4 1.5-9.8 2.3-19.4 2.6-28.6 0-.8.5-1.6 1.2-2 7.5-4.3 14.1-10.1 19.6-17.1.6-.8.9-.7.9.3-.2 6.8-.9 13.5-2.1 20.3zm.8-40.2c-1.6 2.8-3.2 5.7-4.9 8.7-3.4 6-8.8 11.1-14.1 15.8-.5.4-.7.3-.7-.3.3-19.4-.7-38.5-2.8-57.4-2-17.3-4.7-36.7-8-58.1-4-25.2-8-50.1-12.2-74.7-2.3-13.6-4.9-27.4-7.8-41.3-1.5-7.2-2.9-14.3-4.1-21.2-.3-1.8 0-1.9.9-.4 3.8 6.1 7.1 12.5 9.9 19 11.6 27 20.7 53.9 27.5 80.8 4.7 18.7 8.7 37.5 12 56.4 3.6 20.7 4.5 41.9 5.7 62.6.2 3.6.3 7-1.4 10.1z"/><path d="m676 80c-.3.1-.6.2-.9.2-.6-.1-1.1 0-1.6.3-.4.2-.4.4 0 .6l18.8 10.8c9.3-4.5 19.3-9 29.3-12.1 2.4-.8 5.3-1.9 8.7-3.3 10.3-4.4 22.5-6.9 34.1-9.1 4.2-.8 8.1-2.3 12.1-3.1 7.2-1.5 15.4-2.7 24.3-3.6 13.4-1.3 26.2-2.1 38.5-2.6 1.3 0 1.4-.4.3-1.1-4.9-3.1-10.3-4.4-15.6-6.6-8.1-3.3-18-4.3-26.1-3.8-10.9.7-22.2 2-33.7 4-6.8 1.2-13.4 3.1-20.1 4.7-5.9 1.4-12.4 3.6-17.5 5.4-16.6 6.1-33.3 12.1-50 17.9.2.6 0 1.1-.6 1.4z" fill="#7f6503"/><path d="m785.3 72.9c-3.9.7-8.1 2.1-11.8 3.1-1.3.4-4.2.9-8.8 1.5-3.4.5-8.2 1.5-14.5 3.1-4.7 1.2-9.4 2.6-14.2 4.3-10.8 3.9-21.4 8-32 12.5 2.7 1.7 5 3.1 7 4 12.5 5.9 26.6 10.1 41 11.8 15.2 1.9 29.1 2.4 41.6 1.6 18.3-1.2 37.1-5.3 56.2-12.2 14.9-5.4 28.3-13.4 40.5-23.3 2.7-2.2 5.1-4.8 7.3-7.8-13.5-1.7-22.2-2.6-26-2.9-14.6-1.1-34.7-.8-60.1 1.1-10.9 1-19.6 2-26.2 3.2z" fill="#816400"/><path d="m890.2 79.5c-12.2 9.9-25.6 17.9-40.5 23.3-19.2 7-37.9 11-56.2 12.2-12.5.8-26.3.3-41.6-1.6-14.4-1.8-28.4-5.9-41-11.8-2-.9-4.3-2.3-7-4-12 5.6-21.8 10.5-29.4 14.8-3.8 2.1-8.1 5.1-12.9 8.9-.3.3-.3.4.1.5 7.3 1.4 15.1 3.7 23.4 6.6 10.2 3.7 17.1 6.6 25 14.1 5.1 4.8 7.8 10.3 8.1 16.4.2 4.8.4 9.4-3.2 13.1-.3.3-.3.7 0 1 7.7 6.5 13.7 13.3 17.9 20.4 3.6 6.1 7.1 13.4 10.3 21.8.2.4.4.5.7.1 6.7-7.8 15.6-15.8 26.9-23.9 15.1-10.9 26.8-18.8 34.9-23.8 5.6-3.5 14-7.7 25-12.9 20.1-9.3 38.2-16.8 54.4-22.4 5-1.7 10-3 14.9-4 8-1.5 16.3-2.8 24.7-4 7.9-1.1 16.1-.3 24 .1 13.3.6 28.7 3.2 39.8 6.1 3.9 1 7.8 2.1 11.8 3.2 7.5 2 14.6 4.8 21.8 7.5 11.7 4.4 21.3 11.1 30 19.8.8.8 1.9 1.5 3.2 2.2.1 0 .2.1.3.1h.4q.1 0 .2-.1c.1 0 .1-.1.1-.1l.1-.1.1-.1c0-.1.1-.2.1-.3 1.6-7.9-3.7-15.8-10.1-20.1-6.6-4.4-14.5-9.1-23.9-14-2.8-1.4-5.9-2.6-9.4-3.5-4.9-1.3-9.9-2.7-14.9-4.2-4.7-1.5-9.6-2.2-14.4-2.9-3.2-.4-6.8-1.2-11-2.2-7-1.7-14.5-2.6-22.6-2.6-13.8-.1-28.1.8-42.8 2.8-17.4 2.3-34.2 6.4-51.3 10.7-11.7 3-23 8.1-34.3 12.2-5.6 2.1-10.9 4.3-16 6.8-16.8 8.1-32.4 15.8-48.2 25.9-5.9 3.8-10.8-3.1-5.8-7.9 2.1-2 4.8-3.9 8.1-5.8 11.3-6.5 23.4-12.9 36.4-19.2s26.2-11.1 39-16.2c6.3-2.5 12.7-4.5 19.1-6.1 11.2-2.8 21.9-5.3 31.9-7.4 16.4-3.4 34-5.5 52.8-6.2 12.2-.4 23.3.2 33.5 2.1 8 1.5 16.3 3.1 24.7 5 2.9.6 5.9 1.4 8.7 2.4 6.8 2.4 13.5 3.8 20.2 4.4 1.4.1 1.5-.2.5-1.1-10.6-8.6-21.6-13.7-35.7-19.9-7.2-3.2-15.2-6.2-22.4-7.8-23.4-5.3-45.3-12.6-71.1-16.3-2.2 3.2-4.7 5.8-7.4 8z" fill="#838839"/><path d="m1055.6 163.4s.1 0 0 0c0 0-.1 0-.2-.1.1.1.2.1.2.1z" fill="#838839"/><path d="m1056.3 163.3-.1.1c0-.1.1-.1.1-.1z" fill="#838839"/><path d="m1056.6 163c0 .1-.1.1-.1.1z" fill="#838839"/><path d="m363.7 143.8c6.8-5.8 13.7-10.7 21.3-15.2 15.4-9.2 32.9-18 52.6-26.2 13.5-5.7 27.7-9.7 42.6-12.2 16.1-2.6 31.7-3.8 46.6-3.6 7.5.1 20.1 1.4 38 3.9.6-2 1.8-4.1 3.6-6.3-13.6-3.6-27.3-6.1-41.1-7.7-16-1.8-31.8-1.6-47.6-.2-5.3.5-11 1.3-17.1 2.5-10.3 2-20.9 4.4-31.8 7.2-33.2 8.3-64.6 21.4-94.3 39.2-3.6 2.1-11.5 7.3-23.9 15.5 9.7 8.8 20.9 14.8 33.6 17.9 5.3-5.5 11.8-9.9 17.5-14.8z" fill="#806401"/><path d="m578 93.1c10.1 3.2 20.3 7.6 30.4 13 4.8 2.6 9.1 5.8 13.6 8.9 3 2.1 6.4 3.6 10 3.8 5.8.4 11.5.7 17.1 1.1.2 0 .4-.1.5-.3.7-1.4 1.6-2.7 2.9-3.9 11.4-10.6 25.7-17.1 39.8-24l-18.9-10.7c-.4-.2-.3-.4 0-.6.5-.2 1.1-.3 1.6-.3.3 0 .6 0 .9-.2.6-.3.8-.8.6-1.4-18.7 7.1-37.7 13.3-57 18.7-2.6.7-4.3 3-7.1 3.2-1.7.1-3.1-.1-4.3-.8-12.9-7.7-26.2-12.9-39.8-15.5-1.8 2.1-3 4.2-3.6 6.3 5.3.7 9.8 1.6 13.3 2.7z" fill="#82883b"/><path d="m386.5 166.7c4.5.5 13.5.6 27.1.3 5.5-.1 12.4-1 20.7-2.5 5.6-1 12-2.6 19.4-4.8 11.9-3.5 24-7.3 36.4-11.3l23.5-11c-.3-.2-.4-.3-.5-.4-.2-.4-.1-.8.3-1.1 5.2-3.9 10.3-7.6 15.4-11.3 8.2-5.9 17.4-14.2 27.6-24.9-5.8-.7-11.6-1.3-17.3-1.8-20.5-2-40.4-.5-61.6 3.2-16.1 2.9-31.1 8.4-47.2 15.7-11.2 5.1-21.3 10.2-30.6 15.3-10.9 6-18.9 11.1-23.9 15.2-5.6 4.6-11.5 9.4-17.5 14.4 4.6 1.7 8.1 2.7 10.6 2.9 5.8.7 11.7 1.4 17.6 2.1z" fill="#816400"/><path d="m528.7 124.7c-5.1 3.7-10.2 7.4-15.4 11.3-.4.3-.5.6-.3 1.1 0 .1.2.2.5.4 11.8-5.5 23.9-10.1 36.8-12.5 9.5-1.7 18.2-3.8 28.2-4.4 2.8-.2 5.5-.9 8.4-1 5.4-.2 10.9-.4 16.4-.7 1.7-.1 3.4.2 5.1.2 1.9 0 2-.4.3-1.2-7.7-4.1-16-8-24.7-11.5-8.9-3.7-18.2-5.8-27.7-6.6-10.3 10.6-19.5 18.9-27.6 24.9z" fill="#838839"/><path d="m167.5 345.1c4.1 4.2 9.1 8.6 15.2 13.3 13.8 10.7 26.6 19.9 40.3 29.2 8.9 6 19.3 11.8 31.3 17.2 30 13.6 60 25.8 91.5 34.2.3-.9 0-1.6-1.1-2.2-.4-.2-.5-.5-.4-.9 1.2-5.4 3.7-11.1 4.9-16.7.4-2 .9-5.1 1.3-9.2.5-4.4 1.1-8.9 2-13.5-2.5-3-4.2-5.5-5-7.5-2.1-4.9-2.7-10.8-1.9-17.7.7-6.3 3.3-12.7 7.6-19.1 6-9 13.1-16.9 24-19.9 9.5-2.6 17.3-2.9 26.4-1 7.7 1.6 15.8 3 23.6 4 12.7 1.7 25.5 2.9 38 5.7 15.4 3.5 30.8 6.9 46.4 10.4 9.2 2 17.8 3.5 26.6 4.5 10.1 1.2 23.3 2.6 39.5 4.2 6.7.7 13.2 1.2 19.6 1.5 14.8.7 29.6 1.5 44.5 2.3 9.7.5 19.8.8 28.9.3 9.9-.5 22.6-1.5 38.1-2.9 9.7-.9 18.9-1.3 27.7-1.3 4.9 0 9.3-.2 13.3-.8 11-1.4 21.8-3.2 33-4.7 14.6-1.9 29.6-5.1 45.5-7.3 17.6-2.4 31.8-5.2 42.6-8.2 14.6-4.1 28.4-7.7 41.3-11 6.5-1.6 12.8-3.6 18.9-5.8 9-3.3 17.9-6.8 26.7-10.8 12.5-5.7 25.7-9.9 37.8-16.4 8-4.3 15.6-8.6 22.7-12.9 10.9-6.6 17.8-14.4 23.3-25.5 2.1-4.2 3-8.7 3.1-13.3v-.1h-.3c-8.7 6.5-17.4 12.5-26.1 18-11 6.9-22.8 12.2-34.4 18.3-3.3 1.7-8.1 3.7-14.5 5.9-18.9 6.5-35.4 11.5-49.7 15.2-8.3 2.1-16.7 3.8-25.3 5.1-24.6 3.5-49.2 5.1-73.3 2.5-10.6-1.2-21.1-2.4-31.5-3.8-13.9-1.8-28.5-5.3-43.8-10.4-5.1-1.7-10.2-3.3-15.3-4.9-.9-.3-1.9 0-2.6.7-2.2 2.3-4.4 4.4-6.6 6.1-3.5 2.8-7.1 5.5-10.8 8.1-13.7 9.8-28.9 18-45.6 24.7-20.4 8.2-41.3 14.2-62.5 18-10.8 1.9-22.6 3-33.6 4.2-6.8.7-12.6.9-17.3.6-9.2-.7-17.6-1.4-25.2-2.2-7.2-.7-15.3-2.5-24.4-5.5-12.2-4-26-8.3-41.4-12.8-3.5-1-6.5-2.1-9-3.1-10-4.2-20.3-8.5-30.9-12.8-3-1.2-6.2-2.5-9.3-3.4-11.5-3.3-23.3-7.6-35.5-12.8-3.7-1.6-6.8-5.8-3.3-9.2 2.1-2.1 5.2-1.3 7.7-.2 5 2.1 9.8 4 14.5 5.9 1.3.5 2.6.5 4.1-.1 4.6-1.7 8.6-3.7 12-5.9 11.5-7.4 23.1-15.1 33.1-24.1 15.7-14.2 32-28.1 48.8-41.5 7.1-5.7 14-10.8 20.7-15.4 12.3-8.5 25.7-16 40.4-22.6 6.3-2.9 12.8-4.6 19.3-6.8 5.1-1.7 10.6-2.9 16-3.7 9.8-1.6 18.4-2.8 25.7-3.7 20.1-2.4 40-1.8 60.4 2.8 10.8 2.5 21.4 7.3 31.2 12.2 8.1 4.1 14.6 10 19.7 17.9 0 .1.1.1.2 0l.2-.1c.2-.1.3-.3.1-.5-2.7-5.4-5.7-10.1-9.2-14-18.1-20.5-43.4-27.5-69.7-32-2.6-.4-5.3-.6-7.9-.4-7.9.4-15.5 1-22.7 1.5-10.4.8-21.4 2.6-33 5.4-20.9 5-42.1 11.9-63.5 20.7-17.7 7.2-35.5 17.4-53.5 30.4-6.7 4.8-13.6 9.2-20.5 14.2-11 8-22.4 14.2-34.7 19.6-9 3.9-18.6 6-28.2 8.4-8.2 2-14 7-17.3 14.9-2.1 5-.9 12.1-7.5 13.9-4 1-6-2.3-5.2-5.8 4.1-17.8 12-29.5 30.8-33.8 18.6-4.2 37.1-12.4 53.4-23.4 8-5.4 13.3-9.1 16.1-11.2 19.8-15.1 39.3-26.8 58.5-35 20.9-9 43.5-16.5 67.6-22.6 12.5-3.2 25.4-5.2 38.7-6.2 5.7-.4 11.5-.8 17.3-1.3 4.5-.3 8.3-.2 11.5.2 6.2 1 13 2.3 20.4 3.9 13.5 3 25.8 7.9 37 14.7 1.5.9 2.4.5 2.8-1.2 1.3-5.7-.6-10.8-4.9-14.8-4-3.7-8.1-6.4-12.2-8.1-10.6-4.2-21.7-8.3-32.8-10-8.9-1.3-18.4-2.1-28.5-2.3-13.5-.3-27-.1-40.5.6-20.5 1-40.5 5.7-60.2 12.9-7.9 2.9-14.4 5.6-19.6 8.2-9.1 4.5-18.6 9.5-28.5 15-7.8 4.3-14 8.1-18.8 11.3-11.6 8-22.8 15.4-33.7 22.2-9.3 5.8-19.3 11-29.1 16.2-5.9 3-12.4 5.9-19.8 8.4-6.5 2.3-13.5 3.5-20.8 3.8-1.7.1-3.3 0-4.7-.3-2.9-.5-6.8-3.4-5.1-6.8 1.2-2.4 3.7-3.1 6.2-3.1 12.4 0 22.8-3.1 33.5-8 11.2-5.2 21.1-10.4 29.8-15.9 9.6-6 21.2-13.7 34.7-23.1 7.4-5.1 13.5-8.9 18.5-11.6 7.8-4 14-7.7 18.7-10.8-12.3 4-24.4 7.7-36.4 11.3-7.3 2.2-13.8 3.8-19.4 4.8-8.3 1.5-15.2 2.4-20.7 2.5-13.5.3-22.6.2-27.1-.3-5.9-.7-11.8-1.4-17.7-2-2.5-.2-6.1-1.2-10.6-2.9-3.7 2.9-7 6.3-10.1 10.3-2.2 2.8-4.4 4.9-8 2.9-1.8-1-2.6-2.6-2.5-4.7.1-1.2.7-2.5 2-4.2 2.1-2.7 4.3-5.2 6.6-7.5-12.7-3.1-23.9-9.1-33.6-17.9l-31.4 26.9c.6 1.9 1.1 3.7 1.6 5.5s.9 3.7 1.2 5.6c.9 6 1.6 11.5 2 16.4.5 6.1.3 13.4-.6 21.9-.9 9.3-3.2 18.5-6.8 27.6-1.8 4.5-4.3 8.6-6.3 13.1-.8 1.9-2 3.7-3.3 5.3-1.4 1.7-2.6 3.5-3.6 5.3-.5.9-1.2 1.8-1.9 2.6-.5.5-.9 1.1-1.2 1.9-.2.6-.6 1.3-1 1.9-6.1 9.1-14.1 16.5-23.8 22.3-9.1 5.4-18 10.7-28.5 13.7-14.2 4.1-28.7 4.9-43.6 2.5l-9.4 20.5c-.1.1 0 .3.1.4 3.9 3.2 7.7 6.9 11.5 10.8zm173.5-38.6c3.5-1.8 8.5-3.9 15-6.2 3.7-1.3 7.7-2.3 9.2 2.6 1.1 3.6-1.5 5.8-4.6 6.9-8.1 2.8-15.9 5.4-22.3 11.3-9.7 9-18.1 20.6-19.7 34-1.7 14.5-.7 29.9 4.8 43.5 1.3 3.4.5 5.8-2.4 7.3-3.4 1.6-6.1-.8-7.4-3.9-2.1-4.9-3.7-10.8-4.7-17.9-1.6-10.9-1.7-21.4-.3-31.5 1.8-12.9 8.3-23.3 17-33.2 5.1-5.9 10.3-10.1 15.4-12.9zm-108.7 49.5c1.7-7 3.6-13.6 6.2-20.5 4.3-11.5 8.4-21.8 12.1-30.9 6-14.4 13.6-28.4 22.9-42 5.5-8.1 11.3-15.4 17.5-21.7 3.3-3.4 7.4-7.2 12.2-11.2 7.7-6.3 23.2-11.5 29.5-.9 4.7 7.8 4.9 16.1 3.5 24.9-1.6 10.4-3.3 19.8-5 28.1-2.4 11.4-5.8 20.1-10.9 32.1-9.4 22.2-24.4 42-39.8 60.2-3.2 3.8-7.8 7.8-13.8 12-4 2.8-8 4.5-12.1 5-8.4 1.1-18-3.8-21.4-12-3.3-7.7-2.9-15.1-.9-23.1z" fill="#838839"/><path d="m996.2 261.5h.1c.2-.1.5-.2.7-.3 6-3.1 11.6-6.2 16.6-9.5 1.6-1 2.8-2.4 3.6-4.1 2.4-5.4 4.6-10.6 6.5-15.8 4.7-12.9 5.5-26.6 2.4-40.9-3.2-14.7-8.4-28.8-18.9-39.5-6.6-6.8-14.3-9.4-23.5-11.3-.7-.1-.8 0-.3.5 7.7 8.1 14.3 17.6 20 28.5 5.3 10.2 9.9 22.1 9.7 33.2-.3 15.6-3.7 30.7-10.2 45.4-2 4.6-4.2 9.1-6.7 13.5v.2q-.1.1 0 .1z" fill="#b99404"/><path d="m975.7 163.1c-3.8-3.2-7.9-7-12.3-9-5.3-2.5-11.3-3.2-18-2.2-9.9 1.6-16.6 12.5-17.8 21.5-.7 4.9-.3 10.5 1.1 16.7 1.2 5.6 5.1 11.3 8.5 16.3 6.8 9.9 20.2 17.3 32.4 13.8 8.5-2.4 14.3-7 17.5-13.8 3.5-7.4 5.1-16.1 2.4-23.5-2.5-6.3-8.2-15.1-13.8-19.8z" fill="#fff"/><path d="m1022 152.4c-.5-.2-.6-.1-.3.3 9.8 14.5 15.2 33.1 16.5 50.7.9 12.1-1.8 24.9-6.3 35.8-.1.2 0 .2.1.1 2.9-2 5.9-4.2 8.9-6.5 8.2-6.3 12.9-14.2 16.9-24.1 1.3-3.2 1.8-7 1.6-11.3-1-20.7-19.3-36.9-37.4-45z" fill="#fff"/><path d="m891.2 164.6c-3.4-3.6-8.5-5.6-13.9-4.9-8.6 1.2-14.6 9-13.4 17.4 1.1 7.9 8.2 13.4 16.1 13.1.5 0 1.1-.1 1.6-.1.7-.1 1.4-.3 2-.4.9-.2 1.7-.5 2.5-.9.9-.4 1.8-1 2.6-1.5 4.1-3 6.6-7.8 6.4-12.9 0-.5-.1-1-.1-1.6-.2-1.3-.5-2.5-1-3.6-.6-1.8-1.6-3.3-2.8-4.6z" fill="#fff"/><path d="m880.1 190.2c.5 0 1.1-.1 1.6-.1.7-.1 1.4-.3 2-.4-.7.2-1.3.3-2 .4-.6 0-1.1.1-1.6.1z" fill="#fff"/><path d="m895.2 174.2c0-.5-.1-1-.1-1.6 0 .6.1 1.1.1 1.6z" fill="#fff"/><path d="m891.2 164.6c1.2 1.3 2.2 2.8 2.9 4.5-.7-1.7-1.7-3.2-2.9-4.5z" fill="#fff"/><path d="m844.3 296.2c2.8 1.9 5.1 2.9 7 2.8 5.4-.2 11-.4 16.8-.7 1-.1 1.1-.4.3-1-6-4.3-12.1-8.9-16.9-14.3-17.9-20-28.4-44-29.7-70.5-.5-10.6.4-20 2.9-28.2 2-6.5 4.2-12.4 6.7-17.7.3-.6.1-.8-.5-.5-5.4 2.6-10.9 5.5-16.6 8.5-2.1 1.1-3.3 2.8-4 5-2 6-3.8 12.5-5.2 19.5-2.4 11.9-2.1 22.1.6 33.6 3 13 8.8 26.9 15.3 38.3 5.6 9.9 13.4 18.4 23.3 25.2z" fill="#b99404"/><path d="m209 310.5c10.5-3 19.4-8.3 28.5-13.7 9.7-5.8 17.6-13.2 23.8-22.3.4-.6.7-1.2 1-1.9.3-.8.7-1.4 1.2-1.9.8-.8 1.4-1.7 1.9-2.6 1-1.8 2.2-3.6 3.6-5.3 1.4-1.6 2.5-3.4 3.3-5.3 2-4.6 4.5-8.6 6.3-13.1 3.6-9 5.9-18.2 6.8-27.6.9-8.5 1.1-15.8.6-21.9-.4-4.9-1-10.4-2-16.4-.3-1.9-.7-3.8-1.2-5.6s-1.1-3.6-1.6-5.5c-15.3 13.7-29.7 28.4-43.2 43.9-5.4 6.3-10.5 12.7-15.3 19.4-8.7 12.1-18 22.9-26.6 35.4-5.6 8.1-11.2 16-16.8 23.7-3.3 4.6-8 12.3-13.9 23 14.9 2.7 29.4 1.8 43.6-2.3z" fill="#816400"/><path d="m682 309.2q.1 0 0 0l.1.1h.2l15.2-9c.8-.5 1.3-1.1 1.6-2 2.2-7.6 5.7-14.8 7-22.6 1.7-10 2.3-19.5 1.7-28.3-1.3-20.8-8.3-39.1-21-55-2.9-3.7-6.3-6.1-10-7.2-5.6-1.6-11.9-3-18.9-3.9-.5-.1-.6.1-.2.4 5.8 5 11.1 11.1 15.8 18.4 4.8 7.4 8.5 14.1 11 20 3.4 8 5.8 17.9 7 29.6 1 9.3.8 17.8-.5 25.6-1.9 11.1-4.3 22.2-8.8 33-.1.3-.2.6-.4.8v.2q.2-.2.2-.1c0-.1 0 0 0 0z" fill="#b99404"/><path d="m682 309.1v-.2q-.1.1 0 .2z" fill="#b99404"/><path d="m735.9 279.8c8.7 2.9 16.9 5.5 24.7 7.8 21.7 6.4 44.8 8.2 67.9 10.9 1.9.2 2.1-.2.6-1.4-1.8-1.3-3.6-3-5.3-4.9-4.8-5.3-8.8-10.7-12-16.4-7.5-13.5-14.1-29.6-17-44.5-1.8-9.2-2.2-18-1.1-26.3.8-6.2 2.1-12.4 3.8-18.8.2-.6 0-.7-.5-.4-8.1 5.6-16.2 11.4-24.3 17.3-8.9 6.5-17.1 14.3-24.5 23.5-.9 1.1-2.1 1.7-3.8 1.8-.4 0-.6.3-.5.7 3.8 15.9-.1 35.7-8.3 50-.2.3-.1.6.3.7z" fill="#fff"/><path d="m714.7 286.9c2.2-1.1 4.2-2.7 6.1-4.8 10.3-11.7 14.8-28.5 14-44-.9-16.3-12.7-22.6-21.8-33.8-2.8-3.4-6.1-6.2-10.1-8.4-.6-.3-.7-.2-.4.4 1.8 3.3 3.7 6.5 5.3 9.9 11.8 25 13.6 53.6 6.3 80.3-.1.5.1.7.6.4z" fill="#fff"/><path d="m641.2 197c-9.8-1.4-23.1.8-29.6 9.1-2.4 3-3.8 6.2-4.2 9.4-3.3 24.6 10 48.2 35.1 53.4 5.5 1.2 11.4-.9 16.7-3 12.1-4.8 13.6-13.1 14.1-24.9.4-9.4-1.8-18-7.3-25.7-5.6-7.5-15.1-16.9-24.8-18.3z" fill="#fff"/><path d="m582.5 210.6-1.1-2.9c-2.3-6.3-9.3-9.5-15.7-7.2l-2.1.8c-6.3 2.3-9.5 9.3-7.2 15.7l1.1 2.9c1.8 4.7 6.1 7.7 10.9 8 .7 0 1.5 0 2.3-.1s1.7-.3 2.5-.6l1-.4 1-.4c.2-.1.3-.1.5-.2.4-.2.8-.3 1.1-.5 5.4-3 7.8-9.3 5.7-15.1z" fill="#fff"/><path d="m570.7 227.7c.8-.1 1.7-.3 2.5-.6l1-.4-1 .4c-.8.3-1.6.5-2.5.6z" fill="#fff"/><path d="m576.9 225.6c-.4.2-.7.4-1.1.5.4-.2.8-.3 1.1-.5z" fill="#fff"/><path d="m875 233.4c5.2-.9 8.7-6.2 7.7-11.9-.1-.7-.3-1.4-.5-2.1-.8-2.2-2.2-4-4-5.2-.2-.1-.4-.2-.6-.4-1.8-1.1-3.9-1.5-6-1.2-4.6.7-7.8 4.9-7.9 9.8 0 .7 0 1.4.2 2.1s.3 1.4.5 2.1c.6 1.6 1.5 3.1 2.7 4.2.3.3.6.5 1 .8 1.9 1.5 4.3 2.2 6.9 1.8z" fill="#fff"/><path d="m863.7 222.5c0 .7 0 1.4.2 2.1s.3 1.4.5 2.1c-.2-.7-.4-1.3-.5-2.1s-.2-1.4-.2-2.1z" fill="#fff"/><path d="m868 231.6c-.3-.2-.7-.5-1-.8.4.3.7.6 1 .8z" fill="#fff"/><path d="m877.6 213.9c.2.1.4.2.6.4-.2-.2-.4-.3-.6-.4z" fill="#fff"/><path d="m536.2 339c.8.4 1.7.6 2.6.8 7 .8 14.3 1.3 21.9 1.4q.1 0 0-.1c-20-13-34.1-29.8-42.2-50.3-3.5-8.9-5.3-18.1-5.4-27.5-.1-15.3 1.5-30.4 4.8-45.6.1-.5 0-.6-.4-.3-5 3.6-10.1 7.4-15.3 11.3-4.3 3.2-5.6 7.8-6.3 13-1.1 7.9-2.5 16.8-2 24.5 1.2 21.8 10.9 43.9 24.6 60.4 5 6 11 9.2 17.7 12.4z" fill="#b99404"/><path d="m254.5 391.1c4.1-.5 8.1-2.2 12.1-5 6-4.2 10.6-8.2 13.8-12 15.4-18.1 30.5-38 39.8-60.2 5.1-12 8.5-20.8 10.9-32.1 1.7-8.3 3.4-17.7 5-28.1 1.4-8.9 1.2-17.1-3.5-24.9-6.3-10.6-21.9-5.4-29.5.9-4.8 4-8.9 7.7-12.2 11.2-6.1 6.4-12 13.6-17.5 21.7-9.2 13.6-16.9 27.6-22.9 42-3.8 9.1-7.8 19.4-12.1 30.9-2.6 6.9-4.5 13.5-6.2 20.5-1.9 8-2.3 15.4.9 23.1 3.4 8.2 13 13.1 21.4 12zm-12.8-29.8c1.5-7.3 3.3-13.7 5.4-19.2 3.4-8.9 6.9-18.2 10.7-27.8 6.5-16.8 14.7-32.1 24.6-46.7 7.8-11.5 17.2-21.7 28-30.5 2.8-2.2 12.2-6.9 14.3-1.6 1.8 4.6 2.4 9.4 1.7 14.3-1.7 12-3.8 23.2-6.1 33.7-2.3 10.2-6.7 20.3-10.9 29.8-5.5 12.5-13.5 24.8-21.9 35.7-7.2 9.5-12.6 16.1-16.2 19.9-3.4 3.7-7.8 7.1-13 10.3-2 1.2-4.7 1.7-7.1 1.5-10.1-.9-11.1-11.4-9.5-19.4z"/><path d="m251.2 380.8c2.3.2 5.1-.3 7.1-1.5 5.2-3.2 9.5-6.6 13-10.3 3.6-3.8 8.9-10.4 16.2-19.9 8.3-10.9 16.3-23.2 21.9-35.7 4.2-9.5 8.6-19.6 10.9-29.8 2.4-10.5 4.4-21.7 6.1-33.7.7-4.9.1-9.6-1.7-14.3-2.1-5.3-11.5-.6-14.3 1.6-10.9 8.8-20.2 18.9-28 30.5-9.9 14.6-18.1 29.9-24.6 46.7-3.7 9.6-7.3 18.9-10.7 27.8-2.1 5.4-3.9 11.8-5.4 19.2-1.6 7.9-.6 18.4 9.5 19.4zm4.3-30.6c.4-4 1.3-7.9 2.6-11.7 1.6-4.4 3-8.9 5-13.3 8.7-19.2 19-38.4 31-57.5 2.2-3.5 5.1-7.1 8.2-9.7 2.6-2.2 5.4-2.5 8.4-1 7 3.4 4.7 14.7 2.3 20.5-2.5 6.2-5.7 12-8.6 18.1-6.6 13.8-13.7 27.7-21.4 41.6-3.8 6.8-7.5 12.5-11.3 17.1-2.9 3.6-8 6.4-12.2 3.7-3-1.8-4.3-4.4-4-7.8z" fill="#82883b"/><path d="m484.6 243.1c-11.5 9.5-22.9 19.5-34.3 29.7-11.6 10.4-23.8 18.3-38 27.4-.4.2-.4.4.1.6 14.6 4.5 28.7 11.3 42.5 17 1.9.8 3.9 1.5 6 2.1 16.6 5.1 32.3 10 47.2 14.7 1.3.4 2.6.7 3.9.9.4.1.5 0 .2-.4-13.9-16.1-23-34.8-27.2-56.3-2.4-12-1.6-23.4.3-35.4.1-.7-.1-.8-.7-.3z" fill="#fff"/><path d="m896.1 263.5c5.1-2.1 7.4-8.2 5.2-13.6s-8.1-8.2-13.2-6.1-7.4 8.2-5.2 13.6c1.1 2.7 3.1 4.8 5.5 5.9q.1 0 .2.1c2.3.9 5 1.1 7.5.1z" fill="#fff"/><path d="m888.5 263.3q-.1 0-.2-.1c.1.1.2.1.2.1z" fill="#fff"/><path d="m259.6 358.1c4.3 2.6 9.3-.1 12.2-3.7 3.7-4.6 7.5-10.3 11.3-17.1 7.7-13.9 14.8-27.7 21.4-41.6 2.9-6 6.1-11.8 8.6-18.1 2.4-5.8 4.6-17.1-2.3-20.5-3-1.5-5.8-1.1-8.4 1-3.1 2.6-6 6.2-8.2 9.7-12 19.1-22.3 38.3-31 57.5-2 4.3-3.4 8.8-5 13.3-1.4 3.8-2.3 7.7-2.6 11.7-.4 3.3.9 5.9 4 7.8zm4.5-11.8c3.5-6.8 6.8-13.6 9.9-20.3 6.7-14.3 14-27.5 21.6-41.5 2.7-5 5.6-9.8 8.7-14.6.4-.6.9-.7 1.5-.5.2.1.3.2.4.3.2.3.3.7.1 1.1-1.8 3.3-3.7 6.6-5.6 9.8-6.5 11.3-12.1 25.2-19.3 37.5-3.6 6.2-7 12.8-10.3 19.7-1.3 2.7-2.8 5.5-4.7 8.6-.4.6-1 1-1.7 1.2-.3.1-.5-.1-.6-.6-.1-.2-.1-.4 0-.7z"/><path d="m542.3 278.9c.3.9.8 1.7 1.4 2.5q.1.1.2.2c.9 1.1 2.1 2.1 3.6 2.8 1.5.7 3.1 1 4.6 1 .9 0 1.8-.2 2.6-.4.6-.2 1.1-.4 1.6-.7.3-.1.5-.3.7-.5.5-.3.9-.7 1.3-1.1.6-.6 1.1-1.4 1.5-2.2.5-1.1.8-2.3.8-3.4 0-1.1-.2-2.3-.7-3.4-.4-1.1-1.1-2.1-2-3-.8-.9-1.9-1.6-3.1-2.2-.8-.4-1.7-.7-2.6-.8-.7-.1-1.4-.2-2-.2-.7 0-1.4.1-2 .3-.4.1-.8.2-1.1.4-.2.1-.5.2-.7.3-1.7.8-3.1 2.2-4 4-.5 1.1-.8 2.3-.8 3.4.2 1 .4 2 .7 3z" fill="#fff"/><path d="m558 270.6c-.8-.9-1.9-1.6-3.1-2.2-.8-.4-1.7-.7-2.6-.8.9.2 1.7.4 2.6.8 1.2.6 2.3 1.4 3.1 2.2z" fill="#fff"/><path d="m547.5 284.4c-1.5-.7-2.7-1.6-3.6-2.8.9 1.2 2.1 2.2 3.6 2.8 1.5.7 3.1 1 4.6 1-1.5 0-3.1-.3-4.6-1z" fill="#fff"/><path d="m548.4 267.8c.7-.2 1.3-.3 2-.3-.7 0-1.4.1-2 .3z" fill="#fff"/><path d="m546.5 268.4c.2-.1.5-.2.7-.3-.2.1-.5.2-.7.3z" fill="#fff"/><path d="m554.7 285c-.8.3-1.7.4-2.6.4.9 0 1.8-.2 2.6-.4z" fill="#fff"/><path d="m543.7 281.4c-.6-.8-1-1.6-1.4-2.5.4.9.8 1.8 1.4 2.5z" fill="#fff"/><path d="m556.3 284.3c-.5.3-1 .5-1.6.7.6-.2 1.1-.5 1.6-.7z" fill="#fff"/><path d="m264.7 347.6c.8-.2 1.4-.6 1.7-1.2 1.9-3 3.5-5.9 4.7-8.6 3.2-6.9 6.7-13.5 10.3-19.7 7.2-12.3 12.7-26.2 19.3-37.5 1.9-3.3 3.8-6.5 5.6-9.8.2-.3.2-.7-.1-1.1-.1-.2-.3-.3-.4-.3-.6-.2-1.1 0-1.5.5-3.1 4.8-6 9.6-8.7 14.6-7.6 14-14.9 27.2-21.6 41.5-3.1 6.7-6.4 13.5-9.9 20.3-.1.2-.1.5 0 .7.2.5.4.7.6.6z" fill="#314416"/><path d="m568.4 306.5c.3.5.7 1 1.1 1.5.2.2.4.5.7.7.7.7 1.5 1.2 2.3 1.6.3.1.5.3.8.4.6.2 1.1.4 1.7.5s1.2.2 1.7.2c.6 0 1.2 0 1.7-.1 1.7-.3 3.3-1.1 4.5-2.4.3-.3.5-.6.7-.9s.4-.6.5-.9c.3-.6.5-1.1.7-1.7.1-.4.2-.7.2-1.1.1-1.1.1-2.3-.2-3.5-.1-.3-.2-.6-.3-.8-.5-1.4-1.3-2.7-2.5-3.9-.2-.2-.5-.4-.7-.6-.5-.4-1-.7-1.6-1-.5-.3-1.1-.5-1.7-.7-.3-.1-.6-.2-.9-.2-.6-.1-1.2-.2-1.7-.2-.6 0-1.2 0-1.7.1-1.7.3-3.3 1.1-4.5 2.4-2.3 2.4-2.8 5.8-1.7 8.9.4.6.6 1.1.9 1.7z" fill="#fff"/><path d="m584.3 307.1c-.2.3-.3.6-.5.9.1-.3.3-.6.5-.9z" fill="#fff"/><path d="m576.7 311.4c-.6 0-1.2-.1-1.7-.2.6.1 1.2.2 1.7.2z" fill="#fff"/><path d="m575 311.2c-.6-.1-1.2-.3-1.7-.5.6.2 1.1.4 1.7.5z" fill="#fff"/><path d="m569.5 308c.2.2.4.5.7.7.7.7 1.5 1.2 2.3 1.6-.8-.4-1.6-1-2.3-1.6-.3-.3-.5-.5-.7-.7z" fill="#fff"/><path d="m569.5 308c-.4-.5-.8-1-1.1-1.5.3.5.7 1 1.1 1.5z" fill="#fff"/><path d="m568.4 306.5c-.3-.5-.6-1.1-.8-1.6.3.5.5 1 .8 1.6z" fill="#fff"/><path d="m585.2 304.2c0 .4-.1.7-.2 1.1 0-.3.1-.7.2-1.1z" fill="#fff"/><path d="m573.9 293.5c.6-.1 1.1-.1 1.7-.1-.6-.1-1.2 0-1.7.1z" fill="#fff"/><path d="m578.5 311.3c-.6.1-1.1.1-1.7.1.5 0 1.1 0 1.7-.1z" fill="#fff"/><path d="m325.6 319.3c-8.7 9.9-15.2 20.2-17 33.2-1.5 10.1-1.4 20.6.3 31.5 1.1 7.1 2.7 13.1 4.7 17.9 1.3 3.1 4 5.6 7.4 3.9 3-1.4 3.8-3.9 2.4-7.3-5.4-13.6-6.4-29-4.8-43.5 1.5-13.4 10-24.9 19.7-34 6.4-6 14.2-8.6 22.3-11.3 3.1-1 5.7-3.3 4.6-6.9-1.5-4.8-5.5-3.9-9.2-2.6-6.5 2.3-11.5 4.3-15 6.2-5.1 2.9-10.3 7.1-15.4 12.9z"/><path d="m1016 303.3c-4.5-3.5-13.1-.7-17.6 1.7-11.8 6.5-27.8 11.4-36.7 15.8-9.6 4.8-19.5 7.9-29.4 11.8-8 3.1-17.3 5.3-25.7 7.3-8.9 2.1-17.8 5.2-26.9 7-2.5.5-4.9 1.6-7.3 2.2-13.8 3.4-27.7 6.3-42.5 8.2-16 2.1-32.4 5.7-48.8 7.7-5.5.7-10.7 1.4-15.5 2.2-10 1.7-19.5 2.9-29.8 3-17.5.2-34.5 2-51.1 3.2-20.3 1.5-40.8 1.1-61-.3-13.5-1-27.5-1-40.5-2.2-16.8-1.6-32.7-3.3-47.8-5.2-7.5-1-15-2-22.6-3.6-15-3.3-29.9-6.6-44.5-9.9-7.8-1.7-14.1-3-19.1-3.7-6.2-.9-12.5-1.7-19.1-2.5-8.2-1-17.4-2.5-27.7-4.4-5.7-1.1-9.3-1.6-11-1.5-4.4.2-8.8 1.1-13.4 2.6-8.3 2.8-15.1 12.2-18.9 19.5s-4.6 14.5-2.4 21.5c1.2 3.7 3.4 6.1 6.3 8.5 4.5 3.6 9.2 7.1 14.6 9.6 6.8 3.2 13.4 6.3 19.7 9.2 10.5 4.9 22.1 8.6 33 12.5 10.5 3.8 21.4 5.8 31.6 8.7 4.2 1.2 7.8 2.1 11 2.8 4 .9 7.7 1.8 11.1 2.8 11 3.2 22.2 5.6 33.4 7 13.1 1.6 26 4.3 38.2 5.8 16.3 1.9 33.1 5 48.6 5.5 5.3.2 10.3.5 15.1.9 17.6 1.6 35.1.7 52.8 1.4 22.6.9 46-.1 68.7-1 5.8-.2 12.4-.9 19.9-2 4.4-.7 8.9-.6 13.4-1.3 13.3-1.9 26.4-4.1 39.4-6.5 16.8-3.1 36-5.4 50.3-8.6 8.5-1.9 17.7-4.3 27.8-7.2 8.6-2.4 18.6-4.1 27.6-7.1 8.4-2.8 17.2-5.9 26.5-9.2 13.5-4.9 25.1-10.7 35.5-19.4 3.1-2.6 5.6-5.5 7.5-8.5 4.5-7.2 7.6-15.3 9.3-24.4.5-2.5 1.3-10-3.3-8.5-2 .6-4.2 1.6-6 2.6-8.5 4.9-15.5 8.8-21.2 11.5-11.8 5.7-24.5 10.5-38 14.3-6.2 1.8-12.3 3.8-18.3 6-4.1 1.5-8.6 2.8-13.5 3.9-11.3 2.4-22 3.9-32.7 6.1-5.2 1.1-10.2 2-14.9 2.9-15.9 2.8-30.6 5.1-44.2 6.9-9.1 1.2-18.6 1.8-28.6 2-4.8.1-9.8.3-15.1.6-8.4.5-17.1.4-25.7 1-3.3.3-6.8.4-10.6.3-4.9-.1-9.5-.1-13.8 0-17.9.3-36.1.2-54.6-.3-7.7-.2-15.3.7-23.1.2-24.2-1.6-47.1-2.9-71.8-6.8-17.6-2.8-37.9-4.9-52.4-7.8-24.9-4.9-49.5-9.2-73.9-13-6.2-1-12.3-2.6-18.2-5-6.5-2.5-3.7-11.8 3.1-9.7 6.7 2.1 12.7 3.8 20.1 5 25.6 4 47.2 8 70.8 12.4 6.1 1.1 12.7 2.2 19.8 3.2 17 2.4 34.4 4.9 52.2 7.4 5.5.8 22.1 2 49.9 3.8 8.9.5 17.9-.3 27 0 13.7.5 26.6.3 39.9.5 7.2.1 14.2-.5 21.4-.4 5.8.1 11.1 0 16-.2 17.6-.8 34.3-1.5 50.1-2.1 3.9-.2 7.8-.7 11.7-1 2.8-.2 5.6-.5 8.4-1 16.6-2.6 34.1-4.8 50.6-8.5 10.2-2.3 20.1-3.6 30.3-5.6 4.7-.9 9.1-2.3 13.7-3.5 3.3-.9 6.6-1.9 10-3 6-2 13.2-4.3 21.8-6.9 15.8-4.8 32.8-12.8 51.2-23.9 3.6-2.2 8.4-3.3 12.5-5.6s8-4.6 11.8-7c5.7-3.6 9.1-7.6 10-14.8.6-5.5.3-12.1-4.4-15.9z" fill="#97562c"/><path d="m1041.7 647c-5.2-35.7-11.1-72.5-17.7-110.5-3.7-21.2-8-42.1-12.7-62.7-3-12.8-7-26.3-10.6-39.7-.1-.3-.3-.5-.7-.4-15.1 5.2-29.8 10.8-45 15.2-39.6 11.4-65.1 18.6-76.6 21.6-9.8 2.6-20.4 5.1-31.9 7.6-9.9 2.2-19.8 3.9-29.6 5.6-6.4 1.2-13 2.2-19.7 3-7.9 1-15.8 2.4-23.8 4.2-4.3 1-8.3 2-12.8 2.2-3.5.1-6.9.5-10.3 1-5.5.9-11.4 1.2-17 1.4-9.7.3-19.6.7-29.3.5-28.8-.5-51.7-1.2-68.7-2.3-23.3-1.4-43.8-3.1-61.2-5-35-3.8-69.7-8.1-104.1-12.9-20-2.8-40-6.5-59.9-9.9-2.4-.4-4.6-1.2-6.9-1.8-10.1-2.5-20.1-4.8-30.1-7-6.2-1.4-12.5-3-18.9-5-15.1-4.5-30.8-8.8-45.4-14-20-7.2-40.6-15.7-61.8-25.5-13.1-6.1-26.1-13.6-38.8-22.7-11.4-8.1-22.8-16.5-33.9-25.1-8.8-6.8-15.3-13.8-22.6-21.2l-.1-.1h-.4s-.1 0-.1.1l-.1.1c-4.8 11.8-9.5 23.8-13.4 36-1.7 5.4-3.5 10.8-5.2 16.3-2.7 8.5-5.5 18.2-8.2 29-3.5 14.1-7.2 27.3-11 40.7-1.4 5-2.1 10.2-3.3 15.2-.9 3.9-1.7 7.7-2.4 11.6-1.8 10.5-3.6 20.6-4.7 31.2-1.7 14.9-3.4 29.8-5.2 44.8-2.4 20.3-3.3 40.8-3.2 61.2.1 11.5-.1 23.2.5 34.3 1.6 27.3 4.8 54.4 9.4 81.4.7 4.2.9 8.5 1.8 12.7 2.9 13.4 6 26.7 11.3 39.1 6.6 15.5 14.7 30.1 24.3 43.7 9.5 13.4 19.1 25.8 28.8 37.1 1.8 2.1 3.8 4.1 6 6.1 6.3 5.8 12.5 11.4 18.7 16.9 5.3 4.8 11.1 9.3 17.2 13 10 6 19.7 11.9 29.2 17.9 5.7 3.6 11.2 6.8 16.7 9.6 7.4 3.9 13.4 6.7 18 8.3 8.3 3 16.7 5.9 25.2 8.8 7.7 2.6 15.6 4.9 23.3 6.9 15.2 4 32.9 8.4 53 13.2 27.1 6.4 54.8 10.3 81.9 15.1 7.4 1.3 14 2.4 19.7 3.2 36.1 5.2 69.4 8.9 99.9 11 3 .2 9.5.2 19.6.1 8.8-.1 17.8.5 26.7 0 49.5-2.6 98.9-7.9 148.3-15.8 8.9-1.4 17.2-3.5 25.8-5.2 6.5-1.3 12.7-2.9 18.8-4.8 20.8-6.4 40.8-12.5 61.7-20.4 27-10.2 53.4-23.1 79.3-38.5 8.8-5.2 18.5-11.8 25.8-18.4 5.4-4.9 11.7-11.2 19-19.1 6.5-7.1 11.3-14 14.5-20.8 2.6-5.5 5.6-12.8 9-21.9 2.3-6.1 4.1-11.8 5.4-17 1.5-6 4.2-11.3 5.3-17.6 1.6-8.9 3.1-18.3 4.7-28.2 1.8-11 2.8-20.3 3.2-28.1.2-3.8.5-7.4.8-10.8.4-3.7.6-7.2.6-10.5 0-21.9-.9-40.4-2.7-55.3-1.6-15.2-2.8-24.8-3.4-28.7zm-763-99.3c-2 3.5-3.8 7-5.3 10.3-6.7 14.7-13.4 30-18.1 45.5-9 29.8-13.9 61.1-16.8 91.5-1.5 16-2.7 31.5-3.7 46.5-.1 2-.5 4-1.1 6-.1.4 0 .9.4 1.2 6.6 4.3 13.4 8.7 18.6 14.3 3.8 4 5.3 8.9 4.7 14.5-1.1 9.5-11.1 14.9-20 13.9-3.5-.4-7-1.1-10.5-2.2h-.5s-.1 0-.1.1l-.1.1s0 .1-.1.1c0 0 0 .1-.1.2-.2 1.3-.4 2.6-1.2 3.6-8 10.4-21.8 11.1-32.1 3.8-3.9-2.8-7-5.7-9.4-8.8l-.1-.1-.1-.1q-.1 0-.2-.1t-.2-.1h-.4c-.1 0-.1.1-.2.1s-.1 0-.2.1c-2.7 2.1-5.6 3.7-8.7 4.9-7.4 2.9-17.8 1.1-24-3.9-4.8-3.9-11.6-10.4-11.5-16.7v-.2s0-.1-.1-.1c0 0 0-.1-.1-.1 0 0-.1 0-.1-.1 0 0-.1 0-.1-.1h-.4c-5.8 1.6-11.5 1.1-17-1.4-4.9-2.2-7.4-8.1-9.1-13-4.2-12.5-4.9-25-2-37.5 1.1-4.6 1.9-8.5 1.1-13.5-1.4-8.3-2.3-17-2.7-26.3-1.3-29.7.3-60.4 5.2-90.5 7.3-45.6 19.5-90.1 36-133 3.5-9 7.7-18.2 12.8-27.6.9-1.7 3.1-2.2 5-2.1 6.2.1 11.6.3 17.8 2.5 9.5 3.3 18.6 8 27.4 14.1 13.4 9.3 24.7 18.7 34.1 28.2 18.6 18.9 32.2 44.9 33.8 71.6.4 1.8.1 3.2-.6 4.4zm468.9 193.9c1.7-3.7 5.5-3.3 8.4-1.6 7 4.2 15.2 6.7 23.8 8.3 7.5 1.4 5.1 11.3-2.4 10.1-8.7-1.5-17.3-4.4-25.7-8.8-3-1.5-5.8-4.3-4.1-8zm34.4 96.6c-2.8-.2-5.2-.7-7.3-1.5-6.6-2.7-3.9-11.5 3.5-9.7 2.9.7 6 1.1 9.1 1.2 5.8.2 11.5.2 17.1.3 5 0 9.4 6.3 3.6 9.3-2 1.1-4.1.9-6.3 1-7 0-13.6-.1-19.7-.6zm47 42.3c-6 6.5-11 15.2-13.2 23.9-2 7.6-12.3 4.3-9.7-4.2 2.4-7.7 6.5-15.6 12.4-23.6 2.5-3.3 7.6-7.9 11.3-3.4 1.8 2.3 1.6 4.7-.8 7.3zm132.1-74.8c-5.2 11-11.5 20.5-19 28.6-16.9 18.4-35.7 35.3-54.2 52.3-2.1 1.9-4.2 3.8-6.4 5.7-11.9 10.3-20.6 22.7-29 36.3-2 3.3-4.9 6.5-8.9 3.8-3.3-2.3-2.5-5.7-.6-8.6 2-2.9 3.9-5.9 5.8-8.8 5.5-8.7 12-16.9 19.5-24.7 5.2-5.4 12.8-11.7 19.2-17.5 16.5-15.3 34.1-31.5 48.2-47 7-7.7 12.6-16.6 16.8-26.7 3.2-7.6 2.7-15.3-1.6-23-3.5-6.3-16.9-11-22.7-12-6.2-1.1-14-.7-20.4 0-13.4 1.4-26.4 4-38.8 7.8-11.7 3.6-23.7 7.2-36 10.8-7.8 2.3-16.3 4.2-24.4 6.2-14.2 3.5-29.7 6.2-43 2.5-2.4-.7-4-2.2-4.8-4.6-.1-.4-.1-.8.1-1.1 3.2-7 10.6-3.1 15.9-2.9 6.6.2 13.1-.4 19.6-1.8 12.8-2.7 27.7-6.3 41.5-10.4l24.6-7.5c14.8-4.6 29-7.5 44.1-9.2 6.8-.7 13.6-1.2 20.1-.5 8.7 1 17.4 4.3 26.3 10.1 2.6 1.7 5.2 4.4 6.8 7.2 6.5 11.5 6.9 23.2 1.3 35z" fill="#52737c"/><path d="m151.2 343.9c0-.1.1-.1 0 0 .1-.1 0-.1 0 0z" fill="#52737c"/><path d="m151.1 344c0-.1.1-.1.1-.1-.1 0-.1.1-.1.1z" fill="#52737c"/><path d="m349.1 419.1c-1.2 5.6-3.7 11.3-4.9 16.7-.1.4 0 .7.4.9 1.1.6 1.5 1.3 1.1 2.2 10 3.2 20 5.9 30.2 8.2 5.1 1.2 10.2 2.4 15.1 3.6 5.4 1.4 10.5 2.5 15.4 3.4 3.6.6 7 1.8 10.6 2.5 19.8 3.8 39.2 7 58.3 9.6 28.7 4 60.4 8 94.8 11.8 6.9.8 13.5 1.4 19.9 2 19.9 1.7 32.7 2.7 38.6 3.1 34 2.1 68.5 2.9 103.5 2.3 3.8-.1 7.4-.3 11-.7 12.7-1.4 24.4-3.2 35.2-5.2 16.2-3 34.3-5.4 48.5-8.1 23.3-4.4 44.5-9.3 63.4-14.8 14.2-4.1 29.6-8.5 45.9-13 15-4.2 25.9-7.4 32.6-9.8 9.4-3.3 18.9-6.6 28.6-10 .3-.1.5-.4.3-.7l-6.7-21.1c-.1-.3-.3-.3-.5-.1-9.7 9.1-22.6 16.5-35.4 21.3-10.6 4-21.4 7.8-32.3 11.5-2.9 1-5.9 1.8-9.1 2.5-7.5 1.6-14.6 3.3-22.2 5.5-14.6 4.1-24.4 6.5-29.4 7.4-20 3.3-35.2 5.8-45.7 7.7-15 2.6-30.4 5.2-46.2 7.6-3.1.5-6.2 0-9.3.5-5.1.8-9.2 1.3-12.3 1.5-26.4 1.6-52.4 2-78 1.3-15.9-.4-31.5.3-47.4-.9-3.8-.3-8-.5-12.4-.7-8.9-.4-18.1-1.1-27.6-2.4-9.4-1.2-18.7-2.8-28.2-3.7-9.3-.9-19.3-3-28.8-4.4-7.2-1-14.4-2.1-21.6-3.2-6.6-1.1-13.2-2.8-19.8-4.2-4.7-1-9.6-2.3-14.7-3.8-10-3-20.2-5.7-30.6-8-3.7-.8-7.8-2.1-11.3-3.4-8-3-15-5.5-21.1-7.6-8.5-2.9-17.2-7.8-24-10.6-11.8-4.8-21.2-10-30.8-19.4-.9 4.6-1.6 9.1-2 13.5-.2 4.1-.7 7.1-1.1 9.2z" fill="#a8a707"/><path d="m245.7 471.9c-9.4-9.5-20.8-18.9-34.1-28.2-8.8-6.1-17.9-10.8-27.4-14.1-6.2-2.2-11.6-2.4-17.8-2.5-1.8 0-4 .4-5 2.1-5.1 9.4-9.4 18.7-12.8 27.6-16.5 42.9-28.6 87.4-36 133-4.8 30-6.5 60.8-5.2 90.5.4 9.3 1.3 18.1 2.7 26.3.8 5 0 8.8-1.1 13.5-2.9 12.5-2.2 25 2 37.5 1.7 5 4.2 10.8 9.1 13 5.5 2.5 11.2 2.9 17 1.4h.4s.1 0 .1.1c0 0 .1 0 .1.1 0 0 0 .1.1.1 0 0 0 .1.1.1v.2c-.1 6.3 6.7 12.8 11.5 16.7 6.2 5 16.6 6.8 24 3.9 3.1-1.2 5.9-2.9 8.7-4.9s.1 0 .2-.1c.1 0 .1-.1.2-.1h.4q.1 0 .2.1t.2.1c.1 0 .1.1.1.1l.1.1c2.3 3.1 5.5 6 9.4 8.8 10.3 7.3 24.1 6.5 32.1-3.8.8-1.1 1-2.3 1.2-3.6v-.2s0-.1.1-.1c0 0 0-.1.1-.1 0 0 .1 0 .1-.1h.5c3.5 1.1 7 1.8 10.5 2.2 8.9 1 18.9-4.4 20-13.9.7-5.7-.9-10.5-4.7-14.5-5.2-5.6-12-9.9-18.6-14.3-.4-.2-.5-.7-.4-1.2.6-2 1-4 1.1-6 .9-15 2.2-30.5 3.7-46.5 2.9-30.3 7.9-61.7 16.8-91.5 4.7-15.5 11.4-30.8 18.1-45.5 1.5-3.3 3.3-6.7 5.3-10.3.7-1.2 1-2.6.9-4.2-1.7-26.9-15.3-52.9-34-71.8zm-4.3 294.5c2.6 1.9 4.3 3.9 5.2 6.1 2 4.7-1.5 8.3-6 8.5-5.4.2-10.5-1.2-15.3-4.3-2.9-1.9-5.9-4.9-9.6-2.6-2.6 1.6-3.1 4.7-1.4 7.2 2 2.8 3.5 5.9-.2 8.2-4.8 3.1-10 2.9-14.7-.3-3.8-2.6-9.2-6.6-9.2-11.7 0-1.6.1-3.6-.9-5-1.4-1.9-3.1-2.5-5.3-1.8-4.9 1.4-5.1 6.7-8.6 9.6-4.2 3.6-9 4.7-14.2 3.4-5-1.3-8.3-4.7-11.5-8.5-2.5-3-1-6.1-1.2-9.6-.1-3.4-3.8-5.8-6.8-6-2.2-.2-4.3 1.3-6.3 2.1-4 1.6-10.8 1.7-12.9-3.2-2.3-5.4-3.8-10.9-4.5-16.6-.9-6.8.1-13.4 1-20q0-.1.1-.2l.1-.1h.4q.1 0 .2.1l8.8 6.4c3.8 1.9 9 4.7 15.7 8.5 18 10.2 38.1 15.8 60.3 17l18.5.1c.3 0 .5.1.8.2 5.9 4.1 11.8 8.3 17.5 12.5zm26.6-221.2c-6.5 13.2-12.5 26.9-17.9 41.2-2.3 6-4.4 12.3-6.2 18.9-12.6 44.2-16.5 90.7-19.5 136.5 0 .7-.6 1.3-1.3 1.3-16.6.8-34.5-.7-50.7-6-15.1-5-27.7-12-41.5-20.5-2.4-1.5-4.7-3.2-6.8-5-3.2-2.8-4.2-7.8-4.6-11.9-3.1-29.4-2.5-58.6.8-88.4.7-6.5 1.6-13 2.6-19.5 7.6-47 20.2-92.6 37.8-136.9 2.2-5.4 4.8-10.7 7.5-15.9.5-1 1.5-1.5 2.6-1.5 11 .6 23.2 6.9 32.2 12.8 9.7 6.5 19.2 13.9 28.5 22.1 19.6 17.4 33.6 40.6 37.4 67 .3 2.2 0 4.1-.9 5.8z"/><path d="m183.3 788.2.1.1s-.1-.1-.1-.1z"/><path d="m137.9 772.4v.2c.1-.1 0-.1 0-.2z"/><path d="m226.3 789.3c0-.1.1-.1 0 0 .1-.1 0-.1 0 0z"/><path d="m226.2 789.3s0 .1-.1.1q.1 0 .1-.1z"/><path d="m182.5 788c-.1 0-.1.1-.2.1.1 0 .1-.1.2-.1z"/><path d="m183.1 788.1q-.1 0-.2-.1c.1.1.2.1.2.1z"/><path d="m231.5 472.6c-9.3-8.3-18.8-15.6-28.5-22.1-9-6-21.1-12.2-32.2-12.8-1.1-.1-2.1.5-2.6 1.5-2.8 5.1-5.4 10.5-7.5 15.9-17.7 44.3-30.3 89.9-37.8 136.9-1 6.5-1.9 13.1-2.6 19.5-3.2 29.8-3.9 58.9-.8 88.4.4 4.1 1.4 9.1 4.6 11.9 2.1 1.9 4.4 3.5 6.8 5 13.8 8.5 26.4 15.5 41.5 20.5 16.2 5.3 34 6.8 50.7 6 .7 0 1.3-.6 1.3-1.3 3-45.8 6.9-92.4 19.5-136.5 1.9-6.6 4-13 6.2-18.9 5.4-14.2 11.4-27.9 17.9-41.2.8-1.7 1.1-3.6.8-5.6-3.6-26.6-17.7-49.8-37.3-67.2z" fill="#52737c"/><path d="m1073.6 633.7c-3.3-18.9-7.3-37.7-12-56.4-6.8-26.9-15.9-53.8-27.5-80.8-2.8-6.5-6.1-12.9-9.9-19-1-1.6-1.3-1.4-.9.4 1.3 6.9 2.6 13.9 4.1 21.2 2.9 13.9 5.5 27.7 7.8 41.3 4.2 24.6 8.3 49.5 12.2 74.7 3.4 21.4 6 40.8 8 58.1 2.2 18.8 3.1 38 2.8 57.4 0 .6.2.7.7.3 5.2-4.8 10.6-9.8 14.1-15.8 1.7-3 3.3-5.9 4.9-8.7 1.7-3.1 1.6-6.5 1.4-10-1.1-20.8-2-42-5.7-62.7z" fill="#52737c"/><path d="m223 753.5-18.5-.1c-2.1 2.3-4.8 3.9-8 5-7.2 2.4-13.7 3.8-19.5 4.1-8.7.5-18.3-3.8-27.2-8.4-10.8-5.7-17.9-14.4-21.3-26.1l-8.8-6.4s-.1-.1-.2-.1h-.4l-.1.1s-.1.1-.1.2c-1 6.7-1.9 13.2-1 20 .7 5.6 2.3 11.2 4.5 16.6 2.1 4.9 8.9 4.8 12.9 3.2 2-.8 4.1-2.2 6.3-2.1 3 .2 6.7 2.6 6.8 6 .1 3.5-1.4 6.6 1.2 9.6 3.2 3.8 6.4 7.2 11.5 8.5 5.2 1.3 10 .2 14.2-3.4 3.5-2.9 3.7-8.2 8.6-9.6 2.2-.6 3.9 0 5.3 1.8 1 1.4.9 3.4.9 5 0 5.1 5.4 9.2 9.2 11.7 4.7 3.2 9.9 3.4 14.7.3 3.7-2.3 2.2-5.5.2-8.2-1.8-2.5-1.3-5.6 1.4-7.2 3.7-2.2 6.7.8 9.6 2.6 4.8 3.1 9.8 4.5 15.3 4.3 4.5-.2 8-3.7 6-8.5-.9-2.2-2.7-4.2-5.2-6.1-5.7-4.2-11.6-8.4-17.6-12.6-.1-.1-.4-.2-.7-.2z" fill="#838839"/><path d="m119.1 721.8q0-.1.1-.2-.1.1-.1.2z" fill="#838839"/><path d="m1078.3 725.7c-5.5 7.1-12 12.8-19.6 17.1-.7.4-1.2 1.2-1.2 2-.3 9.2-1.2 18.8-2.6 28.6-.1.5.1.7.6.4 3.8-1.8 7.3-3.6 10.5-5.5 5.9-3.5 10-15.4 11.1-22 1.2-6.8 1.9-13.6 2.1-20.4 0-.9-.3-1-.9-.2z" fill="#82883b"/><path d="m149.8 754.1c8.8 4.6 18.5 8.9 27.2 8.4 5.8-.3 12.3-1.7 19.5-4.1 3.2-1.1 5.9-2.8 8-5-22.2-1.1-42.3-6.8-60.3-17-6.7-3.8-11.9-6.6-15.7-8.5 3.5 11.8 10.6 20.5 21.3 26.2z" fill="#7f6503"/><path d="m779.8 748.3c-8.6-1.6-16.8-4.1-23.8-8.3-3-1.8-6.7-2.1-8.4 1.6s1.1 6.5 4.1 8c8.4 4.4 17 7.3 25.7 8.8 7.5 1.2 10-8.7 2.4-10.1z"/><path d="m953.2 763.6c-8.8-5.8-17.6-9.2-26.3-10.1-6.5-.7-13.4-.3-20.1.5-15 1.6-29.2 4.5-44.1 9.2-8.2 2.5-16.4 5.1-24.6 7.5-13.7 4.1-28.7 7.8-41.5 10.4-6.5 1.4-13.1 1.9-19.6 1.8-5.3-.1-12.7-4-15.9 2.9-.2.4-.2.7-.1 1.1.7 2.4 2.3 4 4.8 4.6 13.3 3.8 28.8 1 43-2.5 8.1-2 16.5-3.8 24.4-6.2 12.3-3.7 24.3-7.3 36-10.8 12.4-3.8 25.3-6.4 38.8-7.8 6.4-.7 14.1-1.1 20.4 0 5.8 1 19.2 5.7 22.7 12 4.3 7.7 4.8 15.4 1.6 23-4.2 10.1-9.9 19-16.8 26.7-14.1 15.6-31.7 31.8-48.2 47-6.3 5.8-14 12.1-19.2 17.5-7.5 7.7-14 15.9-19.5 24.7-1.9 3-3.8 5.9-5.8 8.8-1.9 2.8-2.7 6.3.6 8.6 4 2.8 6.9-.5 8.9-3.8 8.4-13.7 17.1-26 29-36.3 2.2-1.9 4.3-3.8 6.4-5.7 18.5-17 37.3-34 54.2-52.3 7.5-8.1 13.8-17.7 19-28.6 5.6-11.8 5.2-23.5-1.2-35-1.7-2.8-4.3-5.5-6.9-7.2z"/><path d="m804.4 828.4c-5.6 0-11.3-.1-17.1-.3-3.1-.1-6.2-.5-9.1-1.2-7.4-1.8-10.1 7.1-3.5 9.7 2.1.8 4.5 1.4 7.3 1.5 6.1.4 12.7.6 19.7.4 2.2-.1 4.3.1 6.3-1 5.8-2.8 1.3-9.1-3.6-9.1z"/><path d="m818.5 876.5c-5.9 8-10 15.9-12.4 23.6-2.6 8.6 7.8 11.8 9.7 4.2 2.2-8.7 7.2-17.5 13.2-23.9 2.4-2.6 2.6-5 .7-7.3-3.7-4.4-8.8.1-11.2 3.4z"/><path d="m887 970.8c-17.5 6.5-30 10.9-37.5 13.1-10 3-19.6 6.1-28.9 9.2-4.1 1.4-7.9 2.4-11.3 2.9-4.7.8-9.3 1.7-14 2.8-6.4 1.5-12.9 2.8-19.6 3.9-29.5 4.7-59.1 8.5-88.9 11.5-1.7.2-3.4.3-5.1.3-.4 0-.5.2-.3.5 2.6 6 6.3 10.6 11.2 13.8 4.6 3 9.5 5.8 14.8 8.4 8 4 17.2 5.6 25.9 6.8 7 1 13.2 1.6 18.7 2 18.1 1.2 35.3-1.4 52.9-2.6 7.4-.5 14-1.1 20-1.9 13.3-1.7 26-4.2 38-7.5 10.7-2.9 21.6-7 32.4-10.8 10.3-3.6 18.5-8.5 24.6-17.8 1.6-2.5 2.9-6.2 1.3-8.9-3.4-6.2-8.4-11.3-14.7-15.3-6.2-3.9-12.4-7.1-18.7-10.5-.3 0-.6 0-.8.1z" fill="#83611f"/><path d="m558.4 1017c-22.4-2-45.6-4.6-69.5-7.8-6.7-.9-13.3-1.9-20-3.1-19.8-3.5-40.6-7-62.3-10.7-8.4-1.4-17-3.2-25.2-5.1-17.5-4-35.5-8.4-54-13.1-6.4-1.6-12.6-3.4-18.6-5.2-.6-.2-1.3-.1-1.9.2-4.9 2.5-9.1 5-12.6 7.7-3.9 2.9-9.6 13.7-7.6 18.4 2.9 7.1 8.4 15.4 14.5 20.3 10.2 8.2 22.6 15 36.2 16.5 12.5 1.3 25.2 2.8 38.2 4.4 12.1 1.5 24.5 2.3 36.9 2.3 23.3 0 44.8.2 64.5.6 7.5.2 15 .1 22.3-.7 3.7-.4 8.2-1.4 13.5-2.9 10.4-3 18.9-5.9 25.5-8.8 2.6-1.1 6.9-3.4 13.1-6.9 2.7-1.5 4.8-3.5 7.3-5.3.6-.5.5-.8-.3-.8z" fill="#83611f"/></svg>